<?xml version="1.0" encoding="UTF-8" standalone="no"?>
<!-- Created with Inkscape (http://www.inkscape.org/) -->

<svg
   xmlns:dc="http://purl.org/dc/elements/1.1/"
   xmlns:cc="http://creativecommons.org/ns#"
   xmlns:rdf="http://www.w3.org/1999/02/22-rdf-syntax-ns#"
   xmlns:svg="http://www.w3.org/2000/svg"
   xmlns="http://www.w3.org/2000/svg"
   xmlns:xlink="http://www.w3.org/1999/xlink"
   version="1.0"
   width="253.10916"
   height="195.16167"
   id="svg2"
   style="enable-background:new">
  <metadata
     id="metadata74">
    <rdf:RDF>
      <cc:Work
         rdf:about="">
        <dc:format>image/svg+xml</dc:format>
        <dc:type
           rdf:resource="http://purl.org/dc/dcmitype/StillImage" />
        <dc:title></dc:title>
      </cc:Work>
    </rdf:RDF>
  </metadata>
  <defs
     id="defs5">
    <linearGradient
       id="linearGradient6430">
      <stop
         id="stop6432"
         style="stop-color:#ce0000;stop-opacity:1"
         offset="0" />
      <stop
         id="stop6434"
         style="stop-color:#e90000;stop-opacity:1"
         offset="1" />
    </linearGradient>
    <linearGradient
       id="linearGradient3218">
      <stop
         id="stop3220"
         style="stop-color:#000000;stop-opacity:1"
         offset="0" />
      <stop
         id="stop3222"
         style="stop-color:#555753;stop-opacity:1"
         offset="1" />
    </linearGradient>
    <linearGradient
       id="linearGradient3210">
      <stop
         id="stop3212"
         style="stop-color:#edd400;stop-opacity:1"
         offset="0" />
      <stop
         id="stop3214"
         style="stop-color:#fce94f;stop-opacity:1"
         offset="1" />
    </linearGradient>
    <linearGradient
       id="linearGradient3558">
      <stop
         id="stop3560"
         style="stop-color:#4bc6ff;stop-opacity:1"
         offset="0" />
      <stop
         id="stop3562"
         style="stop-color:#1fb7ff;stop-opacity:0"
         offset="1" />
    </linearGradient>
    <linearGradient
       id="linearGradient2652">
      <stop
         id="stop2654"
         style="stop-color:#ef5d29;stop-opacity:1"
         offset="0" />
      <stop
         id="stop2656"
         style="stop-color:#ef2929;stop-opacity:0"
         offset="1" />
    </linearGradient>
    <linearGradient
       id="linearGradient3770">
      <stop
         id="stop3772"
         style="stop-color:#999999;stop-opacity:0"
         offset="0" />
      <stop
         id="stop3774"
         style="stop-color:#cccccc;stop-opacity:1"
         offset="0.28968501" />
      <stop
         id="stop3776"
         style="stop-color:#cccccc;stop-opacity:1"
         offset="0.72421253" />
      <stop
         id="stop3778"
         style="stop-color:#999999;stop-opacity:0"
         offset="1" />
    </linearGradient>
    <linearGradient
       id="linearGradient3578">
      <stop
         id="stop3580"
         style="stop-color:#999999;stop-opacity:1"
         offset="0" />
      <stop
         id="stop3582"
         style="stop-color:#ffffff;stop-opacity:1"
         offset="1" />
    </linearGradient>
    <linearGradient
       x1="292.98209"
       y1="248.94519"
       x2="292.71686"
       y2="254.84595"
       id="linearGradient3605"
       xlink:href="#linearGradient3578"
       gradientUnits="userSpaceOnUse" />
    <linearGradient
       x1="579.61249"
       y1="-2053.46"
       x2="633.25787"
       y2="-2073.55"
       id="linearGradient3607"
       xlink:href="#linearGradient3770"
       gradientUnits="userSpaceOnUse"
       gradientTransform="matrix(0.8697037,0.5377184,-0.05088559,2.0041935,-132.86485,4079.057)" />
    <linearGradient
       x1="579.61249"
       y1="-2053.46"
       x2="633.25787"
       y2="-2073.55"
       id="linearGradient3609"
       xlink:href="#linearGradient3770"
       gradientUnits="userSpaceOnUse"
       gradientTransform="matrix(0.8697037,0.5377184,-0.05088559,2.0041935,-132.86485,4082.0622)" />
    <linearGradient
       x1="579.61249"
       y1="-2053.46"
       x2="633.25787"
       y2="-2073.55"
       id="linearGradient3611"
       xlink:href="#linearGradient3770"
       gradientUnits="userSpaceOnUse"
       gradientTransform="matrix(0.8697037,0.5377184,-0.05088559,2.0041935,-132.86485,4085.0674)" />
    <linearGradient
       x1="579.61249"
       y1="-2053.46"
       x2="633.25787"
       y2="-2073.55"
       id="linearGradient3613"
       xlink:href="#linearGradient3770"
       gradientUnits="userSpaceOnUse"
       gradientTransform="matrix(0.8697037,0.5377184,-0.05088559,2.0041935,-132.86485,4088.0726)" />
    <radialGradient
       cx="308.00009"
       cy="237.60178"
       r="13.826746"
       fx="308.00009"
       fy="237.60178"
       id="radialGradient3615"
       xlink:href="#linearGradient2652"
       gradientUnits="userSpaceOnUse"
       gradientTransform="matrix(-2.470026,1.2123383,-2.5289897,-1.8798194,1652.7116,307.88628)" />
    <radialGradient
       cx="313.97348"
       cy="257.40872"
       r="4.0046649"
       fx="313.97348"
       fy="257.40872"
       id="radialGradient3617"
       xlink:href="#linearGradient3558"
       gradientUnits="userSpaceOnUse"
       gradientTransform="matrix(-1.2239386,0.8005673,-1.1669368,-1.1126277,983.68752,289.08822)" />
    <linearGradient
       x1="121.62237"
       y1="166.88406"
       x2="121.62236"
       y2="63.590191"
       id="linearGradient3216"
       xlink:href="#linearGradient3210"
       gradientUnits="userSpaceOnUse"
       gradientTransform="matrix(0.9919329,0,0,0.9919329,-57.187787,-52.294514)" />
    <linearGradient
       x1="282.13562"
       y1="198.85522"
       x2="282.13562"
       y2="220.4299"
       id="linearGradient3224"
       xlink:href="#linearGradient3218"
       gradientUnits="userSpaceOnUse"
       gradientTransform="translate(-58.623593,-52.746766)" />
    <linearGradient
       x1="282.13562"
       y1="198.85522"
       x2="282.13562"
       y2="220.4299"
       id="linearGradient6356"
       xlink:href="#linearGradient3218"
       gradientUnits="userSpaceOnUse"
       gradientTransform="translate(-58.623593,-49.548418)" />
    <filter
       color-interpolation-filters="sRGB"
       id="filter6426">
      <feGaussianBlur
         stdDeviation="1.3718847"
         id="feGaussianBlur6428" />
    </filter>
    <linearGradient
       x1="313.12421"
       y1="234.06723"
       x2="300.74551"
       y2="252.48558"
       id="linearGradient6436"
       xlink:href="#linearGradient6430"
       gradientUnits="userSpaceOnUse" />
    <filter
       x="-0.049464952"
       y="-0.10498104"
       width="1.0989299"
       height="1.2099621"
       color-interpolation-filters="sRGB"
       id="filter6542">
      <feGaussianBlur
         stdDeviation="2.6872547"
         id="feGaussianBlur6544" />
    </filter>
    <filter
       color-interpolation-filters="sRGB"
       id="filter6596">
      <feGaussianBlur
         stdDeviation="1.7274814"
         id="feGaussianBlur6598" />
    </filter>
    <linearGradient
       x1="180"
       y1="163.62605"
       x2="180"
       y2="66.188019"
       id="linearGradient6600"
       xlink:href="#linearGradient3218"
       gradientUnits="userSpaceOnUse" />
    <filter
       color-interpolation-filters="sRGB"
       id="filter6626">
      <feBlend
         in2="BackgroundImage"
         mode="multiply"
         id="feBlend6628" />
    </filter>
  </defs>
  <path
     d="m 192.86534,56.061481 c -0.50361,-0.05952 -15.81743,15.539777 -22.98246,22.59399 6.39469,-2.022962 17.37512,-5.797322 18.87496,-5.619699 1.50061,0.17761 10.05669,6.287721 15.14374,9.668178 -3.44524,-8.295783 -10.53195,-26.582844 -11.03624,-26.642469 z m 63.7003,19.617933 c -0.36861,-0.209237 -30.19021,6.665429 -43.89415,9.694631 7.65259,0.542544 21.08672,1.231768 22.18456,1.854212 1.09971,0.623611 1.92541,8.064764 2.67487,12.283088 5.91959,-7.418443 19.40383,-23.62268 19.03472,-23.831931 z M 125.42293,59.592937 c -0.44655,0.1125 4.65988,18.477033 6.76635,26.856382 2.69189,-3.815347 6.93512,-10.632649 8.26418,-10.967772 1.33082,-0.335537 14.41073,2.134145 21.88974,3.381693 -11.49464,-6.001218 -36.47343,-19.382928 -36.92027,-19.270303 z m 164.80534,51.680193 c -0.0928,-0.27855 -33.04307,-4.73423 -48.04185,-6.88709 5.99277,2.90065 16.78887,7.80145 17.06501,8.63065 0.27649,0.83069 -6.98832,6.74108 -10.86175,10.18944 13.01804,-3.70914 41.93138,-11.65403 41.83859,-11.933 z M 125.48113,90.005528 C 110.30347,88.587271 77.076206,85.20923 76.857612,85.45104 c -0.218602,0.241871 23.348278,14.363657 33.917068,20.87246 -2.03696,-4.14784 -6.10707,-11.394242 -5.45553,-12.114888 0.65021,-0.719302 13.13762,-2.842685 20.16198,-4.203084 z m 121.66254,38.409332 c 2.03703,4.14807 6.10691,11.39426 5.45552,12.11488 -0.65033,0.7193 -13.13757,2.84269 -20.1619,4.20306 15.17775,1.41825 48.40491,4.79631 48.62348,4.5545 0.21866,-0.24186 -23.3483,-14.36365 -33.9171,-20.87244 z M 107.57689,111.87714 c -13.017795,3.70908 -41.931322,11.654 -41.838422,11.93314 0.09271,0.27847 33.043041,4.73405 48.041762,6.88692 -5.9926,-2.90067 -16.788896,-7.80154 -17.064854,-8.63067 -0.276569,-0.83079 6.988304,-6.74109 10.861514,-10.18939 z M 225.72916,148.289 c -2.69194,3.81535 -6.93504,10.63266 -8.26422,10.9678 -1.33087,0.33555 -14.41072,-2.13415 -21.88976,-3.38169 11.49463,6.00121 36.47352,19.38299 36.92049,19.27028 0.44622,-0.11245 -4.66012,-18.477 -6.76651,-26.85639 z M 118.43579,135.57189 c -5.91956,7.41845 -19.403773,23.62269 -19.034599,23.83193 0.36839,0.20917 30.190049,-6.66543 43.894159,-9.69464 -7.65284,-0.54256 -21.08673,-1.23178 -22.1848,-1.85426 -1.09959,-0.62357 -1.92533,-8.06468 -2.67476,-12.28303 z m 67.64804,20.85589 c -6.39469,2.02298 -17.37508,5.79732 -18.87493,5.61969 -1.50044,-0.17764 -10.05685,-6.28769 -15.14375,-9.66826 3.44522,8.29578 10.53209,26.58297 11.03633,26.64251 0.50342,0.0594 15.81741,-15.53967 22.98235,-22.59394 z"
     transform="matrix(1,0,0,1.0406634,-58.623593,-54.026411)"
     id="path6546"
     style="opacity:0.35096154;fill:url(#linearGradient6600);fill-opacity:1;filter:url(#filter6596)" />
  <path
     d="m 134.24175,3.3147155 c -0.50361,-0.05952 -15.81743,15.5397765 -22.98246,22.5939895 6.39469,-2.022962 17.37512,-5.797322 18.87496,-5.619699 1.50061,0.17761 10.05669,6.287721 15.14374,9.668178 C 141.83275,21.661401 134.74604,3.3743405 134.24175,3.3147155 z m 63.7003,19.6179325 c -0.36861,-0.209237 -30.19021,6.665429 -43.89415,9.694631 7.65259,0.542544 21.08672,1.231768 22.18456,1.854212 1.09971,0.623611 1.92541,8.064764 2.67487,12.283088 5.91959,-7.418443 19.40383,-23.62268 19.03472,-23.831931 z M 66.799337,6.8461715 c -0.44655,0.1125 4.65988,18.4770325 6.76635,26.8563815 2.69189,-3.815347 6.93512,-10.632649 8.26418,-10.967772 1.33082,-0.335537 14.41073,2.134145 21.889743,3.381693 C 92.224967,20.115256 67.246177,6.7335465 66.799337,6.8461715 z M 231.60468,58.526364 c -0.0928,-0.27855 -33.04307,-4.73423 -48.04185,-6.88709 5.99277,2.90065 16.78887,7.80145 17.06501,8.63065 0.27649,0.83069 -6.98832,6.74108 -10.86175,10.18944 13.01804,-3.70914 41.93138,-11.65403 41.83859,-11.933 z M 66.857537,37.258762 c -15.17766,-1.418257 -48.404924,-4.796298 -48.623518,-4.554488 -0.218602,0.241871 23.348278,14.363657 33.917068,20.87246 -2.03696,-4.14784 -6.10707,-11.394242 -5.45553,-12.114888 0.65021,-0.719302 13.13762,-2.842685 20.16198,-4.203084 z M 188.52008,75.668094 c 2.03703,4.14807 6.10691,11.39426 5.45552,12.11488 -0.65033,0.7193 -13.13757,2.84269 -20.1619,4.20306 15.17775,1.41825 48.40491,4.79631 48.62348,4.5545 0.21866,-0.24186 -23.3483,-14.36365 -33.9171,-20.87244 z M 48.953297,59.130374 c -13.017795,3.70908 -41.9313217,11.654 -41.8384217,11.93314 0.09271,0.27847 33.0430407,4.73405 48.0417617,6.88692 -5.9926,-2.90067 -16.788896,-7.80154 -17.064854,-8.63067 -0.276569,-0.83079 6.988304,-6.74109 10.861514,-10.18939 z m 118.152273,36.41186 c -2.69194,3.81535 -6.93504,10.632656 -8.26422,10.967796 -1.33087,0.33555 -14.41072,-2.13415 -21.88976,-3.38169 11.49463,6.00121 36.47352,19.38299 36.92049,19.27028 0.44622,-0.11245 -4.66012,-18.477 -6.76651,-26.856386 z M 59.812197,82.825124 c -5.91956,7.41845 -19.403773,23.622686 -19.034599,23.831926 0.36839,0.20917 30.190049,-6.665426 43.894159,-9.694636 -7.65284,-0.54256 -21.08673,-1.23178 -22.1848,-1.85426 -1.09959,-0.62357 -1.92533,-8.06468 -2.67476,-12.28303 z m 67.648043,20.855886 c -6.39469,2.02298 -17.37508,5.79732 -18.87493,5.61969 -1.50044,-0.17764 -10.056853,-6.28769 -15.143753,-9.668256 3.44522,8.295776 10.532093,26.582966 11.036333,26.642506 0.50342,0.0594 15.81741,-15.53967 22.98235,-22.59394 z"
     id="path3766"
     style="fill:url(#linearGradient3216);fill-opacity:1" />
  <g
     transform="matrix(1.2433595,-0.05648069,-0.00851864,1.1425318,-114.05679,-272.08226)"
     id="g3512"
     style="enable-background:new">
    <g
       transform="matrix(0.7599177,-0.01192692,0,0.7500728,246.58115,378.18196)"
       id="g3514">
      <g
         transform="matrix(2.8294915,-0.5196682,1.922722,2.7658074,-1390.7458,-622.14861)"
         id="g3516">
        <path
           d="m 191.25,92.09375 c -0.20592,0.0097 -0.4015,0.01903 -0.59375,0.0625 L 129.21875,107.4375 114.875,97.78125 114.75,111.625 c -0.0268,3.59859 -0.0786,5.26638 1.90625,6.5625 l 50.3125,34.09375 c 0.1414,0.11519 0.2923,0.21282 0.4375,0.3125 0.30609,0.21013 0.63149,0.39638 0.96875,0.53125 0.0608,0.0243 0.12527,0.0408 0.1875,0.0625 0.85167,0.32374 1.78133,0.42664 2.5625,0.25 l 72.53125,-16.5 c 0.76901,-0.17389 1.24307,-0.58588 1.40625,-1.125 0.16316,-0.53911 0.0189,-1.22272 -0.5,-1.875 l -49.25,-40.03125 c -0.51896,-0.652313 -1.31584,-1.187828 -2.15625,-1.5 -0.63032,-0.23411 -1.28848,-0.341522 -1.90625,-0.3125 z"
           transform="matrix(0.3165905,0.08474257,-0.2518713,0.3747611,270.47662,187.97058)"
           id="path5539"
           style="opacity:0.5;fill:#000000;fill-opacity:1;filter:url(#filter6542)" />
        <path
           d="m 281.53626,237.15326 27.51166,-0.60706 c 0.28726,0 0.54652,0.1161 0.73397,0.3043 0.18744,0.18821 0.30307,0.44853 0.30307,0.73697 l 5.50607,19.18448 c 0,0.28843 -0.11563,0.54874 -0.30307,0.73695 -0.18745,0.18821 -0.44671,0.30432 -0.73397,0.30432 l -27.12774,0.0421 c -0.57451,0 -1.03703,-0.46441 -1.03703,-1.04127 l -5.88999,-18.61951 c 0,-0.57687 0.46252,-1.04127 1.03703,-1.04127 z"
           id="path3518"
           style="fill:#8d0000;fill-opacity:1" />
        <path
           d="m 293.04884,250.57475 24.09263,-0.46052 c -2.06778,1.70244 -3.74217,4.07456 -3.72168,6.23725 l -24.60495,0.081 c -2.80034,-0.14106 1.92301,-6.21234 4.234,-5.85776 z"
           id="path3520"
           style="fill:url(#linearGradient3605);fill-opacity:1" />
        <g
           transform="matrix(0.4446532,0.0482263,-0.1333755,0.1962764,116.26445,175.89592)"
           id="g3522">
          <path
             d="m 473.62579,276.25731 49.99465,-12.3175"
             id="path3524"
             style="fill:none;stroke:url(#linearGradient3607);stroke-width:0.731525;stroke-linecap:butt;stroke-linejoin:miter;stroke-miterlimit:4;stroke-opacity:1;stroke-dasharray:none" />
          <path
             d="M 473.62579,279.2625 523.62044,266.945"
             id="path3526"
             style="fill:none;stroke:url(#linearGradient3609);stroke-width:0.731525;stroke-linecap:butt;stroke-linejoin:miter;stroke-miterlimit:4;stroke-opacity:1;stroke-dasharray:none" />
          <path
             d="m 473.62579,282.26769 49.99465,-12.3175"
             id="path3528"
             style="fill:none;stroke:url(#linearGradient3611);stroke-width:0.731525;stroke-linecap:butt;stroke-linejoin:miter;stroke-miterlimit:4;stroke-opacity:1;stroke-dasharray:none" />
          <path
             d="m 473.62579,285.27287 49.99465,-12.3175"
             id="path3530"
             style="fill:none;stroke:url(#linearGradient3613);stroke-width:0.731525;stroke-linecap:butt;stroke-linejoin:miter;stroke-miterlimit:4;stroke-opacity:1;stroke-dasharray:none" />
        </g>
        <path
           d="m 297.97117,252.53831 c 3.55435,7.23743 1.84248,10.21442 1.84248,10.21442 2.34309,-1.31419 3.98813,-2.90075 4.59366,-4.89297 1.69632,2.05733 3.28001,4.14745 6.61694,5.72721 0,0 -2.85323,-6.91061 -4.0263,-10.8615 l -9.02678,-0.18716 z"
           id="path3532"
           style="fill:#0093d9;fill-opacity:1;stroke-width:2" />
        <path
           d="m 284.57789,231.78049 26.77592,0.20008 c 0.68561,0 1.23756,0.55195 1.23756,1.23755 l 7.06718,15.78748 c 0,0.6856 -0.55195,1.23755 -1.23756,1.23755 l -27.04539,-0.34183 -8.03527,-16.88328 c 0,-0.6856 0.55195,-1.23755 1.23756,-1.23755 z"
           id="path3534"
           style="fill:url(#linearGradient6436);fill-opacity:1" />
        <path
           d="m 280.11847,237.40712 3.52338,-5.17553 7.74436,17.75537 c -3.36741,1.31622 -7.06065,7.43359 -3.57281,7.85099 -0.90727,0.0228 -1.25561,-0.2564 -1.40216,-0.76942 l -7.33593,-17.04682 c -0.30195,-0.65394 0.12828,-1.26825 1.04316,-2.61459 z"
           id="path3536"
           style="fill:#bc0000;fill-opacity:1" />
        <path
           d="m 284.81403,231.70142 25.95424,-0.0282 c 0.46998,0 0.84832,0.37836 0.84832,0.84833 0.22453,6.59441 -14.1341,15.47802 -20.88485,16.08864 l -6.76604,-16.0604 c 0,-0.46997 0.37835,-0.84833 0.84833,-0.84833 z"
           id="path3538"
           style="fill:url(#radialGradient3615);fill-opacity:1" />
        <path
           d="m 300.57764,261.77315 c 2.52506,-1.48438 3.39499,-3.74367 3.94533,-5.4168 0.129,2.75802 6.15463,7.38876 5.50424,5.77641 -2.09513,-5.19394 -2.45794,-8.70017 -3.21244,-8.8903 -1.09621,-0.27623 -6.29411,-0.14168 -7.77351,-0.22359 1.0853,2.18428 1.8036,4.4636 1.53638,8.75428 z"
           id="path3540"
           style="opacity:0.79901961;fill:url(#radialGradient3617);fill-opacity:1;stroke-width:2" />
        <path
           d="m 319.47279,249.25686 c 0,0.6856 -0.36012,0.98755 -1.04573,0.98755 l -26.46288,0.44824 -0.60592,-0.84306 c 7.14032,-0.21334 18.76088,-0.20836 28.11453,-0.59273 z"
           id="path3542"
           style="fill:#a70000;fill-opacity:1" />
      </g>
    </g>
  </g>
  <path
     d="m 14.400303,150.8796 3.34996,0 c 2.70348,0 5.3482,-0.23509 7.52274,-0.76403 4.52538,-1.17543 9.69726,-4.34909 9.69726,-11.69549 0,-4.46662 -1.93945,-7.52274 -4.58416,-9.16833 -2.82102,-1.76314 -6.58239,-2.35086 -10.69638,-2.35086 l -16.3971997,0 0,1.70437 c 5.17187,0.35263 5.28942,0.47018 5.28942,3.76137 l 0,30.4454 c 0,3.29119 -0.11755,3.40874 -5.28942,3.76137 l 0,1.70437 17.3375397,0 0,-1.70437 c -6.05344,-0.35263 -6.22976,-0.47018 -6.22976,-3.76137 l 0,-11.93243 m 0,-19.74717 c 0,-1.6456 0.64649,-2.17454 4.46662,-2.17454 6.05344,0 9.75604,3.46752 9.75604,9.87358 0,7.34641 -4.81925,9.99113 -9.87358,9.99113 -3.46751,0 -4.34908,-0.11754 -4.34908,-2.29208 l 0,-15.39809 m 58.765624,36.43823 0,-1.70437 c -4.05522,-0.29386 -4.40785,-0.41141 -4.40785,-3.40874 l 0,-24.03747 -0.4114,-0.35263 -9.2271,1.46928 0,1.46928 2.23331,0.29386 c 1.52805,0.23509 1.88068,0.52894 1.88068,2.64471 l 0,13.22355 c 0,1.6456 -0.17631,2.93857 -0.47017,3.52628 -1.35174,2.70348 -4.17276,4.40785 -7.22887,4.40785 -3.40874,0 -5.93591,-2.11577 -5.93591,-6.69993 l 0,-19.98225 -0.4114,-0.35263 -9.227094,1.46928 0,1.46928 2.233314,0.29386 c 1.52805,0.23509 1.88068,0.52894 1.88068,2.64471 l 0,15.51563 c 0,6.7587 3.99645,8.8157 8.34553,8.8157 4.99556,0 9.05079,-3.40874 10.75515,-4.23153 l 0.58772,3.52628 9.40341,0 m 9.15435,0.70525 2.35085,-2.29208 c 2.05699,1.17543 4.5254,2.29208 8.93324,2.29208 7.816583,0 14.634063,-3.76138 14.634063,-15.75072 0,-3.64381 -0.76403,-14.45774 -11.342863,-14.45774 -4.46662,0 -7.93414,2.87979 -10.10867,4.17276 l 0,-17.92525 -0.4114,-0.35263 -9.2271,1.46928 0,1.46928 2.23331,0.23509 c 1.52805,0.17631 1.88068,0.47017 1.88068,2.70348 l 0,37.96628 1.05789,0.47017 m 4.46662,-19.57085 c 0,-1.46928 0.11754,-2.40963 0.58771,-3.34997 1.41051,-2.82102 3.87891,-4.11399 7.1701,-4.11399 2.40962,0 7.581513,1.41052 7.581513,11.63672 0,8.63938 -2.644723,13.3411 -8.463083,13.3411 -3.11487,0 -5.40696,-1.58683 -6.46484,-4.5254 -0.35263,-1.05788 -0.4114,-2.29208 -0.4114,-3.70259 l 0,-9.28587 m 37.375603,-24.3901 -0.4114,-0.35263 -9.22709,1.46928 0,1.46928 2.2333,0.23509 c 1.52806,0.17631 1.88069,0.47017 1.88069,2.70348 l 0,32.61809 c 0,2.99733 -0.17632,3.11488 -4.40785,3.40874 l 0,1.70437 14.3402,0 0,-1.70437 c -4.17276,-0.29386 -4.40785,-0.41141 -4.40785,-3.40874 l 0,-38.14259 m 9.43811,15.22177 0,1.46928 2.23331,0.29386 c 1.52805,0.23509 1.88068,0.52894 1.88068,2.64471 l 0,18.51297 c 0,2.99733 -0.17632,3.11488 -4.40785,3.40874 l 0,1.70437 14.34021,0 0,-1.70437 c -4.17277,-0.29386 -4.40785,-0.41141 -4.40785,-3.40874 l 0,-24.03747 -0.41141,-0.35263 -9.22709,1.46928 m 6.81747,-13.98758 c -2.11576,0 -3.58505,1.52806 -3.58505,3.64383 0,2.05699 1.46929,3.52628 3.58505,3.52628 2.17454,0 3.52628,-1.46929 3.58505,-3.52628 0,-2.11577 -1.41051,-3.64383 -3.58505,-3.64383 m 27.69946,39.67065 c -6.99378,0 -8.63939,-7.28765 -8.63939,-12.81215 0,-8.75692 3.46752,-12.28321 7.52274,-12.28321 2.70347,0 4.40785,1.93946 5.58327,5.11311 0.35263,0.94034 0.70526,1.52805 1.82191,1.52805 1.17543,0 3.46751,-0.76403 3.46751,-2.99733 0,-2.70348 -3.87891,-5.70082 -10.22621,-5.70082 -10.69637,0 -14.28143,7.58151 -14.28143,15.39809 0,9.8148 4.81925,14.81037 13.63495,14.81037 4.11398,0 9.6385,-2.17454 11.28409,-8.46307 l -1.70437,-0.8228 c -1.82191,4.11399 -4.17277,6.22976 -8.46307,6.22976 m 33.63996,-6.05344 c 0,4.76047 -3.64382,5.99467 -5.9359,5.99467 -3.64382,0 -5.40697,-2.58594 -5.40697,-6.05345 0,-2.76225 1.29298,-4.17276 4.58417,-5.40696 2.35085,-0.88157 5.46573,-1.99822 6.7587,-2.82102 l 0,8.28676 m 5.28942,-13.28233 c 0,-3.40873 -0.76404,-7.81658 -9.6385,-7.81658 -6.64115,0 -11.87181,3.46751 -11.87181,6.69993 0,1.88068 2.17454,2.76225 3.2912,2.76225 1.23419,0 1.58682,-0.64648 1.88068,-1.6456 1.29297,-4.34907 3.7026,-5.75959 6.05345,-5.75959 2.29208,0 4.99556,1.17544 4.99556,5.87714 l 0,2.46839 c -1.46928,1.52806 -7.17011,2.99734 -11.81304,4.46662 -4.23153,1.29297 -5.46573,4.23154 -5.46573,6.99379 0,4.40785 2.93857,8.34553 8.46307,8.34553 3.64382,-0.11754 6.87625,-2.29208 8.75693,-3.52628 0.8228,2.17454 1.76314,3.52628 3.82014,3.52628 2.17453,0 4.7017,-0.64648 6.93501,-1.76314 l -0.35262,-1.41051 c -0.8228,0.17631 -2.11577,0.29386 -2.99734,0.0588 -1.05789,-0.23508 -2.057,-1.35174 -2.057,-5.05433 l 0,-14.22267 m 38.36187,1.52806 c 0,-5.9359 -3.23243,-9.34464 -8.63939,-9.34464 -4.34907,0 -7.05256,2.11577 -10.69638,4.46662 l -0.8228,-4.46662 -8.75693,1.46928 0,1.46928 2.23331,0.29386 c 1.52805,0.23509 1.88068,0.52894 1.88068,2.64471 l 0,18.51297 c 0,2.99733 -0.17631,3.11488 -4.40785,3.40874 l 0,1.70437 14.34021,0 0,-1.70437 c -4.17276,-0.29386 -4.40785,-0.41141 -4.40785,-3.40874 l 0,-13.75249 c 0,-1.46928 0.11754,-2.29208 0.58771,-3.23243 1.2342,-2.29207 3.87891,-4.23153 6.99379,-4.23153 3.99645,0 6.17099,2.23331 6.17099,7.34642 l 0,13.87003 c 0,2.99733 -0.17632,3.11488 -4.40785,3.40874 l 0,1.70437 14.34021,0 0,-1.70437 c -4.17276,-0.29386 -4.40785,-0.41141 -4.40785,-3.40874 l 0,-15.04546"
     id="text2427"
     style="font-size:58.77133179px;font-style:normal;font-variant:normal;font-weight:normal;font-stretch:normal;text-align:start;line-height:125%;writing-mode:lr-tb;text-anchor:start;fill:url(#linearGradient3224);fill-opacity:1;stroke:none;font-family:Utopia;-inkscape-font-specification:Utopia" />
  <text
     x="213.01947"
     y="195.03021"
     id="text2432"
     xml:space="preserve"
     style="font-size:13.46161938px;font-style:normal;font-variant:normal;font-weight:normal;font-stretch:normal;text-align:end;line-height:125%;writing-mode:lr-tb;text-anchor:end;fill:#888a85;fill-opacity:1;stroke:none;font-family:Liberation Sans;-inkscape-font-specification:Liberation Sans"><tspan
       x="213.01947"
       y="195.03021"
       id="tspan2434"
       style="font-size:13.46161938px;font-style:normal;font-variant:normal;font-weight:normal;font-stretch:normal;text-align:end;line-height:125%;letter-spacing:0.44818318;writing-mode:lr-tb;text-anchor:end;fill:#888a85;font-family:Liberation Sans;-inkscape-font-specification:Liberation Sans">BOOK PUBLISHING TOOL</tspan></text>
  <path
     d="m 14.400303,154.07795 3.34996,0 c 2.70348,0 5.3482,-0.23509 7.52274,-0.76403 4.52538,-1.17543 9.69726,-4.34909 9.69726,-11.69549 0,-4.46662 -1.93945,-7.52274 -4.58416,-9.16833 -2.82102,-1.76314 -6.58239,-2.35086 -10.69638,-2.35086 l -16.3971997,0 0,1.70437 c 5.17187,0.35263 5.28942,0.47018 5.28942,3.76137 l 0,30.4454 c 0,3.29119 -0.11755,3.40874 -5.28942,3.76137 l 0,1.70437 17.3375397,0 0,-1.70437 c -6.05344,-0.35263 -6.22976,-0.47018 -6.22976,-3.76137 l 0,-11.93243 m 0,-19.74717 c 0,-1.6456 0.64649,-2.17454 4.46662,-2.17454 6.05344,0 9.75604,3.46752 9.75604,9.87358 0,7.34641 -4.81925,9.99113 -9.87358,9.99113 -3.46751,0 -4.34908,-0.11754 -4.34908,-2.29208 l 0,-15.39809 m 58.765624,36.43823 0,-1.70437 c -4.05522,-0.29386 -4.40785,-0.41141 -4.40785,-3.40874 l 0,-24.03747 -0.4114,-0.35263 -9.2271,1.46928 0,1.46928 2.23331,0.29386 c 1.52805,0.23509 1.88068,0.52894 1.88068,2.64471 l 0,13.22355 c 0,1.6456 -0.17631,2.93857 -0.47017,3.52628 -1.35174,2.70348 -4.17276,4.40785 -7.22887,4.40785 -3.40874,0 -5.93591,-2.11577 -5.93591,-6.69993 l 0,-19.98225 -0.4114,-0.35263 -9.227094,1.46928 0,1.46928 2.233314,0.29386 c 1.52805,0.23509 1.88068,0.52894 1.88068,2.64471 l 0,15.51563 c 0,6.7587 3.99645,8.8157 8.34553,8.8157 4.99556,0 9.05079,-3.40874 10.75515,-4.23153 l 0.58772,3.52628 9.40341,0 m 9.15435,0.70525 2.35085,-2.29208 c 2.05699,1.17543 4.5254,2.29208 8.93324,2.29208 7.816583,0 14.634063,-3.76138 14.634063,-15.75072 0,-3.64381 -0.76403,-14.45774 -11.342863,-14.45774 -4.46662,0 -7.93414,2.87979 -10.10867,4.17276 l 0,-17.92525 -0.4114,-0.35263 -9.2271,1.46928 0,1.46928 2.23331,0.23509 c 1.52805,0.17631 1.88068,0.47017 1.88068,2.70348 l 0,37.96628 1.05789,0.47017 m 4.46662,-19.57085 c 0,-1.46928 0.11754,-2.40963 0.58771,-3.34997 1.41051,-2.82102 3.87891,-4.11399 7.1701,-4.11399 2.40962,0 7.581513,1.41052 7.581513,11.63672 0,8.63938 -2.644723,13.3411 -8.463083,13.3411 -3.11487,0 -5.40696,-1.58683 -6.46484,-4.5254 -0.35263,-1.05788 -0.4114,-2.29208 -0.4114,-3.70259 l 0,-9.28587 m 37.375603,-24.3901 -0.4114,-0.35263 -9.22709,1.46928 0,1.46928 2.2333,0.23509 c 1.52806,0.17631 1.88069,0.47017 1.88069,2.70348 l 0,32.61809 c 0,2.99733 -0.17632,3.11488 -4.40785,3.40874 l 0,1.70437 14.3402,0 0,-1.70437 c -4.17276,-0.29386 -4.40785,-0.41141 -4.40785,-3.40874 l 0,-38.14259 m 9.43811,15.22177 0,1.46928 2.23331,0.29386 c 1.52805,0.23509 1.88068,0.52894 1.88068,2.64471 l 0,18.51297 c 0,2.99733 -0.17632,3.11488 -4.40785,3.40874 l 0,1.70437 14.34021,0 0,-1.70437 c -4.17277,-0.29386 -4.40785,-0.41141 -4.40785,-3.40874 l 0,-24.03747 -0.41141,-0.35263 -9.22709,1.46928 m 6.81747,-13.98758 c -2.11576,0 -3.58505,1.52806 -3.58505,3.64383 0,2.05699 1.46929,3.52628 3.58505,3.52628 2.17454,0 3.52628,-1.46929 3.58505,-3.52628 0,-2.11577 -1.41051,-3.64383 -3.58505,-3.64383 m 27.69946,39.67065 c -6.99378,0 -8.63939,-7.28765 -8.63939,-12.81215 0,-8.75692 3.46752,-12.28321 7.52274,-12.28321 2.70347,0 4.40785,1.93946 5.58327,5.11311 0.35263,0.94034 0.70526,1.52805 1.82191,1.52805 1.17543,0 3.46751,-0.76403 3.46751,-2.99733 0,-2.70348 -3.87891,-5.70082 -10.22621,-5.70082 -10.69637,0 -14.28143,7.58151 -14.28143,15.39809 0,9.8148 4.81925,14.81037 13.63495,14.81037 4.11398,0 9.6385,-2.17454 11.28409,-8.46307 l -1.70437,-0.8228 c -1.82191,4.11399 -4.17277,6.22976 -8.46307,6.22976 m 33.63996,-6.05344 c 0,4.76047 -3.64382,5.99467 -5.9359,5.99467 -3.64382,0 -5.40697,-2.58594 -5.40697,-6.05345 0,-2.76225 1.29298,-4.17276 4.58417,-5.40696 2.35085,-0.88157 5.46573,-1.99822 6.7587,-2.82102 l 0,8.28676 m 5.28942,-13.28233 c 0,-3.40873 -0.76404,-7.81658 -9.6385,-7.81658 -6.64115,0 -11.87181,3.46751 -11.87181,6.69993 0,1.88068 2.17454,2.76225 3.2912,2.76225 1.23419,0 1.58682,-0.64648 1.88068,-1.6456 1.29297,-4.34907 3.7026,-5.75959 6.05345,-5.75959 2.29208,0 4.99556,1.17544 4.99556,5.87714 l 0,2.46839 c -1.46928,1.52806 -7.17011,2.99734 -11.81304,4.46662 -4.23153,1.29297 -5.46573,4.23154 -5.46573,6.99379 0,4.40785 2.93857,8.34553 8.46307,8.34553 3.64382,-0.11754 6.87625,-2.29208 8.75693,-3.52628 0.8228,2.17454 1.76314,3.52628 3.82014,3.52628 2.17453,0 4.7017,-0.64648 6.93501,-1.76314 l -0.35262,-1.41051 c -0.8228,0.17631 -2.11577,0.29386 -2.99734,0.0588 -1.05789,-0.23508 -2.057,-1.35174 -2.057,-5.05433 l 0,-14.22267 m 38.36187,1.52806 c 0,-5.9359 -3.23243,-9.34464 -8.63939,-9.34464 -4.34907,0 -7.05256,2.11577 -10.69638,4.46662 l -0.8228,-4.46662 -8.75693,1.46928 0,1.46928 2.23331,0.29386 c 1.52805,0.23509 1.88068,0.52894 1.88068,2.64471 l 0,18.51297 c 0,2.99733 -0.17631,3.11488 -4.40785,3.40874 l 0,1.70437 14.34021,0 0,-1.70437 c -4.17276,-0.29386 -4.40785,-0.41141 -4.40785,-3.40874 l 0,-13.75249 c 0,-1.46928 0.11754,-2.29208 0.58771,-3.23243 1.2342,-2.29207 3.87891,-4.23153 6.99379,-4.23153 3.99645,0 6.17099,2.23331 6.17099,7.34642 l 0,13.87003 c 0,2.99733 -0.17632,3.11488 -4.40785,3.40874 l 0,1.70437 14.34021,0 0,-1.70437 c -4.17276,-0.29386 -4.40785,-0.41141 -4.40785,-3.40874 l 0,-15.04546"
     id="path6354"
     style="font-size:58.77133179px;font-style:normal;font-variant:normal;font-weight:normal;font-stretch:normal;text-align:start;line-height:125%;writing-mode:lr-tb;text-anchor:start;opacity:0.49038463;fill:url(#linearGradient6356);fill-opacity:1;stroke:none;filter:url(#filter6426);font-family:Utopia;-inkscape-font-specification:Utopia" />
  <g
     transform="translate(-58.623593,-52.746766)"
     id="layer1" />
  <g
     transform="translate(-58.623593,-52.746766)"
     id="layer2"
     style="filter:url(#filter6626)" />
</svg>
