<?xml version="1.0" encoding="UTF-8" standalone="no"?>
<svg
   xmlns:dc="http://purl.org/dc/elements/1.1/"
   xmlns:cc="http://creativecommons.org/ns#"
   xmlns:rdf="http://www.w3.org/1999/02/22-rdf-syntax-ns#"
   xmlns:svg="http://www.w3.org/2000/svg"
   xmlns="http://www.w3.org/2000/svg"
   xmlns:sodipodi="http://sodipodi.sourceforge.net/DTD/sodipodi-0.dtd"
   xmlns:inkscape="http://www.inkscape.org/namespaces/inkscape"
   version="1.1"
   id="svg2989"
   inkscape:version="1.0.1 (3bc2e813f5, 2020-09-07)"
   sodipodi:docname="BEMFOn.svg"
   x="0px"
   y="0px"
   width="402"
   height="402.3403"
   viewBox="0 0 402 402.3403"
   enable-background="new 0 0 400 400"
   xml:space="preserve"><metadata
   id="metadata15"><rdf:RDF><cc:Work
       rdf:about=""><dc:format>image/svg+xml</dc:format><dc:type
         rdf:resource="http://purl.org/dc/dcmitype/StillImage" /><dc:title></dc:title></cc:Work></rdf:RDF></metadata><defs
   id="defs13" /><sodipodi:namedview
   pagecolor="#ffffff"
   bordercolor="#666666"
   borderopacity="1"
   objecttolerance="10"
   gridtolerance="10"
   guidetolerance="10"
   inkscape:pageopacity="0"
   inkscape:pageshadow="2"
   inkscape:window-width="1192"
   inkscape:window-height="897"
   id="namedview11"
   showgrid="false"
   lock-margins="true"
   fit-margin-top="1"
   fit-margin-left="1"
   fit-margin-right="1"
   fit-margin-bottom="1"
   inkscape:zoom="1.26"
   inkscape:cx="304.39962"
   inkscape:cy="178.14687"
   inkscape:window-x="1870"
   inkscape:window-y="220"
   inkscape:window-maximized="0"
   inkscape:current-layer="svg2989" />
<path
   d="m 193,1 c 5.667,0 11.333,0 17,0 51.658,4.096 86.839,67.311 58,116 h 69 c 0,0 41.751,188.916 64,282 0,0.667 0,1.333 0,2 -112.846,0 -232.753,0 -350,0 -17.075,0 -40.093,1.56 -50,-2 23.337,-92.996 67,-282 67,-282 h 66 C 107.451,69.814 140.033,4.568 193,1 Z m -34,84.998 c 10.819,51.913 94.877,39.687 85,-19 -3.434,-20.396 -23.787,-36.085 -48,-33 -24.327,3.099 -42.711,24.593 -37,52 z"
   id="path2"
   style="fill:#000000" />
<g
   id="g8"
   transform="translate(1,1)">
	<path
   fill="#ffffff"
   d="m 88.16,191.915 h 38.543 v 70.114 l 28.166,-32.683 h 46.418 l -35.3,34.466 37.339,63.93 h -42.489 l -19.928,-39.438 -14.207,13.867 v 25.571 H 88.16 Z"
   id="path4" />
	<path
   fill="#ffffff"
   d="m 283.191,229.347 h 35.301 v 92.93 l 0.092,4.354 c 0,6.178 -1.312,12.061 -3.938,17.65 -2.626,5.589 -6.115,10.115 -10.47,13.574 -4.355,3.459 -9.883,5.96 -16.585,7.504 -6.701,1.545 -14.376,2.316 -23.023,2.316 -19.766,0 -33.339,-2.965 -40.721,-8.895 -7.381,-5.93 -11.071,-13.867 -11.071,-23.812 0,-1.235 0.062,-2.903 0.185,-5.003 l 36.598,4.17 c 0.927,3.396 2.348,5.744 4.262,7.041 2.78,1.914 6.27,2.872 10.471,2.872 5.436,0 9.496,-1.452 12.184,-4.354 2.687,-2.903 4.029,-7.969 4.029,-15.195 v -14.916 c -3.705,4.385 -7.412,7.566 -11.117,9.543 -5.807,3.088 -12.076,4.633 -18.809,4.633 -13.156,0 -23.781,-5.745 -31.872,-17.234 -5.745,-8.152 -8.616,-18.932 -8.616,-32.335 0,-15.318 3.705,-26.992 11.117,-35.022 7.412,-8.029 17.11,-12.045 29.094,-12.045 7.658,0 13.975,1.298 18.947,3.893 4.972,2.594 9.619,6.887 13.943,12.878 v -14.547 z m -35.485,47.715 c 0,7.104 1.513,12.369 4.54,15.797 3.026,3.429 7.01,5.143 11.951,5.143 4.695,0 8.633,-1.775 11.813,-5.328 3.181,-3.551 4.772,-8.909 4.772,-16.074 0,-7.165 -1.668,-12.646 -5.004,-16.445 -3.336,-3.799 -7.412,-5.699 -12.23,-5.699 -4.817,0 -8.662,1.746 -11.535,5.235 -2.87,3.489 -4.307,9.279 -4.307,17.371 z"
   id="path6" />
</g>
</svg>
