<?xml version="1.0" encoding="UTF-8" standalone="no"?>
<!-- Created with Inkscape (http://www.inkscape.org/) -->

<svg
   width="64"
   height="64"
   viewBox="0 0 16.933333 16.933334"
   version="1.1"
   id="svg3719"
   sodipodi:docname="cab_light_back_diesel_off_europe.svg"
   inkscape:export-filename="C:\Users\Konrad\OneDrive\JRMI Icons\cab_light_off_cabin2_europe.png"
   inkscape:export-xdpi="96"
   inkscape:export-ydpi="96"
   inkscape:version="1.2.2 (b0a8486541, 2022-12-01)"
   xmlns:inkscape="http://www.inkscape.org/namespaces/inkscape"
   xmlns:sodipodi="http://sodipodi.sourceforge.net/DTD/sodipodi-0.dtd"
   xmlns="http://www.w3.org/2000/svg"
   xmlns:svg="http://www.w3.org/2000/svg"
   xmlns:rdf="http://www.w3.org/1999/02/22-rdf-syntax-ns#"
   xmlns:cc="http://creativecommons.org/ns#"
   xmlns:dc="http://purl.org/dc/elements/1.1/">
  <defs
     id="defs3713" />
  <sodipodi:namedview
     id="base"
     pagecolor="#ffffff"
     bordercolor="#666666"
     borderopacity="1.0"
     inkscape:pageopacity="0.0"
     inkscape:pageshadow="2"
     inkscape:zoom="11.0625"
     inkscape:cx="31.367232"
     inkscape:cy="30.870056"
     inkscape:document-units="mm"
     inkscape:current-layer="layer1"
     showgrid="false"
     units="px"
     inkscape:pagecheckerboard="true"
     inkscape:window-width="2022"
     inkscape:window-height="1091"
     inkscape:window-x="26"
     inkscape:window-y="23"
     inkscape:window-maximized="0"
     inkscape:measure-start="0,0"
     inkscape:measure-end="0,0"
     inkscape:showpageshadow="2"
     inkscape:deskcolor="#d1d1d1" />
  <metadata
     id="metadata3716">
    <rdf:RDF>
      <cc:Work
         rdf:about="">
        <dc:format>image/svg+xml</dc:format>
        <dc:type
           rdf:resource="http://purl.org/dc/dcmitype/StillImage" />
      </cc:Work>
    </rdf:RDF>
  </metadata>
  <g
     inkscape:label="Layer 1"
     inkscape:groupmode="layer"
     id="layer1"
     transform="translate(0,-280.06665)">
    <path
       style="fill:none;stroke:#000000;stroke-width:0.264583px;stroke-linecap:butt;stroke-linejoin:miter;stroke-opacity:1"
       d="m 1.7057459,294.00849 -0.884934,-6.12279 1.817702,-5.14219 1.602449,-1.45894 12.1977391,-0.0718 -0.02392,12.74783 z"
       id="path8912"
       inkscape:connector-curvature="0"
       sodipodi:nodetypes="ccccccc" />
    <path
       style="fill:none;stroke:#000000;stroke-width:0.264583px;stroke-linecap:butt;stroke-linejoin:miter;stroke-opacity:1"
       d="m 0.6294749,294.0324 v 1.50679 l 15.7853101,-0.0718 -3e-6,-1.50683 z"
       id="path8914"
       inkscape:connector-curvature="0"
       sodipodi:nodetypes="ccccc" />
    <path
       style="fill:none;stroke:#000000;stroke-width:0.264583px;stroke-linecap:butt;stroke-linejoin:miter;stroke-opacity:1"
       d="m 0.8208119,287.8857 1.817702,-0.0717 1.650283,-4.71168 -1.841619,0.0957 z"
       id="path8916"
       inkscape:connector-curvature="0" />
    <path
       style="fill:none;stroke:#000000;stroke-width:0.264583px;stroke-linecap:butt;stroke-linejoin:miter;stroke-opacity:1"
       d="m 5.1258969,283.05444 -1.650283,4.80734 2.415631,-3e-5 -0.04784,-4.78343 z"
       id="path8918"
       inkscape:connector-curvature="0"
       sodipodi:nodetypes="ccccc" />
    <path
       style="fill:none;stroke:#000000;stroke-width:0.264583px;stroke-linecap:butt;stroke-linejoin:miter;stroke-opacity:1"
       d="m 7.0631849,283.0066 3.5875701,-0.0478 0.07175,10.45179 -3.7071561,0.0478 z"
       id="path8920"
       inkscape:connector-curvature="0"
       sodipodi:nodetypes="ccccc" />
    <path
       style="fill:none;stroke:#000000;stroke-width:0.264583px;stroke-linecap:butt;stroke-linejoin:miter;stroke-opacity:1"
       d="m 16.366951,282.95877 h -4.376836 v 2.72655 l -3e-6,1.84162 4.400753,-0.0478 z"
       id="path8922"
       inkscape:connector-curvature="0"
       sodipodi:nodetypes="cccccc" />
    <path
       style="fill:none;stroke:#000000;stroke-width:0.264583px;stroke-linecap:butt;stroke-linejoin:miter;stroke-opacity:1"
       d="m 12.683712,283.8437 3.635405,0.0478"
       id="path8924"
       inkscape:connector-curvature="0" />
    <path
       style="fill:#808000;stroke:#000000;stroke-width:0.264583px;stroke-linecap:butt;stroke-linejoin:miter;stroke-opacity:1"
       d="m 12.827215,284.63297 3.611487,-0.0239"
       id="path8926"
       inkscape:connector-curvature="0"
       sodipodi:nodetypes="cc" />
    <path
       style="fill:none;stroke:#000000;stroke-width:0.264583px;stroke-linecap:butt;stroke-linejoin:miter;stroke-opacity:1"
       d="m 12.803298,285.54182 3.611487,-0.0239"
       id="path8928"
       inkscape:connector-curvature="0" />
    <path
       style="fill:none;stroke:#000000;stroke-width:0.264583px;stroke-linecap:butt;stroke-linejoin:miter;stroke-opacity:1"
       d="m 12.779381,286.30717 3.563653,0.0239"
       id="path8930"
       inkscape:connector-curvature="0"
       sodipodi:nodetypes="cc" />
    <path
       style="fill:none;stroke:#000000;stroke-width:0.264583px;stroke-linecap:butt;stroke-linejoin:miter;stroke-opacity:1"
       d="m 12.851132,286.97685 3.539736,0.0239"
       id="path8932"
       inkscape:connector-curvature="0" />
    <path
       style="fill:none;stroke:#000000;stroke-width:0.264583px;stroke-linecap:butt;stroke-linejoin:miter;stroke-opacity:1"
       d="m 8.0198701,283.9872 1.698117,-3e-5 -0.02392,3.20489 -1.745952,0.0478 z"
       id="path8934"
       inkscape:connector-curvature="0"
       sodipodi:nodetypes="ccccc" />
    <path
       style="fill:#808000;stroke:none;stroke-width:0.0510734;stroke-linejoin:round;stroke-miterlimit:4;stroke-dasharray:none"
       d="m 0.7703929,294.79505 v -0.60678 l 1.010499,-0.0142 c 0.859924,-0.0121 12.5264651,-0.0652 13.9915251,-0.0637 l 0.49628,5e-4 v 0.60989 0.60989 l -0.986581,-8e-5 c -1.194573,-1e-4 -10.0897831,0.0411 -12.6641241,0.0587 l -1.847599,0.0126 z"
       id="path8936"
       inkscape:connector-curvature="0" />
    <path
       style="fill:#808000;stroke:none;stroke-width:0.0510734;stroke-linejoin:round;stroke-miterlimit:4;stroke-dasharray:none"
       d="m 1.8226779,293.84487 c -3.9e-5,-0.0181 -0.188386,-1.33459 -0.41855,-2.9255 -0.230165,-1.5909 -0.418481,-2.89416 -0.418481,-2.89613 0,-0.002 0.390148,-0.0173 0.866996,-0.034 0.476848,-0.0167 0.874249,-0.0373 0.883114,-0.0457 0.02016,-0.0191 1.741792,-4.93478 1.741792,-4.97321 0,-0.0196 -0.0413,-0.0244 -0.137523,-0.0159 -0.167783,0.0149 -1.457723,0.0827 -1.572813,0.0827 h -0.0826 l 0.04143,-0.10848 c 0.03558,-0.0932 0.148613,-0.206 0.79978,-0.79843 l 0.758348,-0.68993 0.8441,-0.0141 c 0.754377,-0.0126 9.5536061,-0.065 10.7039401,-0.0637 l 0.460405,5.2e-4 v 0.72947 0.72947 h -2.224294 -2.224294 v 2.4303 2.4303 l 0.627825,-0.0145 c 0.345303,-0.008 1.348009,-0.0212 2.228233,-0.0295 l 1.600409,-0.015 -0.01587,1.06116 c -0.0087,0.58364 -0.01588,1.9773 -0.0159,3.09701 l -2.9e-5,2.03586 -5.494963,0.0151 c -3.0222289,0.008 -6.2725681,0.0218 -7.2229751,0.03 -1.458947,0.0126 -1.728024,0.01 -1.728083,-0.018 z m 7.5638632,-0.27505 1.4768839,-0.0153 -5.56e-4,-0.54097 c -3.17e-4,-0.29753 -0.01619,-2.62893 -0.0353,-5.18089 -0.01911,-2.55196 -0.035,-4.7249 -0.03532,-4.82876 l -5.82e-4,-0.18883 -1.3812149,0.0156 c -0.759668,0.009 -1.630049,0.0224 -1.934181,0.0306 l -0.5529662,0.0151 -0.01511,3.25546 c -0.0083,1.79051 -0.02188,4.2067 -0.03015,5.36931 l -0.01504,2.11383 0.5233242,-0.0149 c 0.287829,-0.008 1.187923,-0.0218 2.000209,-0.0302 z m -3.3632182,-7.0586 c -0.0084,-0.82544 -0.02205,-1.96529 -0.03031,-2.53299 l -0.01502,-1.03219 -0.289821,-0.016 c -0.159402,-0.009 -0.375776,-0.0125 -0.480833,-0.008 l -0.191011,0.008 -0.866717,2.52326 c -0.476694,1.38779 -0.866989,2.53133 -0.867322,2.5412 -3.44e-4,0.01 0.619702,0.0179 1.377855,0.0179 h 1.37846 z"
       id="path8938"
       inkscape:connector-curvature="0" />
    <path
       style="fill:#808000;stroke:none;stroke-width:0.0510734;stroke-linejoin:round;stroke-miterlimit:4;stroke-dasharray:none"
       d="m 7.1657411,291.24836 c 0.008,-1.142 0.02129,-3.42883 0.02942,-5.08184 l 0.01478,-3.00548 0.242233,-0.0135 c 0.428344,-0.0238 3.0524769,-0.0433 3.0530529,-0.0226 0.0026,0.0924 0.07019,9.39858 0.07062,9.72146 l 5.82e-4,0.42168 -1.3094639,0.0147 c -0.720204,0.008 -1.490899,0.0208 -1.712654,0.0283 l -0.403193,0.0136 z m 1.941904,-3.89717 0.719644,-0.0156 0.01581,-1.07681 c 0.0087,-0.59224 0.01581,-1.3764 0.01581,-1.74256 v -0.66575 h -0.992561 -0.992561 l -5.03e-4,0.20927 c -2.65e-4,0.1151 -0.01617,0.8658 -0.03533,1.66822 -0.01916,0.80242 -0.03509,1.50615 -0.03538,1.56383 l -5.29e-4,0.10489 0.292985,-0.0149 c 0.161141,-0.008 0.616824,-0.022 1.012629,-0.0305 z"
       id="path8940"
       inkscape:connector-curvature="0" />
    <path
       style="fill:#999999;stroke:none;stroke-width:0.0510734;stroke-linejoin:round;stroke-miterlimit:4;stroke-dasharray:none"
       d="M 12.131033,285.25185 V 283.109 h 2.044915 2.044915 v 0.32524 0.32525 l -0.269068,-0.0139 c -0.147987,-0.008 -0.944428,-0.0206 -1.769868,-0.0288 l -1.5008,-0.0149 v 0.14305 0.14304 l 1.488842,0.0153 c 0.818863,0.008 1.615303,0.0217 1.769868,0.0296 l 0.281026,0.0143 v 0.21261 0.21261 l -1.106168,5e-5 c -0.608392,3e-5 -1.372544,0.007 -1.698116,0.0158 l -0.591949,0.0157 v 0.13685 0.13685 l 1.710075,-0.0127 1.710075,-0.0127 v 0.3145 0.3145 l -1.130085,5e-5 c -0.621546,3e-5 -1.396461,0.007 -1.722033,0.0158 l -0.59195,0.0157 v 0.13681 0.1368 l 1.722034,-0.0127 1.722034,-0.0127 v 0.26286 0.26286 l -1.733992,-0.0115 -1.733993,-0.0115 v 0.14683 0.14683 h 1.227877 c 0.675332,0 1.455628,0.007 1.733992,0.0158 l 0.506116,0.0158 v 0.18341 0.18342 l -1.698117,-0.0111 -1.698116,-0.0111 v 0.14674 0.14674 h 1.227886 c 0.675338,0 1.43949,0.007 1.698117,0.0157 l 0.47023,0.0157 v 0.089 0.089 l -1.596469,0.0149 c -0.878058,0.008 -1.803651,0.0213 -2.056873,0.0291 l -0.460405,0.0142 z"
       id="path8942"
       inkscape:connector-curvature="0" />
    <path
       style="fill:#999999;stroke:none;stroke-width:0.0510734;stroke-linejoin:round;stroke-miterlimit:4;stroke-dasharray:none"
       d="m 8.0987941,286.7925 c 0.0074,-0.16457 0.01909,-0.6221 0.02596,-1.01674 0.0069,-0.39463 0.01922,-0.92469 0.02744,-1.17791 l 0.01494,-0.46041 h 0.702382 0.702383 v 0.6299 c 0,0.34644 -0.0071,1.00182 -0.01578,1.4564 l -0.01578,0.82652 -0.54029,0.0149 c -0.29716,0.008 -0.624535,0.0176 -0.7275,0.0207 l -0.187209,0.006 z"
       id="path8944"
       inkscape:connector-curvature="0" />
    <path
       style="fill:#999999;stroke:none;stroke-width:0.0510734;stroke-linejoin:round;stroke-miterlimit:4;stroke-dasharray:none"
       d="m 3.6882829,287.70478 c 0,-0.0111 0.344407,-1.02348 0.765349,-2.24966 0.420942,-1.22618 0.765348,-2.23415 0.765348,-2.23993 0,-0.006 0.106382,-0.0105 0.236403,-0.0105 h 0.236403 l 0.01443,0.79525 c 0.0079,0.43738 0.02101,1.45446 0.02906,2.26017 l 0.01463,1.46492 h -1.030807 c -0.566943,0 -1.030807,-0.009 -1.030807,-0.0202 z"
       id="path8946"
       inkscape:connector-curvature="0" />
    <path
       style="fill:#4d4d4d;stroke:none;stroke-width:0.0510734;stroke-linejoin:round;stroke-miterlimit:4;stroke-dasharray:none"
       d="m 1.0337059,287.71903 c 1.23e-4,-0.003 0.348441,-0.99077 0.774039,-2.1944 l 0.773815,-2.18841 0.73872,-0.0395 c 0.406295,-0.0217 0.742651,-0.0358 0.747457,-0.0311 0.0075,0.007 -1.519663,4.38884 -1.534178,4.4018 -0.01895,0.0169 -1.500464,0.0679 -1.499853,0.0517 z"
       id="path8948"
       inkscape:connector-curvature="0" />
    <path
       style="fill:#4d4d4d;stroke:none;stroke-width:0.0510734;stroke-linejoin:round;stroke-miterlimit:4;stroke-dasharray:none"
       d="m 12.131029,285.24361 4e-6,-2.13461 h 2.060003 2.060003 l -0.01482,0.0897 c -0.0082,0.0493 -0.01494,0.19194 -0.01508,0.31691 l -2.61e-4,0.22721 -0.508242,-0.009 c -0.279533,-0.005 -0.927988,-0.0122 -1.44101,-0.0156 -0.513023,-0.003 -1.080756,-0.0134 -1.261629,-0.0222 l -0.328861,-0.016 v 0.15852 0.15851 l 0.173399,-0.003 c 0.46961,-0.009 3.150605,0.0417 3.288607,0.0628 l 0.07773,0.0119 v 0.20221 0.20221 l -0.579991,0.003 c -0.318994,0.002 -0.924397,6.1e-4 -1.345339,-0.002 -0.420941,-0.003 -0.924098,0.002 -1.118126,0.0121 l -0.352778,0.0176 v 0.14408 0.14408 l 1.464925,-0.0199 c 0.805709,-0.011 1.57521,-0.0207 1.710003,-0.0217 l 0.245078,-0.002 7.3e-5,0.3169 7.2e-5,0.3169 -0.603908,0.003 c -0.332149,0.002 -0.948314,6.1e-4 -1.369256,-0.002 -0.420941,-0.003 -0.924098,0.002 -1.118126,0.0121 l -0.352778,0.0176 v 0.14029 0.14028 l 0.986582,-10e-4 c 0.54262,-6.9e-4 1.244887,-0.0105 1.560593,-0.0217 0.315707,-0.0112 0.64666,-0.0145 0.735452,-0.007 l 0.161441,0.0132 v 0.24766 0.24767 l -0.938748,0.005 c -0.516311,0.003 -0.992561,0.005 -1.058333,0.006 -0.06577,7e-5 -0.423632,-0.009 -0.795245,-0.02 l -0.675659,-0.0201 v 0.16034 0.16034 l 0.328861,-0.008 c 0.393037,-0.01 2.718769,0.0233 2.965725,0.0423 l 0.173399,0.0133 v 0.16537 0.16538 l -0.914831,0.005 c -0.503156,0.003 -0.968643,0.005 -1.034416,0.006 -0.06577,1e-4 -0.418251,-0.009 -0.783286,-0.0199 l -0.663701,-0.02 v 0.16021 0.16021 l 0.328861,-0.008 c 0.391431,-0.01 2.645867,0.0231 2.893974,0.0422 0.170683,0.0132 0.173399,0.0144 0.173399,0.0802 v 0.0668 l -0.340819,0.017 c -0.187451,0.009 -0.808997,0.0195 -1.381215,0.0226 -0.572217,0.003 -1.344444,0.0101 -1.716059,0.0158 l -0.675663,0.0102 z"
       id="path8950"
       inkscape:connector-curvature="0" />
    <path
       style="fill:#b3b3b3;stroke:none;stroke-width:0.0510734;stroke-linejoin:round;stroke-miterlimit:4;stroke-dasharray:none"
       d="m 1.0616369,287.67512 c 0.0068,-0.0186 0.348584,-0.98719 0.759519,-2.15242 0.410935,-1.16523 0.755193,-2.1316 0.765018,-2.1475 0.01242,-0.0201 0.234456,-0.0404 0.728678,-0.0666 0.390948,-0.0207 0.716034,-0.0324 0.722413,-0.0261 0.01221,0.0122 -0.395331,1.20114 -1.043166,3.04327 -0.212801,0.6051 -0.403705,1.15031 -0.42423,1.21157 -0.03051,0.0911 -0.04987,0.1139 -0.106105,0.12515 -0.03783,0.008 -0.371569,0.0211 -0.741638,0.0301 -0.574582,0.0139 -0.671047,0.0114 -0.660489,-0.0175 z"
       id="path8952"
       inkscape:connector-curvature="0" />
    <path
       style="fill:#b3b3b3;stroke:none;stroke-width:0.0510734;stroke-linejoin:round;stroke-miterlimit:4;stroke-dasharray:none"
       d="m 4.0769369,287.70712 c -0.200605,-0.004 -0.364736,-0.0155 -0.364736,-0.0256 0,-0.0101 0.04817,-0.16193 0.10704,-0.33745 0.05887,-0.17553 0.101288,-0.32845 0.09426,-0.33983 -0.007,-0.0114 -2.34e-4,-0.0207 0.01511,-0.0207 0.01534,0 0.02196,-0.0154 0.01471,-0.0343 -0.0072,-0.0189 -0.0047,-0.0377 0.0056,-0.0419 0.02817,-0.0113 0.244105,-0.64195 0.228469,-0.66725 -0.0075,-0.0121 -10e-4,-0.0219 0.01434,-0.0219 0.01534,0 0.02169,-0.0161 0.01412,-0.0359 -0.0076,-0.0197 -0.0022,-0.0359 0.01196,-0.0359 0.01415,0 0.0198,-0.0154 0.01255,-0.0343 -0.0072,-0.0189 -0.005,-0.0377 0.0049,-0.0419 0.02772,-0.0115 0.244275,-0.64271 0.228994,-0.66744 -0.0074,-0.0119 -8.73e-4,-0.0217 0.01446,-0.0217 0.01534,0 0.02196,-0.0154 0.01471,-0.0343 -0.0072,-0.0189 -0.0052,-0.0377 0.0046,-0.0419 0.02226,-0.009 0.226949,-0.5903 0.22809,-0.64731 4.5e-4,-0.023 0.01045,-0.0419 0.02219,-0.0419 0.01174,0 0.01516,-0.0161 0.0076,-0.0359 -0.0076,-0.0197 -0.0022,-0.0359 0.01196,-0.0359 0.01415,0 0.0198,-0.0154 0.01255,-0.0343 -0.0072,-0.0189 -0.0046,-0.0377 0.0058,-0.0419 0.02015,-0.008 0.201518,-0.53672 0.201531,-0.58752 4e-6,-0.0164 0.01013,-0.0299 0.0225,-0.0299 0.01237,0 0.0163,-0.0161 0.0087,-0.0359 -0.0076,-0.0197 -0.0022,-0.0359 0.01196,-0.0359 0.01415,0 0.0198,-0.0154 0.01255,-0.0343 -0.0072,-0.0189 -0.0046,-0.0377 0.0058,-0.0419 0.01045,-0.004 0.05337,-0.11121 0.09537,-0.23794 0.08663,-0.26138 0.08448,-0.25989 0.37408,-0.25989 h 0.150325 l 0.01346,0.19732 c 0.01417,0.20772 0.02948,1.24817 0.04663,3.16902 l 0.0103,1.154 -0.648912,-0.005 c -0.356902,-0.003 -0.813044,-0.009 -1.013649,-0.0126 z"
       id="path8954"
       inkscape:connector-curvature="0" />
    <path
       style="fill:#b3b3b3;stroke:none;stroke-width:0.0510734;stroke-linejoin:round;stroke-miterlimit:4;stroke-dasharray:none"
       d="m 9.4075061,287.08597 0.16742,-0.009 -0.009,-0.36382 c -0.03208,-1.30089 -0.03747,-1.58578 -0.03813,-2.01785 -3.97e-4,-0.26515 -0.0086,-0.46964 -0.01831,-0.45442 -0.01,0.0157 -0.01773,-8.3e-4 -0.01794,-0.0381 l -3.71e-4,-0.0658 h -0.695071 -0.695109 l 0.01412,1.17792 c 0.0078,0.64786 0.02025,1.29871 0.02775,1.44634 l 0.01363,0.26842 0.07541,0.014 c 0.04148,0.008 0.263759,0.0168 0.493962,0.0202 0.230202,0.003 0.440075,0.0116 0.466384,0.0182 0.02631,0.007 0.123173,0.008 0.215254,0.003 z"
       id="path8956"
       inkscape:connector-curvature="0" />
  </g>
</svg>
