<?xml version="1.0" encoding="UTF-8" standalone="no"?>
<!-- Created with Inkscape (http://www.inkscape.org/) -->

<svg
   xmlns:dc="http://purl.org/dc/elements/1.1/"
   xmlns:cc="http://creativecommons.org/ns#"
   xmlns:rdf="http://www.w3.org/1999/02/22-rdf-syntax-ns#"
   xmlns:svg="http://www.w3.org/2000/svg"
   xmlns="http://www.w3.org/2000/svg"
   xmlns:sodipodi="http://sodipodi.sourceforge.net/DTD/sodipodi-0.dtd"
   xmlns:inkscape="http://www.inkscape.org/namespaces/inkscape"
   width="64"
   height="64"
   viewBox="0 0 16.933333 16.933334"
   version="1.1"
   id="svg3719"
   sodipodi:docname="cab_light_diesel_off_europe.svg"
   inkscape:export-filename="C:\Users\Konrad\OneDrive\JRMI Icons\cab_light_diesel_off_USA.png"
   inkscape:export-xdpi="96"
   inkscape:export-ydpi="96"
   inkscape:version="0.92.3 (2405546, 2018-03-11)">
  <defs
     id="defs3713" />
  <sodipodi:namedview
     id="base"
     pagecolor="#ffffff"
     bordercolor="#666666"
     borderopacity="1.0"
     inkscape:pageopacity="0.0"
     inkscape:pageshadow="2"
     inkscape:zoom="11.0625"
     inkscape:cx="29.98345"
     inkscape:cy="28.051387"
     inkscape:document-units="mm"
     inkscape:current-layer="layer1"
     showgrid="false"
     units="px"
     inkscape:pagecheckerboard="true"
     inkscape:window-width="1600"
     inkscape:window-height="877"
     inkscape:window-x="-8"
     inkscape:window-y="-8"
     inkscape:window-maximized="1"
     inkscape:measure-start="0,0"
     inkscape:measure-end="0,0" />
  <metadata
     id="metadata3716">
    <rdf:RDF>
      <cc:Work
         rdf:about="">
        <dc:format>image/svg+xml</dc:format>
        <dc:type
           rdf:resource="http://purl.org/dc/dcmitype/StillImage" />
        <dc:title></dc:title>
      </cc:Work>
    </rdf:RDF>
  </metadata>
  <g
     inkscape:label="Layer 1"
     inkscape:groupmode="layer"
     id="layer1"
     transform="translate(0,-280.06665)">
    <path
       style="fill:none;stroke:#000000;stroke-width:0.26458332px;stroke-linecap:butt;stroke-linejoin:miter;stroke-opacity:1"
       d="m 2.272128,294.2256 -0.884934,-6.12279 1.8177023,-5.14219 1.6024484,-1.45894 12.1977393,-0.0718 -0.02392,12.74783 z"
       id="path8912"
       inkscape:connector-curvature="0"
       sodipodi:nodetypes="ccccccc" />
    <path
       style="fill:none;stroke:#000000;stroke-width:0.26458332px;stroke-linecap:butt;stroke-linejoin:miter;stroke-opacity:1"
       d="m 1.1958569,294.24951 v 1.50679 l 15.7853101,-0.0718 -3e-6,-1.50683 z"
       id="path8914"
       inkscape:connector-curvature="0"
       sodipodi:nodetypes="ccccc" />
    <path
       style="fill:none;stroke:#000000;stroke-width:0.26458332px;stroke-linecap:butt;stroke-linejoin:miter;stroke-opacity:1"
       d="m 1.387194,288.10281 1.8177023,-0.0717 1.6502824,-4.71168 -1.8416193,0.0957 z"
       id="path8916"
       inkscape:connector-curvature="0" />
    <path
       style="fill:none;stroke:#000000;stroke-width:0.26458332px;stroke-linecap:butt;stroke-linejoin:miter;stroke-opacity:1"
       d="m 5.6922786,283.27155 -1.6502825,4.80734 2.4156309,-3e-5 -0.047835,-4.78343 z"
       id="path8918"
       inkscape:connector-curvature="0"
       sodipodi:nodetypes="ccccc" />
    <path
       style="fill:none;stroke:#000000;stroke-width:0.26458332px;stroke-linecap:butt;stroke-linejoin:miter;stroke-opacity:1"
       d="m 7.6295667,283.22371 3.5875703,-0.0478 0.07175,10.45179 -3.7071566,0.0478 z"
       id="path8920"
       inkscape:connector-curvature="0"
       sodipodi:nodetypes="ccccc" />
    <path
       style="fill:none;stroke:#000000;stroke-width:0.26458332px;stroke-linecap:butt;stroke-linejoin:miter;stroke-opacity:1"
       d="m 16.933333,283.17588 h -4.376836 v 2.72655 l -3e-6,1.84162 4.400753,-0.0478 z"
       id="path8922"
       inkscape:connector-curvature="0"
       sodipodi:nodetypes="cccccc" />
    <path
       style="fill:none;stroke:#000000;stroke-width:0.26458332px;stroke-linecap:butt;stroke-linejoin:miter;stroke-opacity:1"
       d="m 13.250094,284.06081 3.635405,0.0478"
       id="path8924"
       inkscape:connector-curvature="0" />
    <path
       style="fill:#808000;stroke:#000000;stroke-width:0.26458332px;stroke-linecap:butt;stroke-linejoin:miter;stroke-opacity:1"
       d="m 13.393597,284.85008 3.611487,-0.0239"
       id="path8926"
       inkscape:connector-curvature="0"
       sodipodi:nodetypes="cc" />
    <path
       style="fill:none;stroke:#000000;stroke-width:0.26458332px;stroke-linecap:butt;stroke-linejoin:miter;stroke-opacity:1"
       d="m 13.36968,285.75893 3.611487,-0.0239"
       id="path8928"
       inkscape:connector-curvature="0" />
    <path
       style="fill:none;stroke:#000000;stroke-width:0.26458332px;stroke-linecap:butt;stroke-linejoin:miter;stroke-opacity:1"
       d="m 13.345763,286.52428 3.563653,0.0239"
       id="path8930"
       inkscape:connector-curvature="0"
       sodipodi:nodetypes="cc" />
    <path
       style="fill:none;stroke:#000000;stroke-width:0.26458332px;stroke-linecap:butt;stroke-linejoin:miter;stroke-opacity:1"
       d="m 13.417514,287.19396 3.539736,0.0239"
       id="path8932"
       inkscape:connector-curvature="0" />
    <path
       style="fill:none;stroke:#000000;stroke-width:0.26458332px;stroke-linecap:butt;stroke-linejoin:miter;stroke-opacity:1"
       d="m 8.5862521,284.20431 1.6981169,-3e-5 -0.02392,3.20489 -1.7459515,0.0478 z"
       id="path8934"
       inkscape:connector-curvature="0"
       sodipodi:nodetypes="ccccc" />
    <path
       style="fill:#808000;stroke:none;stroke-width:0.19303349;stroke-linejoin:round;stroke-miterlimit:4;stroke-dasharray:none"
       d="m 5.0523769,56.486963 v -2.293342 l 3.819209,-0.05366 C 12.121692,54.094291 56.215707,53.89357 61.752942,53.899236 l 1.875706,0.0019 v 2.305085 2.305085 l -3.728813,-2.99e-4 c -4.514921,-3.61e-4 -38.134614,0.155338 -47.864407,0.221672 l -6.9830511,0.04761 z"
       id="path8936"
       inkscape:connector-curvature="0"
       transform="matrix(0.26458333,0,0,0.26458333,0,280.06665)" />
    <path
       style="fill:#808000;stroke:none;stroke-width:0.19303349;stroke-linejoin:round;stroke-miterlimit:4;stroke-dasharray:none"
       d="M 9.0295163,52.895726 C 9.0293717,52.827243 8.317508,47.851599 7.4475954,41.838741 6.5776828,35.825881 5.8659362,30.900175 5.8659362,30.892727 c 0,-0.0074 1.4745763,-0.06522 3.2768362,-0.128383 1.8022596,-0.06316 3.3042486,-0.140844 3.3377526,-0.172629 0.07619,-0.07228 6.583151,-18.651141 6.583151,-18.796395 0,-0.07423 -0.156094,-0.09224 -0.519774,-0.05998 -0.634139,0.05624 -5.509501,0.312712 -5.944487,0.312712 H 12.28721 l 0.156595,-0.410032 c 0.134462,-0.35208 0.56169,-0.778582 3.022792,-3.0176571 l 2.866197,-2.6076251 3.1903,-0.053409 c 2.85119,-0.047732 36.108117,-0.2457711 40.455837,-0.240907 l 1.740113,0.00195 v 2.7570621 2.7570621 h -8.40678 -8.40678 v 9.185389 9.185388 l 2.372882,-0.05478 c 1.305084,-0.03013 5.094836,-0.08023 8.421669,-0.111332 l 6.048789,-0.05655 -0.05998,4.01069 c -0.03299,2.205879 -0.06003,7.473241 -0.06009,11.705248 l -1.11e-4,7.694559 -20.768362,0.0571 c -11.422598,0.0314 -23.707344,0.08251 -27.299435,0.113571 -5.514128,0.04768 -6.5311138,0.03709 -6.5313347,-0.06804 z m 28.5878327,-1.03955 5.581921,-0.05789 -0.0021,-2.04461 c -0.0012,-1.124535 -0.0612,-9.936135 -0.133429,-19.581332 -0.07223,-9.645198 -0.1323,-17.857885 -0.133489,-18.250415 l -0.0022,-0.713692 -5.220339,0.05891 c -2.871186,0.0324 -6.160817,0.0845 -7.310291,0.115774 l -2.089952,0.05686 -0.05712,12.304133 c -0.03142,6.767272 -0.0827,15.899318 -0.113958,20.293434 l -0.05684,7.989302 1.977921,-0.05629 c 1.087857,-0.03096 4.489786,-0.08234 7.559843,-0.114185 z M 24.905971,25.177991 c -0.03178,-3.119774 -0.08333,-7.427852 -0.11454,-9.573508 l -0.05675,-3.901192 -1.095388,-0.0605 c -0.602463,-0.03327 -1.420257,-0.04723 -1.817321,-0.03101 l -0.721933,0.02948 -3.27578,9.536723 c -1.801679,5.245198 -3.276809,9.567232 -3.278067,9.60452 -0.0013,0.03729 2.342181,0.0678 5.207641,0.0678 h 5.209929 z"
       id="path8938"
       inkscape:connector-curvature="0"
       transform="matrix(0.26458333,0,0,0.26458333,0,280.06665)" />
    <path
       style="fill:#808000;stroke:none;stroke-width:0.19303349;stroke-linejoin:round;stroke-miterlimit:4;stroke-dasharray:none"
       d="m 29.223771,43.08214 c 0.03042,-4.316208 0.08045,-12.95933 0.111174,-19.206936 l 0.05587,-11.359285 0.915526,-0.05093 c 1.618938,-0.09006 11.536921,-0.163585 11.539099,-0.08554 0.0097,0.349257 0.265265,35.522213 0.266921,36.74256 l 0.0022,1.593736 -4.949153,0.05557 c -2.722034,0.03057 -5.634896,0.07872 -6.473027,0.107023 l -1.523876,0.05145 z m 7.339481,-14.729461 2.719914,-0.05905 0.05975,-4.069832 c 0.03286,-2.238409 0.05975,-5.202139 0.05975,-6.586067 v -2.516234 h -3.751412 -3.751412 l -0.0019,0.790961 c -0.001,0.435028 -0.06112,3.272316 -0.133545,6.305084 -0.07243,3.032769 -0.132604,5.692515 -0.13373,5.910548 l -0.002,0.396422 1.107345,-0.05639 c 0.609039,-0.03101 2.331306,-0.08296 3.827259,-0.11544 z"
       id="path8940"
       inkscape:connector-curvature="0"
       transform="matrix(0.26458333,0,0,0.26458333,0,280.06665)" />
    <path
       style="fill:#999999;stroke:none;stroke-width:0.19303349;stroke-linejoin:round;stroke-miterlimit:4;stroke-dasharray:none"
       d="m 47.99023,20.418193 v -8.098959 h 7.728814 7.728813 v 1.229257 1.229256 l -1.016949,-0.05258 c -0.559322,-0.02892 -3.569492,-0.07796 -6.689266,-0.10898 l -5.672316,-0.0564 v 0.540656 0.540655 l 5.627119,0.05775 c 3.094915,0.03176 6.105084,0.08206 6.689265,0.111768 l 1.062147,0.05402 v 0.80357 0.803571 l -4.180791,1.98e-4 c -2.299435,1.09e-4 -5.18757,0.02696 -6.418079,0.05967 l -2.237288,0.05947 v 0.517239 0.517238 l 6.463277,-0.04806 6.463277,-0.04806 v 1.188661 1.188662 l -4.271187,1.99e-4 c -2.349152,1.08e-4 -5.277966,0.02696 -6.508474,0.05967 l -2.237289,0.05947 v 0.517053 0.517052 l 6.508475,-0.04783 6.508475,-0.04783 v 0.993483 0.993483 l -6.553673,-0.04344 -6.553672,-0.04343 v 0.554955 0.554955 H 55.0717 c 2.552436,0 5.501588,0.02681 6.553672,0.05957 l 1.912881,0.05957 v 0.693216 0.693215 l -6.41808,-0.04185 -6.418079,-0.04185 v 0.5546 0.554601 h 4.640831 c 2.552458,0 5.440593,0.02679 6.418079,0.05952 l 1.777249,0.05952 v 0.336381 0.336381 l -6.033899,0.05624 c -3.318644,0.03093 -6.816949,0.08036 -7.774011,0.109836 l -1.740113,0.05359 z"
       id="path8942"
       inkscape:connector-curvature="0"
       transform="matrix(0.26458333,0,0,0.26458333,0,280.06665)" />
    <path
       style="fill:#999999;stroke:none;stroke-width:0.19303349;stroke-linejoin:round;stroke-miterlimit:4;stroke-dasharray:none"
       d="m 32.750271,26.241126 c 0.02798,-0.622012 0.07214,-2.35127 0.09812,-3.842796 0.02599,-1.491525 0.07266,-3.494915 0.103711,-4.451977 l 0.05646,-1.740113 h 2.654673 2.654673 v 2.38071 c 0,1.309391 -0.02685,3.78643 -0.05965,5.504533 l -0.05965,3.123823 -2.042041,0.05642 c -1.123123,0.03103 -2.360445,0.0663 -2.749605,0.07838 l -0.707563,0.02196 z"
       id="path8944"
       inkscape:connector-curvature="0"
       transform="matrix(0.26458333,0,0,0.26458333,0,280.06665)" />
    <path
       style="fill:#999999;stroke:none;stroke-width:0.19303349;stroke-linejoin:round;stroke-miterlimit:4;stroke-dasharray:none"
       d="m 16.080625,29.689081 c 0,-0.04207 1.301695,-3.86825 2.892656,-8.502634 1.59096,-4.634385 2.892655,-8.444036 2.892655,-8.465892 0,-0.02186 0.402071,-0.03974 0.89349,-0.03974 h 0.893491 l 0.05452,3.00565 c 0.02998,1.653107 0.0794,5.497175 0.109817,8.542373 l 0.0553,5.536723 h -3.895963 c -2.142779,0 -3.895963,-0.03442 -3.895963,-0.07648 z"
       id="path8946"
       inkscape:connector-curvature="0"
       transform="matrix(0.26458333,0,0,0.26458333,0,280.06665)" />
    <path
       style="fill:#4d4d4d;stroke:none;stroke-width:0.19303349;stroke-linejoin:round;stroke-miterlimit:4;stroke-dasharray:none"
       d="m 6.047575,29.742963 c 4.663e-4,-0.01243 1.3169426,-3.744633 2.9255029,-8.293785 l 2.9246551,-8.271187 2.792011,-0.149394 c 1.535606,-0.08217 2.806872,-0.135103 2.825036,-0.117635 0.0283,0.02722 -5.74361,16.587771 -5.798467,16.636742 -0.07162,0.06394 -5.6710472,0.256811 -5.668738,0.195259 z"
       id="path8948"
       inkscape:connector-curvature="0"
       transform="matrix(0.26458333,0,0,0.26458333,0,280.06665)" />
    <path
       style="fill:#4d4d4d;stroke:none;stroke-width:0.19303349;stroke-linejoin:round;stroke-miterlimit:4;stroke-dasharray:none"
       d="m 47.990214,20.387031 1.6e-5,-8.067797 h 7.785839 7.785838 l -0.05603,0.338983 c -0.03082,0.186441 -0.05647,0.725424 -0.05701,1.19774 l -9.85e-4,0.858757 -1.920916,-0.03561 c -1.056502,-0.01959 -3.507354,-0.04611 -5.446338,-0.05895 -1.938983,-0.01284 -4.084745,-0.05052 -4.768361,-0.08374 l -1.242938,-0.0604 v 0.599116 0.599117 l 0.655367,-0.01321 c 1.774903,-0.03577 11.907796,0.157734 12.429379,0.237355 l 0.293785,0.04485 v 0.764265 0.764266 l -2.19209,0.01178 c -1.20565,0.0065 -3.493786,0.0023 -5.084746,-0.0092 -1.590961,-0.01156 -3.492655,0.0089 -4.225989,0.04557 l -1.333333,0.06659 v 0.544554 0.544554 l 5.536723,-0.07533 c 3.045198,-0.04143 5.953549,-0.07839 6.463003,-0.08213 l 0.926281,-0.0068 2.73e-4,1.19774 2.74e-4,1.19774 -2.282486,0.01178 c -1.255368,0.0065 -3.584181,0.0023 -5.175142,-0.0092 -1.59096,-0.01156 -3.492655,0.0089 -4.225988,0.04557 l -1.333334,0.06659 v 0.530215 0.530215 l 3.728814,-0.0048 c 2.050847,-0.0026 4.705085,-0.03955 5.898305,-0.08201 1.19322,-0.04247 2.444068,-0.05475 2.779661,-0.02729 l 0.61017,0.04993 v 0.936042 0.936042 l -3.548023,0.0205 c -1.951412,0.01127 -3.751412,0.02071 -4,0.02096 -0.248588,2.71e-4 -1.60113,-0.03375 -3.00565,-0.07557 l -2.553672,-0.07603 v 0.606003 0.606002 l 1.242938,-0.03116 c 1.485496,-0.03724 10.275664,0.08814 11.209039,0.159881 l 0.655368,0.05037 v 0.625055 0.625056 l -3.457628,0.0205 c -1.901694,0.01127 -3.661016,0.02079 -3.909604,0.02115 -0.248588,3.61e-4 -1.580791,-0.03343 -2.960452,-0.07508 l -2.508475,-0.07573 v 0.605516 0.605515 l 1.242938,-0.03116 c 1.479424,-0.03709 10.000126,0.0873 10.937853,0.159673 0.645103,0.04979 0.655368,0.05454 0.655368,0.303127 v 0.252546 l -1.288136,0.06437 c -0.708475,0.0354 -3.057627,0.07378 -5.220339,0.08528 -2.162712,0.0115 -5.081363,0.03831 -6.485892,0.05956 l -2.553688,0.03864 z"
       id="path8950"
       inkscape:connector-curvature="0"
       transform="matrix(0.26458333,0,0,0.26458333,0,280.06665)" />
    <path
       style="fill:#b3b3b3;stroke:none;stroke-width:0.19303349;stroke-linejoin:round;stroke-miterlimit:4;stroke-dasharray:none"
       d="m 6.1531437,29.576983 c 0.025702,-0.07029 1.3174815,-3.73109 2.8706213,-8.135105 1.55314,-4.404015 2.854273,-8.05646 2.891407,-8.116545 0.04694,-0.07596 0.886134,-0.152605 2.75406,-0.251547 1.477599,-0.07827 2.706269,-0.122576 2.730378,-0.09847 0.04614,0.04614 -1.494165,4.539741 -3.942673,11.502107 -0.804288,2.287006 -1.525815,4.34764 -1.603391,4.579186 -0.115312,0.344174 -0.188488,0.430481 -0.401026,0.472989 -0.142987,0.0286 -1.404356,0.07971 -2.8030417,0.113592 -2.1716489,0.0526 -2.5362403,0.04293 -2.4963346,-0.06621 z"
       id="path8952"
       inkscape:connector-curvature="0"
       transform="matrix(0.26458333,0,0,0.26458333,0,280.06665)" />
    <path
       style="fill:#b3b3b3;stroke:none;stroke-width:0.19303349;stroke-linejoin:round;stroke-miterlimit:4;stroke-dasharray:none"
       d="m 17.549552,29.697948 c -0.758192,-0.01512 -1.378531,-0.05863 -1.378531,-0.0967 0,-0.03806 0.182053,-0.611995 0.404561,-1.275403 0.222509,-0.663408 0.38282,-1.241375 0.356247,-1.284372 -0.02657,-0.043 -8.85e-4,-0.07817 0.05709,-0.07817 0.05797,0 0.083,-0.05839 0.05561,-0.129753 -0.02738,-0.07136 -0.01792,-0.142551 0.02103,-0.158192 0.106482,-0.04276 0.922605,-2.426251 0.863507,-2.521874 -0.02816,-0.04556 -0.0038,-0.08284 0.05421,-0.08284 0.05797,0 0.08199,-0.06102 0.05337,-0.135594 -0.02862,-0.07458 -0.0083,-0.135593 0.0452,-0.135593 0.05348,0 0.07482,-0.05839 0.04744,-0.129753 -0.02739,-0.07136 -0.01902,-0.142551 0.01859,-0.158192 0.104764,-0.04357 0.923244,-2.429166 0.865491,-2.522613 -0.02791,-0.04515 -0.0033,-0.0821 0.05466,-0.0821 0.05797,0 0.083,-0.05839 0.05561,-0.129753 -0.02739,-0.07136 -0.01951,-0.142551 0.01751,-0.158192 0.08415,-0.03556 0.857761,-2.23103 0.862075,-2.446518 0.0017,-0.08701 0.03948,-0.158193 0.08386,-0.158193 0.04438,0 0.05728,-0.06102 0.02867,-0.135593 -0.02862,-0.07458 -0.0083,-0.135593 0.0452,-0.135593 0.05348,0 0.07482,-0.05839 0.04744,-0.129753 -0.02739,-0.07136 -0.01748,-0.142551 0.02202,-0.158192 0.07616,-0.03016 0.761642,-2.02852 0.761692,-2.22053 1.6e-5,-0.06215 0.03828,-0.112994 0.08503,-0.112994 0.04675,0 0.06159,-0.06102 0.03297,-0.135593 -0.02862,-0.07458 -0.0083,-0.135593 0.0452,-0.135593 0.05348,0 0.07482,-0.05839 0.04744,-0.129753 -0.02738,-0.07136 -0.01747,-0.142551 0.02204,-0.158192 0.03951,-0.01564 0.201714,-0.420321 0.360457,-0.899287 0.327421,-0.987903 0.319298,-0.98226 1.413846,-0.98226 h 0.568157 l 0.05087,0.745763 c 0.05355,0.785101 0.111409,4.717511 0.176221,11.977401 l 0.03894,4.361582 -2.452582,-0.02006 c -1.34892,-0.01103 -3.072921,-0.03243 -3.831113,-0.04755 z"
       id="path8954"
       inkscape:connector-curvature="0"
       transform="matrix(0.26458333,0,0,0.26458333,0,280.06665)" />
    <path
       style="fill:#b3b3b3;stroke:none;stroke-width:0.19303349;stroke-linejoin:round;stroke-miterlimit:4;stroke-dasharray:none"
       d="m 33.39136,27.350285 -0.632768,-0.03236 0.03391,-1.375049 c 0.121261,-4.916762 0.141606,-5.993516 0.144098,-7.626527 0.0015,-1.002154 0.03267,-1.775035 0.06919,-1.717514 0.03765,0.05929 0.06701,-0.0031 0.0678,-0.144004 l 0.0014,-0.248587 h 2.627182 2.627182 l -0.05337,4.451977 c -0.02935,2.448588 -0.07655,4.908501 -0.104873,5.466475 l -0.0515,1.014497 -0.285021,0.05309 c -0.156761,0.0292 -0.996885,0.06362 -1.866942,0.0765 -0.870056,0.01288 -1.663277,0.04377 -1.762712,0.06865 -0.09943,0.02488 -0.465536,0.03067 -0.813559,0.01287 z"
       id="path8956"
       inkscape:connector-curvature="0"
       transform="matrix(0.26458333,0,0,0.26458333,0,280.06665)" />
  </g>
</svg>
