<?xml version="1.0" encoding="UTF-8" standalone="no"?>
<!-- Created with Inkscape (http://www.inkscape.org/) -->

<svg
   xmlns:dc="http://purl.org/dc/elements/1.1/"
   xmlns:cc="http://creativecommons.org/ns#"
   xmlns:rdf="http://www.w3.org/1999/02/22-rdf-syntax-ns#"
   xmlns:svg="http://www.w3.org/2000/svg"
   xmlns="http://www.w3.org/2000/svg"
   xmlns:sodipodi="http://sodipodi.sourceforge.net/DTD/sodipodi-0.dtd"
   xmlns:inkscape="http://www.inkscape.org/namespaces/inkscape"
   width="64"
   height="64"
   viewBox="0 0 16.933333 16.933334"
   version="1.1"
   id="svg3719"
   sodipodi:docname="cab_light_diesel_on_USA.svg"
   inkscape:export-filename="C:\Users\Konrad\OneDrive\JRMI Icons\cab_light_diesel_off_USA.png"
   inkscape:export-xdpi="96"
   inkscape:export-ydpi="96"
   inkscape:version="0.92.3 (2405546, 2018-03-11)">
  <defs
     id="defs3713" />
  <sodipodi:namedview
     id="base"
     pagecolor="#ffffff"
     bordercolor="#666666"
     borderopacity="1.0"
     inkscape:pageopacity="0.0"
     inkscape:pageshadow="2"
     inkscape:zoom="11.0625"
     inkscape:cx="14.184972"
     inkscape:cy="32.438735"
     inkscape:document-units="mm"
     inkscape:current-layer="layer1"
     showgrid="false"
     units="px"
     inkscape:pagecheckerboard="true"
     inkscape:window-width="1600"
     inkscape:window-height="877"
     inkscape:window-x="-8"
     inkscape:window-y="-8"
     inkscape:window-maximized="1"
     inkscape:measure-start="0,0"
     inkscape:measure-end="0,0" />
  <metadata
     id="metadata3716">
    <rdf:RDF>
      <cc:Work
         rdf:about="">
        <dc:format>image/svg+xml</dc:format>
        <dc:type
           rdf:resource="http://purl.org/dc/dcmitype/StillImage" />
        <dc:title></dc:title>
      </cc:Work>
    </rdf:RDF>
  </metadata>
  <g
     inkscape:label="Layer 1"
     inkscape:groupmode="layer"
     id="layer1"
     transform="translate(0,-280.06665)">
    <path
       style="fill:none;stroke:#000000;stroke-width:0.26458332px;stroke-linecap:butt;stroke-linejoin:miter;stroke-opacity:1"
       d="m 1.6981167,288.67682 -0.023917,7.6774 13.7762703,0.0239 0.04784,-15.23522 -8.4905838,0.0239 -1.2915254,7.31864 -4.1376647,0.23917"
       id="path8848"
       inkscape:connector-curvature="0" />
    <path
       style="fill:none;stroke:#000000;stroke-width:0.26458332px;stroke-linecap:butt;stroke-linejoin:miter;stroke-opacity:1"
       d="m 5.7162006,288.48544 1.4589405,-0.0478 1.052354,-6.38588 -1.411111,0.0239"
       id="path8850"
       inkscape:connector-curvature="0" />
    <path
       style="fill:none;stroke:#000000;stroke-width:0.26458332px;stroke-linecap:butt;stroke-linejoin:miter;stroke-opacity:1"
       d="m 9.2798491,282.05177 -0.071751,6.5533 2.9657249,-0.0239 0.04783,-6.52938 z"
       id="path8852"
       inkscape:connector-curvature="0" />
    <path
       style="fill:none;stroke:#000000;stroke-width:0.26458332px;stroke-linecap:butt;stroke-linejoin:miter;stroke-opacity:1"
       d="m 12.221653,282.05179 2.630889,-0.0478 3e-6,6.60113 -2.678719,-0.0239 z"
       id="path8854"
       inkscape:connector-curvature="0"
       sodipodi:nodetypes="ccccc" />
    <path
       style="fill:#0000ff;stroke:none;stroke-width:0.19303349;stroke-linejoin:round;stroke-miterlimit:4;stroke-dasharray:none"
       d="M 12.945246,61.016639 6.8512832,60.992749 6.9136242,47.14421 c 0.036258,-8.054271 0.096448,-13.869618 0.1438586,-13.898919 0.1179744,-0.07291 14.8579902,-0.895911 17.8946052,-0.999133 1.412536,-0.04802 2.585062,-0.104117 2.605613,-0.124669 0.02055,-0.02055 0.949901,-5.583486 2.065221,-12.362074 C 30.73824,12.98083 31.674388,7.3212173 31.703251,7.1825022 l 0.05248,-0.2522094 -2.616726,0.062744 -2.616727,0.062744 0.208499,-1.1541648 c 0.114675,-0.6347907 0.220814,-1.164555 0.235867,-1.1772541 0.01505,-0.012699 7.018365,-0.044535 15.562915,-0.070747 l 15.535547,-0.047658 -0.05559,10.9962981 c -0.03057,6.047964 -0.08083,18.75562 -0.111671,28.239236 l -0.05608,17.242938 -19.401278,-0.02195 c -10.670703,-0.01207 -22.143561,-0.0327 -25.495241,-0.04584 z M 56.688927,19.749848 V 6.7323372 l -1.152543,0.057316 c -0.633898,0.031524 -5.616949,0.083571 -11.073446,0.1156608 l -9.920904,0.058345 -0.0021,0.4615149 c -0.0012,0.2538334 -0.06118,5.4242271 -0.133406,11.4897641 -0.07222,6.065536 -0.132296,11.664603 -0.133498,12.442372 l -0.0022,1.414123 11.20904,-0.002 11.20904,-0.002 v -13.01751 z"
       id="path8856"
       inkscape:connector-curvature="0"
       transform="matrix(0.26458333,0,0,0.26458333,0,280.06665)" />
    <path
       style="fill:#999999;stroke:none;stroke-width:0.19303349;stroke-linejoin:round;stroke-miterlimit:4;stroke-dasharray:none"
       d="m 22.289663,31.055742 c 0.02611,-0.114731 0.946261,-5.313686 2.044777,-11.553234 1.098517,-6.239548 2.00394,-11.3500414 2.012053,-11.3566523 0.0081,-0.00661 0.939048,-0.029546 2.068745,-0.050967 2.038158,-0.038647 2.053669,-0.037509 2.011625,0.1476129 -0.0429,0.1888933 -3.749236,22.7117184 -3.749236,22.7835284 0,0.08257 -0.657733,0.130614 -2.511505,0.183463 l -1.923934,0.05485 z"
       id="path8858"
       inkscape:connector-curvature="0"
       transform="matrix(0.26458333,0,0,0.26458333,0,280.06665)" />
    <path
       style="fill:#999999;stroke:none;stroke-width:0.19303349;stroke-linejoin:round;stroke-miterlimit:4;stroke-dasharray:none"
       d="m 35.358352,30.688949 c 0.0024,-0.875248 0.256685,-22.5820484 0.265291,-22.6440679 0.0017,-0.012429 2.264508,-0.022599 5.028406,-0.022599 h 5.025269 l -0.05408,4.4067799 c -0.02974,2.423729 -0.07904,7.725961 -0.109543,11.782737 l -0.05546,7.375958 -1.630783,0.05907 c -0.89693,0.03249 -3.170024,0.05907 -5.05132,0.05907 h -3.420537 z"
       id="path8860"
       inkscape:connector-curvature="0"
       transform="matrix(0.26458333,0,0,0.26458333,0,280.06665)" />
    <path
       style="fill:#999999;stroke:none;stroke-width:0.19303349;stroke-linejoin:round;stroke-miterlimit:4;stroke-dasharray:none"
       d="m 47.527119,31.63835 -0.981017,-0.02915 0.05543,-7.522271 c 0.03048,-4.13725 0.08008,-9.439675 0.110209,-11.783167 l 0.05478,-4.2608949 3.22109,-0.055324 c 1.7716,-0.030428 3.760074,-0.070584 4.418831,-0.089236 l 1.19774,-0.033912 V 19.785146 31.705898 l -3.548023,-0.0192 c -1.951412,-0.01056 -3.98948,-0.03232 -4.529039,-0.04835 z"
       id="path8862"
       inkscape:connector-curvature="0"
       transform="matrix(0.26458333,0,0,0.26458333,0,280.06665)" />
    <path
       style="fill:#ffff00;stroke:none;stroke-width:0.19303349;stroke-linejoin:round;stroke-miterlimit:4;stroke-dasharray:none"
       d="m 22.302227,31.032455 c 0.0072,-0.101922 0.03704,-0.246331 0.06621,-0.320907 0.09622,-0.245941 0.253759,-1.2833 0.202656,-1.334402 -0.02755,-0.02755 -0.01477,-0.09452 0.0284,-0.148806 0.09897,-0.124466 0.307463,-1.323244 0.241597,-1.38911 -0.02689,-0.02689 -0.01358,-0.09332 0.02959,-0.147614 0.09897,-0.124465 0.307462,-1.323243 0.241597,-1.389109 -0.0269,-0.02689 -0.01358,-0.09332 0.02959,-0.147614 0.09897,-0.124465 0.307463,-1.323243 0.241597,-1.389109 -0.02689,-0.02689 -0.01358,-0.09332 0.02959,-0.147614 0.09897,-0.124465 0.307462,-1.323243 0.241597,-1.389109 -0.0269,-0.0269 -0.01358,-0.09332 0.02959,-0.147614 0.09897,-0.124466 0.307463,-1.323243 0.241597,-1.389109 -0.0269,-0.0269 -0.01358,-0.09332 0.02959,-0.147614 0.10711,-0.134705 0.301073,-1.304682 0.234227,-1.412842 -0.02957,-0.04785 -0.01798,-0.087 0.02575,-0.087 0.09384,0 0.316227,-1.335176 0.242308,-1.454778 -0.02785,-0.04507 -0.01486,-0.08194 0.02888,-0.08194 0.09384,0 0.316226,-1.335176 0.242308,-1.454778 -0.02786,-0.04507 -0.01486,-0.08195 0.02888,-0.08195 0.09384,0 0.316227,-1.335176 0.242308,-1.454778 -0.02786,-0.04507 -0.01486,-0.08195 0.02888,-0.08195 0.09384,0 0.316226,-1.335176 0.242308,-1.454778 -0.02785,-0.04507 -0.0155,-0.08195 0.02746,-0.08195 0.09793,0 0.325947,-1.321744 0.249391,-1.445614 -0.03097,-0.05011 -0.02116,-0.09111 0.02179,-0.09111 0.09793,0 0.325948,-1.321744 0.249392,-1.445614 -0.03097,-0.05011 -0.02116,-0.09111 0.0218,-0.09111 0.09793,0 0.325947,-1.3217445 0.249391,-1.4456142 -0.03097,-0.05011 -0.01981,-0.091109 0.02479,-0.091109 0.04461,0 0.118192,-0.2338983 0.163527,-0.519774 l 0.08243,-0.519774 0.632768,-0.075572 c 0.824612,-0.098484 0.799536,-0.097595 2.181548,-0.077383 1.103352,0.016136 1.190534,0.030124 1.234451,0.1980633 0.02599,0.099386 0.008,0.2049657 -0.03999,0.2346225 -0.04799,0.029657 -0.0788,0.1415618 -0.06847,0.2486776 0.01033,0.1071158 -0.01196,0.2659425 -0.04953,0.3529481 -0.03757,0.087006 -0.04539,0.2179064 -0.01739,0.2908904 0.02801,0.072984 0.0096,0.1582252 -0.04086,0.1894247 -0.05048,0.0312 -0.08333,0.1443668 -0.07301,0.2514825 0.01033,0.1071159 -0.01196,0.2659421 -0.04953,0.3529481 -0.03757,0.087 -0.04539,0.217906 -0.01739,0.29089 0.02801,0.07298 0.0096,0.158225 -0.04086,0.189425 -0.05048,0.0312 -0.08333,0.144366 -0.07301,0.251482 0.01033,0.107116 -0.0051,0.255773 -0.03419,0.330349 -0.112801,0.288749 -0.708568,4.15686 -0.653871,4.245362 0.03182,0.05149 0.01172,0.09362 -0.04468,0.09362 -0.0564,0 -0.09364,0.111864 -0.08276,0.248587 0.01088,0.136723 -0.01074,0.319774 -0.04806,0.40678 -0.03731,0.08701 -0.04493,0.217906 -0.01692,0.29089 0.02801,0.07298 0.0096,0.158225 -0.04086,0.189425 -0.05048,0.0312 -0.08333,0.144367 -0.07301,0.251482 0.01033,0.107116 -0.01196,0.265943 -0.04953,0.352949 -0.03757,0.087 -0.0454,0.217906 -0.01739,0.290889 0.02801,0.07298 0.0096,0.158226 -0.04086,0.189426 -0.05048,0.0312 -0.08333,0.144366 -0.07301,0.251482 0.01033,0.107116 -0.01196,0.265943 -0.04953,0.352948 -0.03757,0.08701 -0.0454,0.217907 -0.01739,0.29089 0.02801,0.07298 0.0096,0.158226 -0.04086,0.189426 -0.05048,0.0312 -0.08334,0.144366 -0.07301,0.251482 0.01033,0.107116 -0.0054,0.255773 -0.035,0.330349 -0.09765,0.246214 -0.709077,4.175513 -0.657727,4.226863 0.02766,0.02766 0.0052,0.104662 -0.04999,0.171118 -0.05515,0.06646 -0.07896,0.202363 -0.0529,0.302013 0.02606,0.09965 0.0081,0.205447 -0.03987,0.235104 -0.04799,0.02966 -0.0788,0.141561 -0.06847,0.248677 0.01033,0.107116 -0.01196,0.265943 -0.04953,0.352948 -0.03757,0.08701 -0.04539,0.217907 -0.01739,0.29089 0.02801,0.07299 0.0096,0.158226 -0.04086,0.189426 -0.05048,0.0312 -0.08334,0.144366 -0.07301,0.251482 0.01033,0.107116 -0.01196,0.265942 -0.04953,0.352948 -0.03757,0.08701 -0.04539,0.217907 -0.01739,0.29089 0.02801,0.07298 0.0096,0.158226 -0.04086,0.189426 -0.05048,0.0312 -0.08488,0.144366 -0.07644,0.251482 0.0084,0.107116 0.0065,0.215095 -0.0043,0.239954 -0.01082,0.02486 -0.167864,0.919774 -0.348989,1.9887 l -0.329318,1.943503 -0.677966,0.06515 c -0.372881,0.03583 -1.35014,0.07854 -2.171685,0.09492 -1.458819,0.02908 -1.493412,0.02544 -1.480551,-0.155544 z"
       id="path8864"
       inkscape:connector-curvature="0"
       transform="matrix(0.26458333,0,0,0.26458333,0,280.06665)" />
    <path
       style="fill:#ffff00;stroke:none;stroke-width:0.19303349;stroke-linejoin:round;stroke-miterlimit:4;stroke-dasharray:none"
       d="m 35.626584,31.738369 -0.226184,-0.04016 0.03497,-4.041355 c 0.03257,-3.763349 0.06083,-6.462963 0.165898,-15.847304 l 0.04109,-3.6703557 0.955423,-0.058458 c 0.525482,-0.032152 2.773269,-0.058458 4.995082,-0.058458 h 4.039661 l -0.03125,3.5480227 c -0.01719,1.951412 -0.05039,6.456497 -0.07379,10.011299 -0.0234,3.554802 -0.06837,7.243945 -0.09995,8.198095 l -0.05741,1.734817 -0.4649,0.04734 c -0.255694,0.02604 -2.132695,0.0701 -4.171113,0.09791 -2.038418,0.02782 -3.970621,0.06591 -4.293785,0.08467 -0.323164,0.01875 -0.689354,0.01602 -0.813755,-0.0061 z"
       id="path8866"
       inkscape:connector-curvature="0"
       transform="matrix(0.26458333,0,0,0.26458333,0,280.06665)" />
    <path
       style="fill:#ffff00;stroke:none;stroke-width:0.19303349;stroke-linejoin:round;stroke-miterlimit:4;stroke-dasharray:none"
       d="m 54.203051,31.700712 c -0.19887,-0.04113 -1.996616,-0.07713 -3.994991,-0.08 l -3.633409,-0.0052 0.04153,-5.084746 c 0.02284,-2.79661 0.06331,-7.796139 0.08993,-11.110065 0.02662,-3.313925 0.07221,-6.3092947 0.101306,-6.6563763 l 0.05291,-0.6310573 0.552724,-0.066405 c 0.303998,-0.036523 1.488317,-0.061073 2.63182,-0.054555 1.143503,0.00652 2.302825,-0.019718 2.576271,-0.058301 0.273446,-0.038584 1.056497,-0.055351 1.740113,-0.037262 l 1.242938,0.03289 V 19.816462 31.683299 l -0.282486,0.0565 c -0.34601,0.0692 -0.645757,0.05873 -1.118644,-0.03908 z"
       id="path8868"
       inkscape:connector-curvature="0"
       transform="matrix(0.26458333,0,0,0.26458333,0,280.06665)" />
  </g>
</svg>
