<?xml version="1.0" encoding="UTF-8" standalone="no"?>
<!-- Created with Inkscape (http://www.inkscape.org/) -->

<svg
   xmlns:dc="http://purl.org/dc/elements/1.1/"
   xmlns:cc="http://creativecommons.org/ns#"
   xmlns:rdf="http://www.w3.org/1999/02/22-rdf-syntax-ns#"
   xmlns:svg="http://www.w3.org/2000/svg"
   xmlns="http://www.w3.org/2000/svg"
   xmlns:sodipodi="http://sodipodi.sourceforge.net/DTD/sodipodi-0.dtd"
   xmlns:inkscape="http://www.inkscape.org/namespaces/inkscape"
   width="64"
   height="64"
   viewBox="0 0 16.933333 16.933334"
   version="1.1"
   id="svg3719"
   sodipodi:docname="cab_light_diesel_off_USA.svg"
   inkscape:export-filename="C:\Users\Konrad\OneDrive\JRMI Icons\diesel_smoke.png"
   inkscape:export-xdpi="96"
   inkscape:export-ydpi="96"
   inkscape:version="0.92.3 (2405546, 2018-03-11)">
  <defs
     id="defs3713" />
  <sodipodi:namedview
     id="base"
     pagecolor="#ffffff"
     bordercolor="#666666"
     borderopacity="1.0"
     inkscape:pageopacity="0.0"
     inkscape:pageshadow="2"
     inkscape:zoom="11.0625"
     inkscape:cx="14.184972"
     inkscape:cy="32.438735"
     inkscape:document-units="mm"
     inkscape:current-layer="layer1"
     showgrid="false"
     units="px"
     inkscape:pagecheckerboard="true"
     inkscape:window-width="1600"
     inkscape:window-height="877"
     inkscape:window-x="-8"
     inkscape:window-y="-8"
     inkscape:window-maximized="1"
     inkscape:measure-start="0,0"
     inkscape:measure-end="0,0" />
  <metadata
     id="metadata3716">
    <rdf:RDF>
      <cc:Work
         rdf:about="">
        <dc:format>image/svg+xml</dc:format>
        <dc:type
           rdf:resource="http://purl.org/dc/dcmitype/StillImage" />
        <dc:title></dc:title>
      </cc:Work>
    </rdf:RDF>
  </metadata>
  <g
     inkscape:label="Layer 1"
     inkscape:groupmode="layer"
     id="layer1"
     transform="translate(0,-280.06665)">
    <path
       style="fill:none;stroke:#000000;stroke-width:0.26458332px;stroke-linecap:butt;stroke-linejoin:miter;stroke-opacity:1"
       d="m 1.6981167,288.67682 -0.023917,7.6774 13.7762703,0.0239 0.04784,-15.23522 -8.4905838,0.0239 -1.2915254,7.31864 -4.1376647,0.23917"
       id="path8848"
       inkscape:connector-curvature="0" />
    <path
       style="fill:none;stroke:#000000;stroke-width:0.26458332px;stroke-linecap:butt;stroke-linejoin:miter;stroke-opacity:1"
       d="m 5.7162006,288.48544 1.4589405,-0.0478 1.052354,-6.38588 -1.411111,0.0239"
       id="path8850"
       inkscape:connector-curvature="0" />
    <path
       style="fill:none;stroke:#000000;stroke-width:0.26458332px;stroke-linecap:butt;stroke-linejoin:miter;stroke-opacity:1"
       d="m 9.2798491,282.05177 -0.071751,6.5533 2.9657249,-0.0239 0.04783,-6.52938 z"
       id="path8852"
       inkscape:connector-curvature="0" />
    <path
       style="fill:none;stroke:#000000;stroke-width:0.26458332px;stroke-linecap:butt;stroke-linejoin:miter;stroke-opacity:1"
       d="m 12.221653,282.05179 2.630889,-0.0478 3e-6,6.60113 -2.678719,-0.0239 z"
       id="path8854"
       inkscape:connector-curvature="0"
       sodipodi:nodetypes="ccccc" />
    <path
       style="fill:#0000ff;stroke:none;stroke-width:0.19303349;stroke-linejoin:round;stroke-miterlimit:4;stroke-dasharray:none"
       d="M 12.945246,61.016639 6.8512832,60.992749 6.9136242,47.14421 c 0.036258,-8.054271 0.096448,-13.869618 0.1438586,-13.898919 0.1179744,-0.07291 14.8579902,-0.895911 17.8946052,-0.999133 1.412536,-0.04802 2.585062,-0.104117 2.605613,-0.124669 0.02055,-0.02055 0.949901,-5.583486 2.065221,-12.362074 C 30.73824,12.98083 31.674388,7.3212173 31.703251,7.1825022 l 0.05248,-0.2522094 -2.616726,0.062744 -2.616727,0.062744 0.208499,-1.1541648 c 0.114675,-0.6347907 0.220814,-1.164555 0.235867,-1.1772541 0.01505,-0.012699 7.018365,-0.044535 15.562915,-0.070747 l 15.535547,-0.047658 -0.05559,10.9962981 c -0.03057,6.047964 -0.08083,18.75562 -0.111671,28.239236 l -0.05608,17.242938 -19.401278,-0.02195 c -10.670703,-0.01207 -22.143561,-0.0327 -25.495241,-0.04584 z M 56.688927,19.749848 V 6.7323372 l -1.152543,0.057316 c -0.633898,0.031524 -5.616949,0.083571 -11.073446,0.1156608 l -9.920904,0.058345 -0.0021,0.4615149 c -0.0012,0.2538334 -0.06118,5.4242271 -0.133406,11.4897641 -0.07222,6.065536 -0.132296,11.664603 -0.133498,12.442372 l -0.0022,1.414123 11.20904,-0.002 11.20904,-0.002 v -13.01751 z"
       id="path8856"
       inkscape:connector-curvature="0"
       transform="matrix(0.26458333,0,0,0.26458333,0,280.06665)" />
    <path
       style="fill:#999999;stroke:none;stroke-width:0.19303349;stroke-linejoin:round;stroke-miterlimit:4;stroke-dasharray:none"
       d="m 22.289663,31.055742 c 0.02611,-0.114731 0.946261,-5.313686 2.044777,-11.553234 1.098517,-6.239548 2.00394,-11.3500414 2.012053,-11.3566523 0.0081,-0.00661 0.939048,-0.029546 2.068745,-0.050967 2.038158,-0.038647 2.053669,-0.037509 2.011625,0.1476129 -0.0429,0.1888933 -3.749236,22.7117184 -3.749236,22.7835284 0,0.08257 -0.657733,0.130614 -2.511505,0.183463 l -1.923934,0.05485 z"
       id="path8858"
       inkscape:connector-curvature="0"
       transform="matrix(0.26458333,0,0,0.26458333,0,280.06665)" />
    <path
       style="fill:#999999;stroke:none;stroke-width:0.19303349;stroke-linejoin:round;stroke-miterlimit:4;stroke-dasharray:none"
       d="m 35.358352,30.688949 c 0.0024,-0.875248 0.256685,-22.5820484 0.265291,-22.6440679 0.0017,-0.012429 2.264508,-0.022599 5.028406,-0.022599 h 5.025269 l -0.05408,4.4067799 c -0.02974,2.423729 -0.07904,7.725961 -0.109543,11.782737 l -0.05546,7.375958 -1.630783,0.05907 c -0.89693,0.03249 -3.170024,0.05907 -5.05132,0.05907 h -3.420537 z"
       id="path8860"
       inkscape:connector-curvature="0"
       transform="matrix(0.26458333,0,0,0.26458333,0,280.06665)" />
    <path
       style="fill:#999999;stroke:none;stroke-width:0.19303349;stroke-linejoin:round;stroke-miterlimit:4;stroke-dasharray:none"
       d="m 47.527119,31.63835 -0.981017,-0.02915 0.05543,-7.522271 c 0.03048,-4.13725 0.08008,-9.439675 0.110209,-11.783167 l 0.05478,-4.2608949 3.22109,-0.055324 c 1.7716,-0.030428 3.760074,-0.070584 4.418831,-0.089236 l 1.19774,-0.033912 V 19.785146 31.705898 l -3.548023,-0.0192 c -1.951412,-0.01056 -3.98948,-0.03232 -4.529039,-0.04835 z"
       id="path8862"
       inkscape:connector-curvature="0"
       transform="matrix(0.26458333,0,0,0.26458333,0,280.06665)" />
  </g>
</svg>
