<?xml version="1.0" encoding="UTF-8" standalone="no"?>
<!-- Created with Inkscape (http://www.inkscape.org/) -->

<svg
   xmlns:dc="http://purl.org/dc/elements/1.1/"
   xmlns:cc="http://creativecommons.org/ns#"
   xmlns:rdf="http://www.w3.org/1999/02/22-rdf-syntax-ns#"
   xmlns:svg="http://www.w3.org/2000/svg"
   xmlns="http://www.w3.org/2000/svg"
   xmlns:xlink="http://www.w3.org/1999/xlink"
   xmlns:sodipodi="http://sodipodi.sourceforge.net/DTD/sodipodi-0.dtd"
   xmlns:inkscape="http://www.inkscape.org/namespaces/inkscape"
   width="64"
   height="64"
   viewBox="0 0 16.933333 16.933334"
   version="1.1"
   id="svg3719"
   sodipodi:docname="diesel_smoke_off.svg"
   inkscape:export-filename="C:\Users\Konrad\JRMI Icons\transparent_background\diesel_smoke_off.png"
   inkscape:export-xdpi="96"
   inkscape:export-ydpi="96"
   inkscape:version="0.92.3 (2405546, 2018-03-11)">
  <defs
     id="defs3713" />
  <sodipodi:namedview
     id="base"
     pagecolor="#ffffff"
     bordercolor="#666666"
     borderopacity="1.0"
     inkscape:pageopacity="0.0"
     inkscape:pageshadow="2"
     inkscape:zoom="11.0625"
     inkscape:cx="13.774582"
     inkscape:cy="28.343877"
     inkscape:document-units="mm"
     inkscape:current-layer="layer1"
     showgrid="false"
     units="px"
     inkscape:pagecheckerboard="true"
     inkscape:window-width="1600"
     inkscape:window-height="877"
     inkscape:window-x="-8"
     inkscape:window-y="-8"
     inkscape:window-maximized="1"
     inkscape:measure-start="0,0"
     inkscape:measure-end="0,0" />
  <metadata
     id="metadata3716">
    <rdf:RDF>
      <cc:Work
         rdf:about="">
        <dc:format>image/svg+xml</dc:format>
        <dc:type
           rdf:resource="http://purl.org/dc/dcmitype/StillImage" />
        <dc:title />
      </cc:Work>
    </rdf:RDF>
  </metadata>
  <g
     inkscape:label="Layer 1"
     inkscape:groupmode="layer"
     id="layer1"
     transform="translate(0,-280.06665)">
    <rect
       style="fill:#808000;stroke:#000000;stroke-width:0.56499994;stroke-linejoin:round;stroke-miterlimit:4;stroke-dasharray:none"
       id="rect8112"
       width="18.081356"
       height="6.1227846"
       x="-0.52617705"
       y="291.78604" />
    <rect
       style="fill:#808080;stroke:#000000;stroke-width:0.56499994;stroke-linejoin:round;stroke-miterlimit:4;stroke-dasharray:none"
       id="rect8114"
       width="18.464031"
       height="2.2960825"
       x="-0.90885121"
       y="289.48999" />
    <rect
       style="fill:#808080;stroke:#000000;stroke-width:0.56499994;stroke-linejoin:round;stroke-miterlimit:4;stroke-dasharray:none"
       id="rect8116"
       width="1.6741996"
       height="2.8222222"
       x="6.9838042"
       y="286.73953" />
    <path
       style="fill:none;stroke:#000000;stroke-width:0.26458332px;stroke-linecap:butt;stroke-linejoin:miter;stroke-opacity:1"
       d="m 1.5067797,293.26891 c -0.023917,4.61601 -0.023917,4.61601 -0.023917,4.61601"
       id="path8118"
       inkscape:connector-curvature="0" />
    <path
       style="fill:none;stroke:#000000;stroke-width:0.26458332px;stroke-linecap:butt;stroke-linejoin:miter;stroke-opacity:1"
       d="m 2.0449152,293.25695 c -0.023917,4.61601 -0.023917,4.61601 -0.023917,4.61601"
       id="path8118-6"
       inkscape:connector-curvature="0" />
    <path
       style="fill:none;stroke:#000000;stroke-width:0.26458332px;stroke-linecap:butt;stroke-linejoin:miter;stroke-opacity:1"
       d="m 2.6189264,293.28087 c -0.023917,4.61601 -0.023917,4.61601 -0.023917,4.61601"
       id="path8118-4"
       inkscape:connector-curvature="0" />
    <path
       style="fill:none;stroke:#000000;stroke-width:0.26458332px;stroke-linecap:butt;stroke-linejoin:miter;stroke-opacity:1"
       d="m 3.1929378,293.28086 c -0.023917,4.61601 -0.023917,4.61601 -0.023917,4.61601"
       id="path8118-5"
       inkscape:connector-curvature="0" />
    <path
       style="fill:none;stroke:#000000;stroke-width:0.26458332px;stroke-linecap:butt;stroke-linejoin:miter;stroke-opacity:1"
       d="m 3.7430319,293.28086 c -0.023917,4.61601 -0.023917,4.61601 -0.023917,4.61601"
       id="path8118-2"
       inkscape:connector-curvature="0" />
    <path
       style="fill:none;stroke:#000000;stroke-width:0.26458332px;stroke-linecap:butt;stroke-linejoin:miter;stroke-opacity:1"
       d="m 4.3887946,293.28087 c -0.023917,4.61601 -0.023917,4.61601 -0.023917,4.61601"
       id="path8118-9"
       inkscape:connector-curvature="0" />
    <path
       style="fill:none;stroke:#000000;stroke-width:0.26458332px;stroke-linecap:butt;stroke-linejoin:miter;stroke-opacity:1"
       d="m 5.0584745,293.25695 c -0.023917,4.61601 -0.023917,4.61601 -0.023917,4.61601"
       id="path8118-94"
       inkscape:connector-curvature="0" />
    <path
       style="fill:none;stroke:#000000;stroke-width:0.26458332px;stroke-linecap:butt;stroke-linejoin:miter;stroke-opacity:1"
       d="m 5.656403,293.23303 c -0.023917,4.61601 -0.023917,4.61601 -0.023917,4.61601"
       id="path8118-7"
       inkscape:connector-curvature="0" />
    <path
       style="fill:none;stroke:#000000;stroke-width:0.26458332px;stroke-linecap:butt;stroke-linejoin:miter;stroke-opacity:1"
       d="m 6.2304142,293.23303 c -0.023917,4.61601 -0.023917,4.61601 -0.023917,4.61601"
       id="path8118-98"
       inkscape:connector-curvature="0" />
    <rect
       style="fill:none;stroke:#000000;stroke-width:0.56499994;stroke-linejoin:round;stroke-miterlimit:4;stroke-dasharray:none"
       id="rect8177"
       width="5.8118644"
       height="5.3574386"
       x="0.93276834"
       y="292.91016" />
    <path
       style="fill:#b3b3b3;stroke:#000000;stroke-width:0.26458332px;stroke-linecap:butt;stroke-linejoin:miter;stroke-opacity:1"
       d="m 10.415913,293.29282 c -0.02392,4.61601 -0.02392,4.61601 -0.02392,4.61601"
       id="path8118-78"
       inkscape:connector-curvature="0" />
    <path
       style="fill:#b3b3b3;stroke:#000000;stroke-width:0.26458332px;stroke-linecap:butt;stroke-linejoin:miter;stroke-opacity:1"
       d="m 10.954049,293.28086 c -0.02392,4.61601 -0.02392,4.61601 -0.02392,4.61601"
       id="path8118-6-9"
       inkscape:connector-curvature="0" />
    <path
       style="fill:#b3b3b3;stroke:#000000;stroke-width:0.26458332px;stroke-linecap:butt;stroke-linejoin:miter;stroke-opacity:1"
       d="m 11.52806,293.30478 c -0.02392,4.61601 -0.02392,4.61601 -0.02392,4.61601"
       id="path8118-4-4"
       inkscape:connector-curvature="0" />
    <path
       style="fill:#b3b3b3;stroke:#000000;stroke-width:0.26458332px;stroke-linecap:butt;stroke-linejoin:miter;stroke-opacity:1"
       d="m 12.102071,293.30477 c -0.02392,4.61601 -0.02392,4.61601 -0.02392,4.61601"
       id="path8118-5-8"
       inkscape:connector-curvature="0" />
    <path
       style="fill:#b3b3b3;stroke:#000000;stroke-width:0.26458332px;stroke-linecap:butt;stroke-linejoin:miter;stroke-opacity:1"
       d="m 12.652165,293.30477 c -0.02392,4.61601 -0.02392,4.61601 -0.02392,4.61601"
       id="path8118-2-5"
       inkscape:connector-curvature="0" />
    <path
       style="fill:#b3b3b3;stroke:#000000;stroke-width:0.26458332px;stroke-linecap:butt;stroke-linejoin:miter;stroke-opacity:1"
       d="m 13.297928,293.30478 c -0.02392,4.61601 -0.02392,4.61601 -0.02392,4.61601"
       id="path8118-9-0"
       inkscape:connector-curvature="0" />
    <path
       style="fill:#b3b3b3;stroke:#000000;stroke-width:0.26458332px;stroke-linecap:butt;stroke-linejoin:miter;stroke-opacity:1"
       d="m 13.967608,293.28086 c -0.02392,4.61601 -0.02392,4.61601 -0.02392,4.61601"
       id="path8118-94-9"
       inkscape:connector-curvature="0" />
    <path
       style="fill:#b3b3b3;stroke:#000000;stroke-width:0.26458332px;stroke-linecap:butt;stroke-linejoin:miter;stroke-opacity:1"
       d="m 14.565537,293.25694 c -0.02392,4.61601 -0.02392,4.61601 -0.02392,4.61601"
       id="path8118-7-2"
       inkscape:connector-curvature="0" />
    <path
       style="fill:#b3b3b3;stroke:#000000;stroke-width:0.26458332px;stroke-linecap:butt;stroke-linejoin:miter;stroke-opacity:1"
       d="m 15.139548,293.25694 c -0.02392,4.61601 -0.02392,4.61601 -0.02392,4.61601"
       id="path8118-98-2"
       inkscape:connector-curvature="0" />
    <rect
       style="fill:none;stroke:#000000;stroke-width:0.565;stroke-linejoin:round;stroke-miterlimit:4;stroke-dasharray:none"
       id="rect8177-5"
       width="5.8118649"
       height="5.3574386"
       x="9.8419018"
       y="292.93408" />
    <ellipse
       style="fill:#999999;stroke:none;stroke-width:0.56499994;stroke-linejoin:round;stroke-miterlimit:4;stroke-dasharray:none"
       id="path8367"
       cx="11.181262"
       cy="285.45996"
       rx="1.997081"
       ry="1.4230696" />
    <use
       id="use8369"
       inkscape:spray-origin="#path8367"
       xlink:href="#path8367"
       x="0"
       y="0"
       width="100%"
       height="100%"
       transform="translate(-0.48667502,-1.2772198)" />
    <use
       id="use8371"
       inkscape:spray-origin="#path8367"
       xlink:href="#path8367"
       x="0"
       y="0"
       width="100%"
       height="100%"
       transform="translate(0.22949964,-1.7822845)" />
    <use
       id="use8373"
       inkscape:spray-origin="#path8367"
       xlink:href="#path8367"
       x="0"
       y="0"
       width="100%"
       height="100%"
       transform="translate(0.07691361,-2.4896693)" />
    <use
       id="use8375"
       inkscape:spray-origin="#path8367"
       xlink:href="#path8367"
       x="0"
       y="0"
       width="100%"
       height="100%"
       transform="translate(-0.52747597,-1.2928157)" />
    <use
       id="use8377"
       inkscape:spray-origin="#path8367"
       xlink:href="#path8367"
       x="0"
       y="0"
       width="100%"
       height="100%"
       transform="translate(-0.02038404,-2.0111949)" />
    <use
       id="use8379"
       inkscape:spray-origin="#path8367"
       xlink:href="#path8367"
       x="0"
       y="0"
       width="100%"
       height="100%"
       transform="translate(-0.15218484,-1.5460502)" />
    <use
       id="use8381"
       inkscape:spray-origin="#path8367"
       xlink:href="#path8367"
       x="0"
       y="0"
       width="100%"
       height="100%"
       transform="translate(-0.31028457,-2.2674664)" />
    <use
       id="use8383"
       inkscape:spray-origin="#path8367"
       xlink:href="#path8367"
       x="0"
       y="0"
       width="100%"
       height="100%"
       transform="translate(0.45570345,-1.5322536)" />
    <use
       id="use8385"
       inkscape:spray-origin="#path8367"
       xlink:href="#path8367"
       x="0"
       y="0"
       width="100%"
       height="100%"
       transform="translate(-0.3739825,-1.6359414)" />
    <use
       id="use8387"
       inkscape:spray-origin="#path8367"
       xlink:href="#path8367"
       x="0"
       y="0"
       width="100%"
       height="100%"
       transform="translate(3.5943683,-4.0589616)" />
    <use
       id="use8389"
       inkscape:spray-origin="#path8367"
       xlink:href="#path8367"
       x="0"
       y="0"
       width="100%"
       height="100%"
       transform="translate(3.4422621,-4.192372)" />
    <use
       id="use8391"
       inkscape:spray-origin="#path8367"
       xlink:href="#path8367"
       x="0"
       y="0"
       width="100%"
       height="100%"
       transform="translate(4.0090377,-3.7335418)" />
    <use
       id="use8393"
       inkscape:spray-origin="#path8367"
       xlink:href="#path8367"
       x="0"
       y="0"
       width="100%"
       height="100%"
       transform="translate(3.657578,-2.7001208)" />
    <use
       id="use8395"
       inkscape:spray-origin="#path8367"
       xlink:href="#path8367"
       x="0"
       y="0"
       width="100%"
       height="100%"
       transform="translate(3.639576,-2.8436024)" />
    <use
       id="use8397"
       inkscape:spray-origin="#path8367"
       xlink:href="#path8367"
       x="0"
       y="0"
       width="100%"
       height="100%"
       transform="translate(3.7637848,-3.0645957)" />
    <use
       id="use8399"
       inkscape:spray-origin="#path8367"
       xlink:href="#path8367"
       x="0"
       y="0"
       width="100%"
       height="100%"
       transform="translate(3.8610992,-3.7409661)" />
    <use
       id="use8401"
       inkscape:spray-origin="#path8367"
       xlink:href="#path8367"
       x="0"
       y="0"
       width="100%"
       height="100%"
       transform="translate(3.8373501,-2.8268481)" />
    <use
       id="use8403"
       inkscape:spray-origin="#path8367"
       xlink:href="#path8367"
       x="0"
       y="0"
       width="100%"
       height="100%"
       transform="translate(2.8523386,-3.8447228)" />
    <use
       id="use8405"
       inkscape:spray-origin="#path8367"
       xlink:href="#path8367"
       x="0"
       y="0"
       width="100%"
       height="100%"
       transform="translate(3.0184988,-3.8270991)" />
    <use
       id="use8407"
       inkscape:spray-origin="#path8367"
       xlink:href="#path8367"
       x="0"
       y="0"
       width="100%"
       height="100%"
       transform="translate(3.1989929,-3.6002998)" />
    <use
       id="use8409"
       inkscape:spray-origin="#path8367"
       xlink:href="#path8367"
       x="0"
       y="0"
       width="100%"
       height="100%"
       transform="translate(3.3264867,-3.8637722)" />
    <use
       id="use8411"
       inkscape:spray-origin="#path8367"
       xlink:href="#path8367"
       x="0"
       y="0"
       width="100%"
       height="100%"
       transform="translate(3.3549953,-2.8178907)" />
    <ellipse
       ry="0.38267419"
       rx="0.69359702"
       cy="284.16797"
       cx="9.6387482"
       id="use8424"
       style="fill:#f2f2f2;stroke:none;stroke-width:0.56499994;stroke-linejoin:round;stroke-miterlimit:4;stroke-dasharray:none" />
    <ellipse
       ry="0.38267419"
       rx="0.69359702"
       cy="284.19958"
       cx="9.8580513"
       id="use8426"
       style="fill:#f2f2f2;stroke:none;stroke-width:0.56499994;stroke-linejoin:round;stroke-miterlimit:4;stroke-dasharray:none" />
    <ellipse
       ry="0.38267419"
       rx="0.69359702"
       cy="283.56305"
       cx="10.19262"
       id="use8428"
       style="fill:#f2f2f2;stroke:none;stroke-width:0.56499994;stroke-linejoin:round;stroke-miterlimit:4;stroke-dasharray:none" />
    <ellipse
       ry="0.38267419"
       rx="0.69359702"
       cy="283.84253"
       cx="10.562716"
       id="use8430"
       style="fill:#f2f2f2;stroke:none;stroke-width:0.56499994;stroke-linejoin:round;stroke-miterlimit:4;stroke-dasharray:none" />
    <ellipse
       ry="0.38267419"
       rx="0.69359702"
       cy="283.93771"
       cx="10.053498"
       id="use8432"
       style="fill:#f2f2f2;stroke:none;stroke-width:0.56499994;stroke-linejoin:round;stroke-miterlimit:4;stroke-dasharray:none" />
    <ellipse
       ry="0.38267419"
       rx="0.69359702"
       cy="284.07361"
       cx="10.86643"
       id="use8434"
       style="fill:#f2f2f2;stroke:none;stroke-width:0.56499994;stroke-linejoin:round;stroke-miterlimit:4;stroke-dasharray:none" />
    <ellipse
       ry="0.38267419"
       rx="0.69359702"
       cy="284.57837"
       cx="10.332545"
       id="use8436"
       style="fill:#f2f2f2;stroke:none;stroke-width:0.56499994;stroke-linejoin:round;stroke-miterlimit:4;stroke-dasharray:none" />
    <ellipse
       ry="0.38267419"
       rx="0.69359702"
       cy="284.11197"
       cx="10.954172"
       id="use8438"
       style="fill:#f2f2f2;stroke:none;stroke-width:0.56499994;stroke-linejoin:round;stroke-miterlimit:4;stroke-dasharray:none" />
    <ellipse
       ry="0.38267419"
       rx="0.69359702"
       cy="284.47632"
       cx="10.429482"
       id="use8440"
       style="fill:#f2f2f2;stroke:none;stroke-width:0.56499994;stroke-linejoin:round;stroke-miterlimit:4;stroke-dasharray:none" />
    <ellipse
       ry="0.38267419"
       rx="0.69359702"
       cy="283.52072"
       cx="10.587871"
       id="use8442"
       style="fill:#f2f2f2;stroke:none;stroke-width:0.56499994;stroke-linejoin:round;stroke-miterlimit:4;stroke-dasharray:none" />
    <ellipse
       ry="0.38267419"
       rx="0.69359702"
       cy="283.70435"
       cx="9.9222269"
       id="use8444"
       style="fill:#f2f2f2;stroke:none;stroke-width:0.56499994;stroke-linejoin:round;stroke-miterlimit:4;stroke-dasharray:none" />
    <ellipse
       ry="0.38267419"
       rx="0.69359702"
       cy="284.4473"
       cx="10.305943"
       id="use8446"
       style="fill:#f2f2f2;stroke:none;stroke-width:0.56499994;stroke-linejoin:round;stroke-miterlimit:4;stroke-dasharray:none" />
    <ellipse
       ry="0.38267419"
       rx="0.69359702"
       cy="283.48328"
       cx="10.837607"
       id="use8448"
       style="fill:#f2f2f2;stroke:none;stroke-width:0.56499994;stroke-linejoin:round;stroke-miterlimit:4;stroke-dasharray:none" />
    <ellipse
       ry="0.38267419"
       rx="0.69359702"
       cy="283.81583"
       cx="11.051364"
       id="use8450"
       style="fill:#f2f2f2;stroke:none;stroke-width:0.56499994;stroke-linejoin:round;stroke-miterlimit:4;stroke-dasharray:none" />
    <ellipse
       ry="0.38267419"
       rx="0.69359702"
       cy="283.49957"
       cx="11.229765"
       id="use8452"
       style="fill:#f2f2f2;stroke:none;stroke-width:0.56499994;stroke-linejoin:round;stroke-miterlimit:4;stroke-dasharray:none" />
    <ellipse
       ry="0.38267419"
       rx="0.69359702"
       cy="283.3331"
       cx="11.150904"
       id="use8454"
       style="fill:#f2f2f2;stroke:none;stroke-width:0.56499994;stroke-linejoin:round;stroke-miterlimit:4;stroke-dasharray:none" />
    <ellipse
       ry="0.38267419"
       rx="0.69359702"
       cy="283.68661"
       cx="11.391425"
       id="use8456"
       style="fill:#f2f2f2;stroke:none;stroke-width:0.56499994;stroke-linejoin:round;stroke-miterlimit:4;stroke-dasharray:none" />
    <ellipse
       ry="0.38267419"
       rx="0.69359702"
       cy="283.28476"
       cx="10.704383"
       id="use8458"
       style="fill:#f2f2f2;stroke:none;stroke-width:0.56499994;stroke-linejoin:round;stroke-miterlimit:4;stroke-dasharray:none" />
    <ellipse
       ry="0.38267419"
       rx="0.69359702"
       cy="283.57101"
       cx="10.601243"
       id="use8460"
       style="fill:#f2f2f2;stroke:none;stroke-width:0.56499994;stroke-linejoin:round;stroke-miterlimit:4;stroke-dasharray:none" />
    <ellipse
       ry="0.38267419"
       rx="0.69359702"
       cy="283.69366"
       cx="9.9579411"
       id="use8462"
       style="fill:#f2f2f2;stroke:none;stroke-width:0.56499994;stroke-linejoin:round;stroke-miterlimit:4;stroke-dasharray:none" />
    <ellipse
       ry="0.38267419"
       rx="0.69359702"
       cy="283.9407"
       cx="10.758692"
       id="use8464"
       style="fill:#f2f2f2;stroke:none;stroke-width:0.56499994;stroke-linejoin:round;stroke-miterlimit:4;stroke-dasharray:none" />
    <ellipse
       ry="0.38267419"
       rx="0.69359702"
       cy="283.64337"
       cx="11.551896"
       id="use8466"
       style="fill:#f2f2f2;stroke:none;stroke-width:0.56499994;stroke-linejoin:round;stroke-miterlimit:4;stroke-dasharray:none" />
    <ellipse
       ry="0.38267419"
       rx="0.69359702"
       cy="283.18576"
       cx="11.322926"
       id="use8468"
       style="fill:#f2f2f2;stroke:none;stroke-width:0.56499994;stroke-linejoin:round;stroke-miterlimit:4;stroke-dasharray:none" />
    <ellipse
       ry="0.38267419"
       rx="0.69359702"
       cy="283.46112"
       cx="10.785789"
       id="use8470"
       style="fill:#f2f2f2;stroke:none;stroke-width:0.56499994;stroke-linejoin:round;stroke-miterlimit:4;stroke-dasharray:none" />
    <ellipse
       ry="0.38267419"
       rx="0.69359702"
       cy="283.91281"
       cx="10.846478"
       id="use8472"
       style="fill:#f2f2f2;stroke:none;stroke-width:0.56499994;stroke-linejoin:round;stroke-miterlimit:4;stroke-dasharray:none" />
    <ellipse
       ry="0.38267419"
       rx="0.69359702"
       cy="283.04276"
       cx="10.645143"
       id="use8474"
       style="fill:#f2f2f2;stroke:none;stroke-width:0.56499994;stroke-linejoin:round;stroke-miterlimit:4;stroke-dasharray:none" />
    <ellipse
       ry="0.38267419"
       rx="0.69359702"
       cy="283.74042"
       cx="11.402384"
       id="use8476"
       style="fill:#f2f2f2;stroke:none;stroke-width:0.56499994;stroke-linejoin:round;stroke-miterlimit:4;stroke-dasharray:none" />
    <ellipse
       ry="0.38267419"
       rx="0.69359702"
       cy="283.49869"
       cx="10.794584"
       id="use8478"
       style="fill:#f2f2f2;stroke:none;stroke-width:0.56499994;stroke-linejoin:round;stroke-miterlimit:4;stroke-dasharray:none" />
    <ellipse
       ry="0.38267419"
       rx="0.69359702"
       cy="283.50781"
       cx="11.609926"
       id="use8480"
       style="fill:#f2f2f2;stroke:none;stroke-width:0.56499994;stroke-linejoin:round;stroke-miterlimit:4;stroke-dasharray:none" />
    <ellipse
       ry="0.38267419"
       rx="0.69359702"
       cy="283.10678"
       cx="11.455046"
       id="use8482"
       style="fill:#f2f2f2;stroke:none;stroke-width:0.56499994;stroke-linejoin:round;stroke-miterlimit:4;stroke-dasharray:none" />
    <ellipse
       ry="0.38267419"
       rx="0.69359702"
       cy="282.69476"
       cx="11.221387"
       id="use8484"
       style="fill:#f2f2f2;stroke:none;stroke-width:0.56499994;stroke-linejoin:round;stroke-miterlimit:4;stroke-dasharray:none" />
    <ellipse
       ry="0.38267419"
       rx="0.69359702"
       cy="283.56842"
       cx="10.930766"
       id="use8486"
       style="fill:#f2f2f2;stroke:none;stroke-width:0.56499994;stroke-linejoin:round;stroke-miterlimit:4;stroke-dasharray:none" />
    <ellipse
       ry="0.38267419"
       rx="0.69359702"
       cy="282.9823"
       cx="11.972545"
       id="use8488"
       style="fill:#f2f2f2;stroke:none;stroke-width:0.56499994;stroke-linejoin:round;stroke-miterlimit:4;stroke-dasharray:none" />
    <ellipse
       ry="0.38267419"
       rx="0.69359702"
       cy="283.2468"
       cx="12.031611"
       id="use8490"
       style="fill:#f2f2f2;stroke:none;stroke-width:0.56499994;stroke-linejoin:round;stroke-miterlimit:4;stroke-dasharray:none" />
    <ellipse
       ry="0.38267419"
       rx="0.69359702"
       cy="282.41022"
       cx="11.856943"
       id="use8492"
       style="fill:#f2f2f2;stroke:none;stroke-width:0.56499994;stroke-linejoin:round;stroke-miterlimit:4;stroke-dasharray:none" />
    <ellipse
       ry="0.38267419"
       rx="0.69359702"
       cy="282.75085"
       cx="12.293618"
       id="use8494"
       style="fill:#f2f2f2;stroke:none;stroke-width:0.56499994;stroke-linejoin:round;stroke-miterlimit:4;stroke-dasharray:none" />
    <ellipse
       ry="0.38267419"
       rx="0.69359702"
       cy="285.81134"
       cx="10.740472"
       id="use8496"
       style="fill:#f2f2f2;stroke:none;stroke-width:0.56499994;stroke-linejoin:round;stroke-miterlimit:4;stroke-dasharray:none" />
    <ellipse
       ry="0.38267419"
       rx="0.69359702"
       cy="284.37015"
       cx="10.49282"
       id="use8498"
       style="fill:#f2f2f2;stroke:none;stroke-width:0.56499994;stroke-linejoin:round;stroke-miterlimit:4;stroke-dasharray:none" />
    <ellipse
       ry="0.38267419"
       rx="0.69359702"
       cy="285.52417"
       cx="10.460086"
       id="use8500"
       style="fill:#f2f2f2;stroke:none;stroke-width:0.56499994;stroke-linejoin:round;stroke-miterlimit:4;stroke-dasharray:none" />
    <ellipse
       ry="0.38267419"
       rx="0.69359702"
       cy="284.82788"
       cx="10.333282"
       id="use8502"
       style="fill:#f2f2f2;stroke:none;stroke-width:0.56499994;stroke-linejoin:round;stroke-miterlimit:4;stroke-dasharray:none" />
    <ellipse
       ry="0.38267419"
       rx="0.69359702"
       cy="284.95963"
       cx="11.113251"
       id="use8504"
       style="fill:#f2f2f2;stroke:none;stroke-width:0.56499994;stroke-linejoin:round;stroke-miterlimit:4;stroke-dasharray:none" />
    <ellipse
       ry="0.38267419"
       rx="0.69359702"
       cy="285.07901"
       cx="10.22134"
       id="use8506"
       style="fill:#f2f2f2;stroke:none;stroke-width:0.56499994;stroke-linejoin:round;stroke-miterlimit:4;stroke-dasharray:none" />
    <ellipse
       ry="0.38267419"
       rx="0.69359702"
       cy="284.57727"
       cx="11.107025"
       id="use8508"
       style="fill:#f2f2f2;stroke:none;stroke-width:0.56499994;stroke-linejoin:round;stroke-miterlimit:4;stroke-dasharray:none" />
    <ellipse
       ry="0.38267419"
       rx="0.69359702"
       cy="285.43408"
       cx="10.409078"
       id="use8510"
       style="fill:#f2f2f2;stroke:none;stroke-width:0.56499994;stroke-linejoin:round;stroke-miterlimit:4;stroke-dasharray:none" />
    <ellipse
       ry="0.38267419"
       rx="0.69359702"
       cy="285.31345"
       cx="10.707718"
       id="use8512"
       style="fill:#f2f2f2;stroke:none;stroke-width:0.56499994;stroke-linejoin:round;stroke-miterlimit:4;stroke-dasharray:none" />
    <ellipse
       ry="0.38267419"
       rx="0.69359702"
       cy="285.36972"
       cx="10.75334"
       id="use8514"
       style="fill:#f2f2f2;stroke:none;stroke-width:0.56499994;stroke-linejoin:round;stroke-miterlimit:4;stroke-dasharray:none" />
    <ellipse
       ry="0.38267419"
       rx="0.69359702"
       cy="284.32407"
       cx="10.782869"
       id="use8516"
       style="fill:#f2f2f2;stroke:none;stroke-width:0.56499994;stroke-linejoin:round;stroke-miterlimit:4;stroke-dasharray:none" />
    <ellipse
       ry="0.38267419"
       rx="0.69359702"
       cy="285.39847"
       cx="10.831471"
       id="use8518"
       style="fill:#f2f2f2;stroke:none;stroke-width:0.56499994;stroke-linejoin:round;stroke-miterlimit:4;stroke-dasharray:none" />
    <ellipse
       ry="0.38267419"
       rx="0.69359702"
       cy="285.29684"
       cx="11.418468"
       id="use8520"
       style="fill:#f2f2f2;stroke:none;stroke-width:0.56499994;stroke-linejoin:round;stroke-miterlimit:4;stroke-dasharray:none" />
    <ellipse
       ry="0.38267419"
       rx="0.69359702"
       cy="284.90747"
       cx="11.667547"
       id="use8522"
       style="fill:#f2f2f2;stroke:none;stroke-width:0.56499994;stroke-linejoin:round;stroke-miterlimit:4;stroke-dasharray:none" />
    <ellipse
       ry="0.38267419"
       rx="0.69359702"
       cy="284.17114"
       cx="11.140514"
       id="use8524"
       style="fill:#f2f2f2;stroke:none;stroke-width:0.56499994;stroke-linejoin:round;stroke-miterlimit:4;stroke-dasharray:none" />
    <ellipse
       ry="0.38267419"
       rx="0.69359702"
       cy="283.96371"
       cx="11.152986"
       id="use8526"
       style="fill:#f2f2f2;stroke:none;stroke-width:0.56499994;stroke-linejoin:round;stroke-miterlimit:4;stroke-dasharray:none" />
    <ellipse
       ry="0.38267419"
       rx="0.69359702"
       cy="284.31873"
       cx="10.929511"
       id="use8528"
       style="fill:#f2f2f2;stroke:none;stroke-width:0.56499994;stroke-linejoin:round;stroke-miterlimit:4;stroke-dasharray:none" />
    <ellipse
       ry="0.38267419"
       rx="0.69359702"
       cy="285.0209"
       cx="11.888373"
       id="use8530"
       style="fill:#f2f2f2;stroke:none;stroke-width:0.56499994;stroke-linejoin:round;stroke-miterlimit:4;stroke-dasharray:none" />
    <ellipse
       ry="0.38267419"
       rx="0.69359702"
       cy="284.10226"
       cx="11.500947"
       id="use8532"
       style="fill:#f2f2f2;stroke:none;stroke-width:0.56499994;stroke-linejoin:round;stroke-miterlimit:4;stroke-dasharray:none" />
    <ellipse
       ry="0.38267419"
       rx="0.69359702"
       cy="284.99539"
       cx="11.531537"
       id="use8534"
       style="fill:#f2f2f2;stroke:none;stroke-width:0.56499994;stroke-linejoin:round;stroke-miterlimit:4;stroke-dasharray:none" />
    <ellipse
       ry="0.38267419"
       rx="0.69359702"
       cy="284.29025"
       cx="12.428589"
       id="use8536"
       style="fill:#f2f2f2;stroke:none;stroke-width:0.56499994;stroke-linejoin:round;stroke-miterlimit:4;stroke-dasharray:none" />
    <ellipse
       ry="0.38267419"
       rx="0.69359702"
       cy="283.69812"
       cx="11.572205"
       id="use8538"
       style="fill:#f2f2f2;stroke:none;stroke-width:0.56499994;stroke-linejoin:round;stroke-miterlimit:4;stroke-dasharray:none" />
    <ellipse
       ry="0.38267419"
       rx="0.69359702"
       cy="284.23419"
       cx="11.214381"
       id="use8540"
       style="fill:#f2f2f2;stroke:none;stroke-width:0.56499994;stroke-linejoin:round;stroke-miterlimit:4;stroke-dasharray:none" />
    <ellipse
       ry="0.38267419"
       rx="0.69359702"
       cy="283.7356"
       cx="11.185754"
       id="use8542"
       style="fill:#f2f2f2;stroke:none;stroke-width:0.56499994;stroke-linejoin:round;stroke-miterlimit:4;stroke-dasharray:none" />
    <ellipse
       ry="0.38267419"
       rx="0.69359702"
       cy="284.82513"
       cx="11.427439"
       id="use8544"
       style="fill:#f2f2f2;stroke:none;stroke-width:0.56499994;stroke-linejoin:round;stroke-miterlimit:4;stroke-dasharray:none" />
    <ellipse
       ry="0.38267419"
       rx="0.69359702"
       cy="283.85834"
       cx="11.850348"
       id="use8546"
       style="fill:#f2f2f2;stroke:none;stroke-width:0.56499994;stroke-linejoin:round;stroke-miterlimit:4;stroke-dasharray:none" />
    <ellipse
       ry="0.38267419"
       rx="0.69359702"
       cy="284.23688"
       cx="12.231867"
       id="use8548"
       style="fill:#f2f2f2;stroke:none;stroke-width:0.56499994;stroke-linejoin:round;stroke-miterlimit:4;stroke-dasharray:none" />
    <ellipse
       ry="0.38267419"
       rx="0.69359702"
       cy="282.04016"
       cx="14.181111"
       id="use8550"
       style="fill:#f2f2f2;stroke:none;stroke-width:0.56499994;stroke-linejoin:round;stroke-miterlimit:4;stroke-dasharray:none" />
    <ellipse
       ry="0.38267419"
       rx="0.69359702"
       cy="281.47638"
       cx="14.261046"
       id="use8552"
       style="fill:#f2f2f2;stroke:none;stroke-width:0.56499994;stroke-linejoin:round;stroke-miterlimit:4;stroke-dasharray:none" />
    <ellipse
       ry="0.38267419"
       rx="0.69359702"
       cy="281.50241"
       cx="13.596105"
       id="use8554"
       style="fill:#f2f2f2;stroke:none;stroke-width:0.56499994;stroke-linejoin:round;stroke-miterlimit:4;stroke-dasharray:none" />
    <ellipse
       ry="0.38267419"
       rx="0.69359702"
       cy="281.69519"
       cx="13.788369"
       id="use8556"
       style="fill:#f2f2f2;stroke:none;stroke-width:0.56499994;stroke-linejoin:round;stroke-miterlimit:4;stroke-dasharray:none" />
    <ellipse
       ry="0.38267419"
       rx="0.69359702"
       cy="281.81613"
       cx="14.664345"
       id="use8558"
       style="fill:#f2f2f2;stroke:none;stroke-width:0.56499994;stroke-linejoin:round;stroke-miterlimit:4;stroke-dasharray:none" />
    <ellipse
       ry="0.38267419"
       rx="0.69359702"
       cy="281.99634"
       cx="13.781905"
       id="use8560"
       style="fill:#f2f2f2;stroke:none;stroke-width:0.56499994;stroke-linejoin:round;stroke-miterlimit:4;stroke-dasharray:none" />
    <ellipse
       ry="0.38267419"
       rx="0.69359702"
       cy="282.31165"
       cx="14.450608"
       id="use8562"
       style="fill:#f2f2f2;stroke:none;stroke-width:0.56499994;stroke-linejoin:round;stroke-miterlimit:4;stroke-dasharray:none" />
    <ellipse
       ry="0.38267419"
       rx="0.69359702"
       cy="281.46939"
       cx="14.291767"
       id="use8564"
       style="fill:#f2f2f2;stroke:none;stroke-width:0.56499994;stroke-linejoin:round;stroke-miterlimit:4;stroke-dasharray:none" />
    <ellipse
       ry="0.38267419"
       rx="0.69359702"
       cy="281.9967"
       cx="14.222205"
       id="use8566"
       style="fill:#f2f2f2;stroke:none;stroke-width:0.56499994;stroke-linejoin:round;stroke-miterlimit:4;stroke-dasharray:none" />
    <ellipse
       ry="0.38267419"
       rx="0.69359702"
       cy="281.81122"
       cx="14.314499"
       id="use8568"
       style="fill:#f2f2f2;stroke:none;stroke-width:0.56499994;stroke-linejoin:round;stroke-miterlimit:4;stroke-dasharray:none" />
    <ellipse
       ry="0.38267419"
       rx="0.69359702"
       cy="281.86249"
       cx="14.99912"
       id="use8570"
       style="fill:#f2f2f2;stroke:none;stroke-width:0.56499994;stroke-linejoin:round;stroke-miterlimit:4;stroke-dasharray:none" />
    <ellipse
       ry="0.38267419"
       rx="0.69359702"
       cy="280.97086"
       cx="14.534595"
       id="use8572"
       style="fill:#f2f2f2;stroke:none;stroke-width:0.56499994;stroke-linejoin:round;stroke-miterlimit:4;stroke-dasharray:none" />
    <ellipse
       ry="0.38267419"
       rx="0.69359702"
       cy="281.3667"
       cx="14.714703"
       id="use8574"
       style="fill:#f2f2f2;stroke:none;stroke-width:0.56499994;stroke-linejoin:round;stroke-miterlimit:4;stroke-dasharray:none" />
    <ellipse
       ry="0.38267419"
       rx="0.69359702"
       cy="282.00952"
       cx="15.433082"
       id="use8576"
       style="fill:#f2f2f2;stroke:none;stroke-width:0.56499994;stroke-linejoin:round;stroke-miterlimit:4;stroke-dasharray:none" />
    <ellipse
       ry="0.38267419"
       rx="0.69359702"
       cy="282.09726"
       cx="15.254969"
       id="use8578"
       style="fill:#f2f2f2;stroke:none;stroke-width:0.56499994;stroke-linejoin:round;stroke-miterlimit:4;stroke-dasharray:none" />
    <ellipse
       ry="0.38267419"
       rx="0.69359702"
       cy="281.63629"
       cx="15.256248"
       id="use8580"
       style="fill:#f2f2f2;stroke:none;stroke-width:0.56499994;stroke-linejoin:round;stroke-miterlimit:4;stroke-dasharray:none" />
    <ellipse
       ry="0.38267419"
       rx="0.69359702"
       cy="282.0705"
       cx="15.204822"
       id="use8582"
       style="fill:#f2f2f2;stroke:none;stroke-width:0.56499994;stroke-linejoin:round;stroke-miterlimit:4;stroke-dasharray:none" />
    <ellipse
       ry="0.38267419"
       rx="0.69359702"
       cy="281.67987"
       cx="14.946666"
       id="use8584"
       style="fill:#f2f2f2;stroke:none;stroke-width:0.56499994;stroke-linejoin:round;stroke-miterlimit:4;stroke-dasharray:none" />
    <ellipse
       ry="0.38267419"
       rx="0.69359702"
       cy="281.42703"
       cx="15.52211"
       id="use8586"
       style="fill:#f2f2f2;stroke:none;stroke-width:0.56499994;stroke-linejoin:round;stroke-miterlimit:4;stroke-dasharray:none" />
    <ellipse
       ry="0.38267419"
       rx="0.69359702"
       cy="282.08545"
       cx="14.843207"
       id="use8588"
       style="fill:#f2f2f2;stroke:none;stroke-width:0.56499994;stroke-linejoin:round;stroke-miterlimit:4;stroke-dasharray:none" />
    <ellipse
       ry="0.38267419"
       rx="0.69359702"
       cy="281.64804"
       cx="15.687136"
       id="use8590"
       style="fill:#f2f2f2;stroke:none;stroke-width:0.56499994;stroke-linejoin:round;stroke-miterlimit:4;stroke-dasharray:none" />
    <ellipse
       ry="0.38267419"
       rx="0.69359702"
       cy="281.50745"
       cx="15.854193"
       id="use8592"
       style="fill:#f2f2f2;stroke:none;stroke-width:0.56499994;stroke-linejoin:round;stroke-miterlimit:4;stroke-dasharray:none" />
    <ellipse
       ry="0.38267419"
       rx="0.69359702"
       cy="281.47235"
       cx="15.305766"
       id="use8594"
       style="fill:#f2f2f2;stroke:none;stroke-width:0.56499994;stroke-linejoin:round;stroke-miterlimit:4;stroke-dasharray:none" />
    <ellipse
       ry="0.38267419"
       rx="0.69359702"
       cy="281.8934"
       cx="15.517806"
       id="use8596"
       style="fill:#f2f2f2;stroke:none;stroke-width:0.56499994;stroke-linejoin:round;stroke-miterlimit:4;stroke-dasharray:none" />
    <ellipse
       ry="0.38267419"
       rx="0.69359702"
       cy="281.98795"
       cx="15.362742"
       id="use8598"
       style="fill:#f2f2f2;stroke:none;stroke-width:0.56499994;stroke-linejoin:round;stroke-miterlimit:4;stroke-dasharray:none" />
    <ellipse
       ry="0.38267419"
       rx="0.69359702"
       cy="281.94968"
       cx="15.704063"
       id="use8600"
       style="fill:#f2f2f2;stroke:none;stroke-width:0.56499994;stroke-linejoin:round;stroke-miterlimit:4;stroke-dasharray:none" />
    <ellipse
       ry="0.38267419"
       rx="0.69359702"
       cy="282.91995"
       cx="14.968656"
       id="use8602"
       style="fill:#f2f2f2;stroke:none;stroke-width:0.56499994;stroke-linejoin:round;stroke-miterlimit:4;stroke-dasharray:none" />
    <ellipse
       ry="0.38267419"
       rx="0.69359702"
       cy="282.28244"
       cx="14.707314"
       id="use8604"
       style="fill:#f2f2f2;stroke:none;stroke-width:0.56499994;stroke-linejoin:round;stroke-miterlimit:4;stroke-dasharray:none" />
    <ellipse
       ry="0.38267419"
       rx="0.69359702"
       cy="281.82162"
       cx="14.476902"
       id="use8606"
       style="fill:#f2f2f2;stroke:none;stroke-width:0.56499994;stroke-linejoin:round;stroke-miterlimit:4;stroke-dasharray:none" />
    <ellipse
       ry="0.38267419"
       rx="0.69359702"
       cy="282.9476"
       cx="15.047738"
       id="use8608"
       style="fill:#f2f2f2;stroke:none;stroke-width:0.56499994;stroke-linejoin:round;stroke-miterlimit:4;stroke-dasharray:none" />
    <ellipse
       ry="0.38267419"
       rx="0.69359702"
       cy="282.04669"
       cx="15.53555"
       id="use8610"
       style="fill:#f2f2f2;stroke:none;stroke-width:0.56499994;stroke-linejoin:round;stroke-miterlimit:4;stroke-dasharray:none" />
    <ellipse
       ry="0.38267419"
       rx="0.69359702"
       cy="282.51306"
       cx="14.633885"
       id="use8612"
       style="fill:#f2f2f2;stroke:none;stroke-width:0.56499994;stroke-linejoin:round;stroke-miterlimit:4;stroke-dasharray:none" />
    <path
       style="fill:#b3b3b3;stroke-width:0.09039548"
       d="M -0.89660446,55.868552 V 45.382677 H 32.188141 65.272887 V 55.868552 66.354428 H 62.787011 60.301136 V 57.44757 c 0,-9.669699 0.0194,-9.292121 -0.498412,-9.699434 L 59.55359,47.552168 H 47.814369 36.075147 v 9.40113 9.40113 h -4.745763 -4.745762 v -9.044037 c 0,-9.929638 0.02843,-9.417853 -0.539415,-9.711495 -0.232999,-0.120489 -1.680281,-0.137123 -11.930673,-0.137123 H 2.4480283 V 56.9081 66.354428 H 0.77571192 -0.89660446 Z"
       id="path330"
       inkscape:connector-curvature="0"
       transform="matrix(0.26458333,0,0,0.26458333,0,280.06665)" />
    <path
       style="fill:#b3b3b3;stroke-width:0.09039548"
       d="m 4.6175198,57.992846 v -8.361582 h 9.8983052 9.898305 v 8.361582 8.361582 l -0.20339,9e-6 -0.20339,9e-6 0.03157,-8.321172 0.03157,-8.321172 -0.528742,0.02738 -0.528741,0.02738 -0.02307,8.293786 -0.02307,8.293785 -0.564498,9e-6 -0.564499,9e-6 0.03157,-8.321172 0.03157,-8.321172 -0.528742,0.02738 -0.528741,0.02738 -0.02307,8.293786 -0.02307,8.293785 -0.609695,1.1e-5 -0.609697,1.2e-5 0.0313,-8.275969 0.0313,-8.275968 -0.528471,0.02737 -0.52847,0.02737 -0.02307,8.248587 -0.02307,8.248588 -0.745287,1.4e-5 -0.745288,1.2e-5 0.03102,-8.230764 0.03102,-8.230764 -0.52819,0.02736 -0.528191,0.02736 -0.02308,8.20339 -0.02308,8.20339 -0.700087,1.4e-5 -0.700087,1.2e-5 0.03102,-8.230764 0.03102,-8.230764 -0.52819,0.02736 -0.528191,0.02736 -0.02308,8.20339 -0.02308,8.20339 -0.519296,1.4e-5 -0.519296,1.2e-5 0.03102,-8.230764 0.03102,-8.230764 -0.52819,0.02736 -0.528191,0.02736 -0.02308,8.20339 -0.02308,8.20339 -0.564494,1.4e-5 -0.564493,1.2e-5 0.03102,-8.230764 0.03102,-8.230764 -0.52819,0.02736 -0.5281905,0.02736 -0.023077,8.20339 -0.023077,8.20339 -0.5644937,1.1e-5 -0.5644936,1.2e-5 0.031295,-8.275969 0.031295,-8.275968 -0.5284705,0.02737 -0.5284705,0.02737 -0.023074,8.248587 -0.023075,8.248588 H 6.6361261 6.1246103 l 0.061961,-8.225989 0.061961,-8.225988 H 5.7042124 5.1598927 v 2.380571 c 0,1.309314 -0.027015,5.011009 -0.060033,8.225989 l -0.060033,5.845417 H 4.8286734 4.6175198 Z"
       id="path332"
       inkscape:connector-curvature="0"
       transform="matrix(0.26458333,0,0,0.26458333,0,280.06665)" />
    <path
       style="fill:#b3b3b3;stroke-width:0.09039548"
       d="M 38.335034,58.038044 V 49.72166 h 9.853107 9.853108 v 8.316384 8.316384 h -0.195622 -0.19562 l 0.06181,-8.271186 0.06181,-8.271187 h -0.544158 -0.544158 l -7.5e-5,2.372881 c -4.2e-5,1.305085 -0.02706,5.027119 -0.06004,8.271187 l -0.05996,5.898305 H 56.02288 55.480516 l 0.06181,-8.271186 0.06181,-8.271187 h -0.544158 -0.544157 l -7.6e-5,2.372881 c -4.2e-5,1.305085 -0.02706,5.027119 -0.06003,8.271187 l -0.05996,5.898305 h -0.587549 -0.587549 l 0.06196,-8.225989 0.06196,-8.225988 h -0.544319 -0.54432 v 2.380571 c 0,1.309314 -0.02701,5.011009 -0.06003,8.225989 l -0.06003,5.845417 h -0.72313 -0.72313 l 0.06211,-8.180791 0.06211,-8.180791 h -0.544483 -0.544483 l -7.7e-5,2.418079 c -4.3e-5,1.329944 -0.02706,5.0113 -0.06003,8.180791 l -0.05995,5.762712 h -0.677936 -0.677935 l 0.06211,-8.180791 0.06211,-8.180791 h -0.544483 -0.544483 l -7.7e-5,2.418079 c -4.3e-5,1.329944 -0.02706,5.0113 -0.06003,8.180791 l -0.05995,5.762712 h -0.497145 -0.497144 l 0.06211,-8.180791 0.06211,-8.180791 H 45.749573 45.20509 l -7.7e-5,2.418079 c -4.3e-5,1.329944 -0.02706,5.0113 -0.06003,8.180791 l -0.05995,5.762712 H 44.54269 44.000348 l 0.06211,-8.180791 0.06211,-8.180791 h -0.544482 -0.544483 l -7.8e-5,2.418079 c -4.3e-5,1.329944 -0.02706,5.0113 -0.06003,8.180791 l -0.05995,5.762712 h -0.542357 -0.542357 l 0.06196,-8.225989 0.06196,-8.225988 h -0.54432 -0.54432 v 2.380571 c 0,1.309314 -0.02701,5.011009 -0.06003,8.225989 l -0.06003,5.845417 -0.459742,1.3e-5 -0.459741,1.3e-5 0.03104,-8.180804 0.03103,-8.180804 h -0.550809 -0.55081 v 8.180791 8.180791 h -0.225988 -0.225989 z"
       id="path334"
       inkscape:connector-curvature="0"
       transform="matrix(0.26458333,0,0,0.26458333,0,280.06665)" />
    <path
       style="fill:#b3b3b3;stroke-width:0.09039548"
       d="m 39.690966,23.021916 c -0.914756,-0.220422 -1.416745,-0.543782 -1.625115,-1.046833 -0.06151,-0.148506 -0.185469,-0.293378 -0.275457,-0.32194 -0.479802,-0.152282 -0.992083,-0.868061 -0.992083,-1.386174 0,-0.187651 -0.104719,-0.368871 -0.361582,-0.625735 -0.41206,-0.41206 -0.481296,-0.832985 -0.198503,-1.206819 0.281687,-0.37237 0.387841,-0.878897 0.252218,-1.203487 -0.109897,-0.263021 -0.166079,-0.291264 -0.786906,-0.395582 -1.274897,-0.214221 -2.033646,-0.885191 -1.800354,-1.592073 0.116935,-0.354317 0.272407,-0.506851 0.788668,-0.773766 0.351345,-0.18165 0.372806,-0.213555 0.290052,-0.431212 -0.123839,-0.325722 -0.02719,-0.678173 0.261477,-0.95358 0.312533,-0.298172 1.719233,-1.028454 2.227653,-1.156476 l 0.3902,-0.09825 -0.128044,-0.25667 c -0.331023,-0.663551 0.389192,-1.386449 1.6434,-1.6495222 0.272342,-0.057124 0.495167,-0.1533611 0.495167,-0.2138593 0,-0.2034373 0.447632,-0.6442884 0.842812,-0.830045 0.21558,-0.1013343 0.652366,-0.2314644 0.970638,-0.2891779 0.468314,-0.084922 0.650937,-0.1715429 0.957582,-0.4541982 1.006888,-0.9281178 3.466226,-0.8947336 4.420972,0.060012 0.170951,0.1709516 0.310821,0.3908212 0.310821,0.4885989 0,0.1110632 0.06119,0.1777778 0.163043,0.1777778 0.262911,0 1.086228,0.4479804 1.282955,0.6980778 0.113009,0.1436673 0.181121,0.3669139 0.181121,0.5936461 0,0.306993 -0.05671,0.417331 -0.365389,0.710974 -0.200963,0.191172 -0.414523,0.348208 -0.474576,0.348969 -0.285497,0.0036 -0.342443,0.139937 -0.200438,0.479805 0.119872,0.286893 0.121863,0.372568 0.01454,0.626156 -0.158572,0.374694 -0.36525,0.555923 -0.907576,0.795819 l -0.435304,0.192556 0.284719,0.240276 c 0.156595,0.132151 0.339564,0.401674 0.4066,0.598938 0.116724,0.34349 0.150903,0.367489 0.807863,0.567269 0.893415,0.271685 1.41193,0.727133 1.41193,1.240198 0,0.834818 -1.268667,1.46103 -2.810598,1.387309 l -0.809084,-0.03868 0.606048,0.321717 c 0.681955,0.362012 0.964669,0.68148 0.964669,1.090079 0,0.509707 -0.593291,1.042873 -1.413431,1.270191 -0.189063,0.0524 -0.501953,0.253479 -0.695309,0.446837 -0.397041,0.39704 -1.278733,0.723651 -1.953513,0.723651 -0.218491,0 -0.397257,0.01769 -0.397257,0.03931 0,0.02162 0.04041,0.145602 0.0898,0.27551 0.196325,0.516374 -0.332264,1.147804 -1.205875,1.440486 -0.609572,0.204223 -1.62861,0.254485 -2.22856,0.109919 z"
       id="path336"
       inkscape:connector-curvature="0"
       transform="matrix(0.26458333,0,0,0.26458333,0,280.06665)" />
    <path
       style="fill:#b3b3b3;stroke-width:0.09039548"
       d="M 55.759676,12.157109 C 54.605734,11.877422 53.79638,11.172243 54.005088,10.62836 54.040471,10.536154 53.939056,10.443116 53.675854,10.326321 53.466651,10.233488 53.193791,10.04526 53.069497,9.9080361 52.945203,9.770812 52.670627,9.4771273 52.459328,9.2554035 52.248028,9.0336796 52.075147,8.8196334 52.075147,8.7797453 c 0,-0.039888 -0.241683,-0.094439 -0.537074,-0.121224 C 50.900259,8.6006864 50.118915,8.264352 49.784477,7.9036751 49.522919,7.6215966 49.466614,7.1878415 49.647647,6.8495782 49.739103,6.678691 49.708649,6.6185751 49.387342,6.335747 48.785993,5.8064133 48.681897,5.4309693 48.994391,4.9184902 49.35896,4.3206105 50.850642,3.8855825 51.943855,4.0583204 c 0.634301,0.1002255 0.722446,0.06863 0.539041,-0.1932168 -0.33564,-0.479193 -0.03567,-1.0986473 0.708266,-1.4626226 1.043242,-0.5104109 2.488041,-0.5126915 3.488921,-0.00551 0.624631,0.3165243 0.847377,0.6277533 0.793638,1.108901 -0.042,0.376054 -0.03843,0.381935 0.194574,0.3204255 1.10948,-0.2928864 3.835559,0.2792454 4.500942,0.9446284 0.244088,0.2440882 0.30139,0.3722244 0.30139,0.6739555 0,0.319551 -0.05359,0.4235481 -0.376641,0.7308552 -0.323456,0.3076956 -0.36175,0.3821349 -0.271186,0.5271498 0.342378,0.5482358 -0.05514,1.1195024 -1.172988,1.6856656 -0.70742,0.358292 -0.965342,0.4281157 -2.382575,0.6450019 -0.303661,0.046471 -0.365917,0.092601 -0.388646,0.2879798 -0.02343,0.2014263 0.02363,0.2493775 0.350758,0.3573379 0.56572,0.1867044 1.044042,0.5716524 1.164739,0.9373694 0.374881,1.1359 -1.691209,2.01185 -3.634412,1.540865 z"
       id="path338"
       inkscape:connector-curvature="0"
       transform="matrix(0.26458333,0,0,0.26458333,0,280.06665)" />
  </g>
</svg>
