<?xml version="1.0" encoding="UTF-8" standalone="no"?>
<!-- Created with Inkscape (http://www.inkscape.org/) -->

<svg
   xmlns:dc="http://purl.org/dc/elements/1.1/"
   xmlns:cc="http://creativecommons.org/ns#"
   xmlns:rdf="http://www.w3.org/1999/02/22-rdf-syntax-ns#"
   xmlns:svg="http://www.w3.org/2000/svg"
   xmlns="http://www.w3.org/2000/svg"
   xmlns:sodipodi="http://sodipodi.sourceforge.net/DTD/sodipodi-0.dtd"
   xmlns:inkscape="http://www.inkscape.org/namespaces/inkscape"
   width="64"
   height="64"
   viewBox="0 0 16.933333 16.933334"
   version="1.1"
   id="svg3719"
   sodipodi:docname="fan_medium_off.svg"
   inkscape:export-filename="C:\Users\Konrad\JRMI Icons\transparent_background\fan_medium_off.png"
   inkscape:export-xdpi="96"
   inkscape:export-ydpi="96"
   inkscape:version="0.92.3 (2405546, 2018-03-11)">
  <defs
     id="defs3713" />
  <sodipodi:namedview
     id="base"
     pagecolor="#ffffff"
     bordercolor="#666666"
     borderopacity="1.0"
     inkscape:pageopacity="0.0"
     inkscape:pageshadow="2"
     inkscape:zoom="11.0625"
     inkscape:cx="0.67084771"
     inkscape:cy="32"
     inkscape:document-units="mm"
     inkscape:current-layer="layer1"
     showgrid="false"
     units="px"
     inkscape:pagecheckerboard="true"
     inkscape:window-width="1600"
     inkscape:window-height="877"
     inkscape:window-x="-8"
     inkscape:window-y="-8"
     inkscape:window-maximized="1"
     inkscape:measure-start="0,0"
     inkscape:measure-end="0,0" />
  <metadata
     id="metadata3716">
    <rdf:RDF>
      <cc:Work
         rdf:about="">
        <dc:format>image/svg+xml</dc:format>
        <dc:type
           rdf:resource="http://purl.org/dc/dcmitype/StillImage" />
        <dc:title></dc:title>
      </cc:Work>
    </rdf:RDF>
  </metadata>
  <g
     inkscape:label="Layer 1"
     inkscape:groupmode="layer"
     id="layer1"
     transform="translate(0,-280.06665)">
    <ellipse
       style="fill:none;stroke:#000000;stroke-width:0.56499994;stroke-linejoin:round;stroke-miterlimit:4;stroke-dasharray:none"
       id="path7962"
       cx="8.5264597"
       cy="289.40628"
       rx="5.6803203"
       ry="5.8716574" />
    <ellipse
       style="fill:#000000;stroke:#000000;stroke-width:0.53998041;stroke-linejoin:round;stroke-miterlimit:4;stroke-dasharray:none"
       id="path7970"
       cx="8.562335"
       cy="289.45413"
       rx="0.22776397"
       ry="0.23972255" />
    <path
       style="fill:#666666;stroke:#000000;stroke-width:0.26458332px;stroke-linecap:butt;stroke-linejoin:miter;stroke-opacity:1"
       d="m 8.2035781,288.43765 c 0.353336,-0.10013 0.6906751,-0.0723 0.9806025,0.33484 1.0644964,-0.96818 1.6186564,-2.21473 1.9851224,-3.56366 -0.576717,-0.54955 -1.154389,-1.09702 -2.104708,-0.8371 -0.1479175,1.33985 -0.1680224,2.6655 -0.8610169,4.06592 z"
       id="path7972"
       inkscape:connector-curvature="0"
       sodipodi:nodetypes="ccccc" />
    <path
       style="fill:#666666;stroke:#000000;stroke-width:0.25862429px;stroke-linecap:butt;stroke-linejoin:miter;stroke-opacity:1"
       d="m 9.4484488,289.20449 c 0.1430257,0.34305 0.1650963,0.68731 -0.1713831,1.03525 1.0490883,0.94296 2.2839243,1.33298 3.5870803,1.51965 0.427854,-0.65677 0.853643,-1.31421 0.477681,-2.23811 -1.263715,0.0327 -2.496116,0.19246 -3.8933782,-0.31679 z"
       id="path7972-8"
       inkscape:connector-curvature="0"
       sodipodi:nodetypes="ccccc" />
    <path
       style="fill:#666666;stroke:#000000;stroke-width:0.26458332px;stroke-linecap:butt;stroke-linejoin:miter;stroke-opacity:1"
       d="m 8.748576,290.33025 c -0.3670606,0.0118 -0.6876707,-0.0968 -0.8705816,-0.56195 -1.2669831,0.68211 -2.1060222,1.75776 -2.7876905,2.97812 0.4267646,0.67265 0.8549672,1.34353 1.8399292,1.32103 0.467416,-1.26435 0.8073764,-2.54583 1.8183429,-3.7372 z"
       id="path7972-2"
       inkscape:connector-curvature="0"
       sodipodi:nodetypes="ccccc"
       inkscape:transform-center-x="5.4844405"
       inkscape:transform-center-y="-0.030365225" />
    <path
       style="fill:#666666;stroke:#000000;stroke-width:0.26458332px;stroke-linecap:butt;stroke-linejoin:miter;stroke-opacity:1"
       d="m 7.6924186,289.33899 c -0.032757,-0.36578 0.05725,-0.69208 0.5111595,-0.90134 -0.7536015,-1.22581 -1.8755221,-2.00187 -3.1329048,-2.61252 -0.6471122,0.4646 -1.292356,0.93053 -1.2134835,1.91259 1.2890571,0.39421 2.5879052,0.66022 3.8352288,1.60127 z"
       id="path7972-9"
       inkscape:connector-curvature="0"
       sodipodi:nodetypes="ccccc"
       inkscape:transform-center-x="-0.10416085"
       inkscape:transform-center-y="-0.9974523" />
  </g>
</svg>
