<?xml version="1.0" encoding="UTF-8" standalone="no"?>
<!-- Created with Inkscape (http://www.inkscape.org/) -->

<svg
   xmlns:dc="http://purl.org/dc/elements/1.1/"
   xmlns:cc="http://creativecommons.org/ns#"
   xmlns:rdf="http://www.w3.org/1999/02/22-rdf-syntax-ns#"
   xmlns:svg="http://www.w3.org/2000/svg"
   xmlns="http://www.w3.org/2000/svg"
   xmlns:sodipodi="http://sodipodi.sourceforge.net/DTD/sodipodi-0.dtd"
   xmlns:inkscape="http://www.inkscape.org/namespaces/inkscape"
   width="64"
   height="64"
   viewBox="0 0 16.933333 16.933334"
   version="1.1"
   id="svg3719"
   sodipodi:docname="fan_fast.svg"
   inkscape:export-filename="C:\Users\Konrad\OneDrive\JRMI Icons\fan_fast.png"
   inkscape:export-xdpi="96"
   inkscape:export-ydpi="96"
   inkscape:version="0.92.3 (2405546, 2018-03-11)">
  <defs
     id="defs3713" />
  <sodipodi:namedview
     id="base"
     pagecolor="#ffffff"
     bordercolor="#666666"
     borderopacity="1.0"
     inkscape:pageopacity="0.0"
     inkscape:pageshadow="2"
     inkscape:zoom="11.0625"
     inkscape:cx="14.184972"
     inkscape:cy="32"
     inkscape:document-units="mm"
     inkscape:current-layer="layer1"
     showgrid="false"
     units="px"
     inkscape:pagecheckerboard="true"
     inkscape:window-width="1600"
     inkscape:window-height="877"
     inkscape:window-x="-8"
     inkscape:window-y="-8"
     inkscape:window-maximized="1"
     inkscape:measure-start="0,0"
     inkscape:measure-end="0,0" />
  <metadata
     id="metadata3716">
    <rdf:RDF>
      <cc:Work
         rdf:about="">
        <dc:format>image/svg+xml</dc:format>
        <dc:type
           rdf:resource="http://purl.org/dc/dcmitype/StillImage" />
        <dc:title></dc:title>
      </cc:Work>
    </rdf:RDF>
  </metadata>
  <g
     inkscape:label="Layer 1"
     inkscape:groupmode="layer"
     id="layer1"
     transform="translate(0,-280.06665)">
    <ellipse
       style="fill:none;stroke:#000000;stroke-width:0.56499994;stroke-linejoin:round;stroke-miterlimit:4;stroke-dasharray:none"
       id="path7962"
       cx="8.5264597"
       cy="289.40628"
       rx="5.6803203"
       ry="5.8716574" />
    <ellipse
       style="fill:#000000;stroke:#000000;stroke-width:0.53998041;stroke-linejoin:round;stroke-miterlimit:4;stroke-dasharray:none"
       id="path7970"
       cx="8.562335"
       cy="289.45413"
       rx="0.22776397"
       ry="0.23972255" />
    <path
       style="fill:#000000;stroke:#000000;stroke-width:0.26458332px;stroke-linecap:butt;stroke-linejoin:miter;stroke-opacity:1"
       d="m 8.2035781,288.43765 c 0.353336,-0.10013 0.6906751,-0.0723 0.9806025,0.33484 1.0644964,-0.96818 1.6186564,-2.21473 1.9851224,-3.56366 -0.576717,-0.54955 -1.154389,-1.09702 -2.104708,-0.8371 -0.1479175,1.33985 -0.1680224,2.6655 -0.8610169,4.06592 z"
       id="path7972"
       inkscape:connector-curvature="0"
       sodipodi:nodetypes="ccccc" />
    <path
       style="fill:#000000;stroke:#000000;stroke-width:0.25862429px;stroke-linecap:butt;stroke-linejoin:miter;stroke-opacity:1"
       d="m 9.4484488,289.20449 c 0.1430257,0.34305 0.1650963,0.68731 -0.1713831,1.03525 1.0490883,0.94296 2.2839243,1.33298 3.5870803,1.51965 0.427854,-0.65677 0.853643,-1.31421 0.477681,-2.23811 -1.263715,0.0327 -2.496116,0.19246 -3.8933782,-0.31679 z"
       id="path7972-8"
       inkscape:connector-curvature="0"
       sodipodi:nodetypes="ccccc" />
    <path
       style="fill:#000000;stroke:#000000;stroke-width:0.26458332px;stroke-linecap:butt;stroke-linejoin:miter;stroke-opacity:1"
       d="m 9.2770657,290.23974 c -0.2780842,0.23988 -0.595645,0.35702 -1.0303177,0.11022 -0.5564158,1.327 -0.5328511,2.69094 -0.2958478,4.06851 0.7547545,0.25485 1.5095092,0.50741 2.2613678,-0.12927 -0.4312984,-1.27712 -0.9725009,-2.48744 -0.9352084,-4.0495 z"
       id="path7972-4"
       inkscape:connector-curvature="0"
       sodipodi:nodetypes="ccccc" />
    <path
       style="fill:#000000;stroke:#000000;stroke-width:0.26458332px;stroke-linecap:butt;stroke-linejoin:miter;stroke-opacity:1"
       d="m 7.9585262,290.02706 c -0.3328785,-0.15512 -0.5700234,-0.39665 -0.5233923,-0.89429 -1.4384526,0.0371 -2.6725535,0.61849 -3.8314966,1.40001 0.077372,0.79285 0.1568253,1.58476 1.0459886,2.00908 0.9875893,-0.91746 1.8691569,-1.90771 3.3089003,-2.5148 z"
       id="path7972-2"
       inkscape:connector-curvature="0"
       sodipodi:nodetypes="ccccc"
       inkscape:transform-center-x="4.7094277"
       inkscape:transform-center-y="-2.2831406" />
    <path
       style="fill:#000000;stroke:#000000;stroke-width:0.26458332px;stroke-linecap:butt;stroke-linejoin:miter;stroke-opacity:1"
       d="m 7.4351339,289.13277 c 0.083818,-0.35756 0.2717773,-0.63906 0.7684442,-0.69512 -0.3303466,-1.4005 -1.1516581,-2.48973 -2.1535389,-3.46448 -0.7603072,0.23778 -1.5192586,0.47741 -1.7529004,1.43452 1.0999446,0.77923 2.2494652,1.43981 3.1379951,2.72508 z"
       id="path7972-9"
       inkscape:connector-curvature="0"
       sodipodi:nodetypes="ccccc" />
  </g>
</svg>
