<?xml version="1.0" encoding="UTF-8" standalone="no"?>
<!-- Created with Inkscape (http://www.inkscape.org/) -->

<svg
   xmlns:dc="http://purl.org/dc/elements/1.1/"
   xmlns:cc="http://creativecommons.org/ns#"
   xmlns:rdf="http://www.w3.org/1999/02/22-rdf-syntax-ns#"
   xmlns:svg="http://www.w3.org/2000/svg"
   xmlns="http://www.w3.org/2000/svg"
   xmlns:sodipodi="http://sodipodi.sourceforge.net/DTD/sodipodi-0.dtd"
   xmlns:inkscape="http://www.inkscape.org/namespaces/inkscape"
   width="64"
   height="64"
   viewBox="0 0 16.933333 16.933334"
   version="1.1"
   id="svg3719"
   sodipodi:docname="generic_light_off.svg"
   inkscape:export-filename="C:\Users\Konrad\OneDrive\JRMI Icons\generic_light_off.png"
   inkscape:export-xdpi="96"
   inkscape:export-ydpi="96"
   inkscape:version="0.92.3 (2405546, 2018-03-11)">
  <defs
     id="defs3713" />
  <sodipodi:namedview
     id="base"
     pagecolor="#ffffff"
     bordercolor="#666666"
     borderopacity="1.0"
     inkscape:pageopacity="0.0"
     inkscape:pageshadow="2"
     inkscape:zoom="11.0625"
     inkscape:cx="6.4089487"
     inkscape:cy="32.731225"
     inkscape:document-units="mm"
     inkscape:current-layer="layer1"
     showgrid="false"
     units="px"
     inkscape:pagecheckerboard="true"
     inkscape:window-width="1600"
     inkscape:window-height="877"
     inkscape:window-x="-8"
     inkscape:window-y="-8"
     inkscape:window-maximized="1"
     inkscape:measure-start="0,0"
     inkscape:measure-end="0,0" />
  <metadata
     id="metadata3716">
    <rdf:RDF>
      <cc:Work
         rdf:about="">
        <dc:format>image/svg+xml</dc:format>
        <dc:type
           rdf:resource="http://purl.org/dc/dcmitype/StillImage" />
        <dc:title></dc:title>
      </cc:Work>
    </rdf:RDF>
  </metadata>
  <g
     inkscape:label="Layer 1"
     inkscape:groupmode="layer"
     id="layer1"
     transform="translate(0,-280.06665)">
    <ellipse
       style="fill:#ffff00;stroke:#000000;stroke-width:0.26499999;stroke-linejoin:round;stroke-miterlimit:4;stroke-dasharray:none"
       id="path10408"
       cx="8.4547081"
       cy="285.51978"
       rx="3.5038607"
       ry="3.5397365" />
    <path
       style="fill:#666666;stroke:#000000;stroke-width:0.26648775px;stroke-linecap:butt;stroke-linejoin:miter;stroke-opacity:1"
       d="m 7.1761179,288.77606 v 4.51581 c 1.175604,0.88237 2.1298205,0.6578 2.9876901,-0.0485 l -0.09561,-4.6372 c -0.9084959,0.50088 -1.8564566,0.68603 -2.8920801,0.16989 z"
       id="path10410"
       inkscape:connector-curvature="0"
       sodipodi:nodetypes="ccccc" />
    <path
       style="fill:none;stroke:#000000;stroke-width:0.26458332px;stroke-linecap:butt;stroke-linejoin:miter;stroke-opacity:1"
       d="m 7.2708097,290.23143 c 1.0108106,-0.002 1.9309763,-0.25298 2.7504703,-0.76535"
       id="path10412"
       inkscape:connector-curvature="0"
       sodipodi:nodetypes="cc" />
    <path
       style="fill:none;stroke:#000000;stroke-width:0.26458332px;stroke-linecap:butt;stroke-linejoin:miter;stroke-opacity:1"
       d="m 7.2468927,291.57079 c 1.0219387,-0.0833 1.9511165,-0.44483 2.8461393,-0.90885"
       id="path10414"
       inkscape:connector-curvature="0"
       sodipodi:nodetypes="cc" />
    <path
       style="fill:none;stroke:#000000;stroke-width:0.26458332px;stroke-linecap:butt;stroke-linejoin:miter;stroke-opacity:1"
       d="m 7.1751411,292.79057 c 1.0485439,-0.1324 2.0590512,-0.36624 2.9178909,-1.00452"
       id="path10416"
       inkscape:connector-curvature="0"
       sodipodi:nodetypes="cc" />
    <path
       style="fill:#4d4d4d;stroke:#000000;stroke-width:0.26458332px;stroke-linecap:butt;stroke-linejoin:miter;stroke-opacity:1"
       d="m 8.2274951,293.93859 0.023918,0.40659 h 0.9327681 v -0.50226 z"
       id="path10418"
       inkscape:connector-curvature="0" />
    <path
       style="fill:none;stroke:#000000;stroke-width:0.26458332px;stroke-linecap:butt;stroke-linejoin:miter;stroke-opacity:1"
       d="m 7.1761177,288.77606 -0.4075679,-3.06497 1.1719396,0.35876 h 1.3154427 l 1.0045199,-0.50226 -0.192254,3.03858"
       id="path10420"
       inkscape:connector-curvature="0" />
    <path
       style="fill:#cccccc;stroke:#ffff00;stroke-width:0.22719872;stroke-linejoin:round;stroke-miterlimit:4;stroke-dasharray:none"
       d="m 25.47359,31.632088 c -1.11275,-0.697558 -1.667374,-1.137431 -2.520959,-1.999371 -1.387262,-1.400841 -2.38243,-3.034356 -3.019489,-4.956328 -0.537258,-1.62088 -0.675378,-2.630182 -0.616076,-4.501957 0.06874,-2.169756 0.360489,-3.368567 1.279658,-5.258199 1.329095,-2.732362 3.598195,-4.901176 6.398544,-6.1157545 3.063424,-1.3286793 6.844544,-1.3291683 9.912224,-0.00128 3.982668,1.7239515 6.813792,5.3352465 7.559336,9.6424595 0.207106,1.196505 0.207106,3.142479 0,4.338983 -0.560867,3.240287 -2.413166,6.262957 -5.007716,8.171834 -0.416761,0.306622 -0.77085,0.544391 -0.786866,0.528376 -0.01601,-0.01601 0.135031,-2.603953 0.335657,-5.750973 0.200625,-3.147021 0.345565,-5.741064 0.322089,-5.764541 -0.02348,-0.02348 -1.023041,0.447821 -2.221254,1.047327 l -2.178569,1.090011 -2.509198,-0.0022 -2.509197,-0.0022 -2.440678,-0.750146 c -2.041617,-0.627494 -2.44497,-0.726499 -2.466925,-0.605521 -0.01444,0.07954 0.300818,2.606385 0.700565,5.615203 0.399746,3.008816 0.726812,5.539913 0.726812,5.624657 0,0.08475 -0.03447,0.154081 -0.0766,0.154081 -0.04213,0 -0.438741,-0.227018 -0.881356,-0.504484 z"
       id="path10456"
       inkscape:connector-curvature="0"
       transform="matrix(0.26458333,0,0,0.26458333,0,280.06665)" />
    <path
       style="fill:#cccccc;stroke:#cccccc;stroke-width:0.22719872;stroke-linejoin:round;stroke-miterlimit:4;stroke-dasharray:none"
       d="m 29.817282,33.26143 c -0.70703,-0.118874 -2.210768,-0.628137 -2.210421,-0.748591 9.5e-5,-0.03294 -0.308375,-2.371751 -0.68549,-5.197368 -0.377115,-2.825617 -0.671509,-5.151639 -0.654209,-5.168939 0.0173,-0.0173 0.818982,0.209823 1.781517,0.504716 l 1.750064,0.536171 h 2.701646 2.701646 l 1.454949,-0.728545 c 0.800222,-0.4007 1.469746,-0.713749 1.487831,-0.695664 0.01808,0.01808 -0.10788,2.227287 -0.279922,4.909337 -0.172044,2.68205 -0.313232,4.961842 -0.313753,5.066206 -0.0017,0.335114 -2.179841,1.264154 -3.602121,1.53639 -0.836316,0.160078 -3.143633,0.152421 -4.131737,-0.01371 z"
       id="path10458"
       inkscape:connector-curvature="0"
       transform="matrix(0.26458333,0,0,0.26458333,0,280.06665)" />
    <path
       style="fill:#cccccc;stroke:#cccccc;stroke-width:0.22719872;stroke-linejoin:round;stroke-miterlimit:4;stroke-dasharray:none"
       d="m 25.11088,31.212103 c -2.88706,-1.915918 -4.908031,-5.031154 -5.515339,-8.50165 -0.179212,-1.024117 -0.122735,-3.810549 0.09749,-4.810009 0.515759,-2.340678 1.7414,-4.556335 3.477785,-6.286979 2.438669,-2.4306075 5.323757,-3.6212346 8.774853,-3.6212346 3.351265,0 6.187412,1.1292178 8.598191,3.4233876 1.886815,1.795549 3.165188,4.121643 3.702966,6.737821 0.267992,1.303727 0.267992,3.611691 0,4.915418 -0.347624,1.691119 -0.991308,3.223966 -1.985616,4.72848 -0.559988,0.847333 -2.215391,2.574013 -2.983347,3.111802 l -0.487015,0.34105 0.0589,-0.709351 c 0.117395,-1.413751 0.598744,-9.55786 0.598744,-10.130343 v -0.587308 l -0.237547,0.05962 c -0.13065,0.03279 -1.153996,0.504998 -2.274101,1.049348 l -2.036554,0.989727 h -2.521527 -2.521526 l -2.097028,-0.637399 c -1.153365,-0.350569 -2.276434,-0.662077 -2.495708,-0.69224 l -0.398679,-0.05484 0.05708,0.71484 c 0.0314,0.393161 0.343005,2.909262 0.692465,5.591333 0.349459,2.682072 0.635381,4.90919 0.635381,4.949152 0,0.148296 -0.178476,0.05739 -1.139877,-0.580623 z"
       id="path10460"
       inkscape:connector-curvature="0"
       transform="matrix(0.26458333,0,0,0.26458333,0,280.06665)" />
    <path
       style="fill:#cccccc;stroke:#cccccc;stroke-width:0.22719872;stroke-linejoin:round;stroke-miterlimit:4;stroke-dasharray:none"
       d="m 30.454146,33.409156 c -0.996508,-0.09714 -2.821193,-0.637411 -2.899448,-0.858491 -0.06788,-0.191786 -1.303941,-9.772622 -1.303941,-10.107023 0,-0.202042 0.04353,-0.340969 0.106843,-0.340969 0.05876,0 0.849964,0.223729 1.758223,0.497175 l 1.651379,0.497176 h 2.705083 2.705083 l 1.389802,-0.676509 c 0.76439,-0.37208 1.440649,-0.677165 1.502796,-0.677966 0.161514,-0.0021 0.14836,0.441256 -0.158192,5.331876 -0.148028,2.361582 -0.269603,4.406545 -0.270165,4.544363 -8.13e-4,0.1995 -0.08742,0.305369 -0.424851,0.519364 -0.493172,0.31276 -1.76921,0.816244 -2.740013,1.081121 -0.774608,0.211347 -2.81461,0.307643 -4.022599,0.189883 z"
       id="path10462"
       inkscape:connector-curvature="0"
       transform="matrix(0.26458333,0,0,0.26458333,0,280.06665)" />
    <path
       style="fill:#cccccc;stroke:#cccccc;stroke-width:0.22719872;stroke-linejoin:round;stroke-miterlimit:4;stroke-dasharray:none"
       d="m 25.301392,31.42236 c -2.876562,-1.886549 -4.801172,-4.597127 -5.603205,-7.891432 -0.41349,-1.698385 -0.376327,-4.55981 0.08136,-6.264697 0.904202,-3.368135 3.408465,-6.456394 6.525252,-8.0469459 3.111649,-1.5879301 7.147402,-1.7297492 10.486296,-0.3684957 2.117845,0.8634369 4.223659,2.6054876 5.554332,4.5948646 0.922452,1.379082 1.428567,2.522899 1.870644,4.227641 0.230605,0.889265 0.246204,1.071778 0.24724,2.892655 0.0012,2.080551 -0.03872,2.382443 -0.5138,3.887006 -0.616686,1.953025 -1.637815,3.630585 -3.132669,5.146498 -0.916488,0.929398 -1.957738,1.797071 -2.048116,1.706692 -0.02321,-0.02321 0.05672,-1.584847 0.177617,-3.470297 0.301255,-4.698012 0.455845,-7.798313 0.392029,-7.862128 -0.05786,-0.05786 -1.652405,0.660732 -3.346116,1.507951 l -1.060758,0.530606 H 32.414899 29.8983 l -1.770425,-0.532883 c -2.25262,-0.67802 -3.02833,-0.877115 -3.107791,-0.797654 -0.08424,0.08423 0.04581,1.258312 0.733761,6.624281 0.317485,2.476378 0.556769,4.535637 0.531742,4.576132 -0.07619,0.123271 -0.142127,0.09246 -0.984199,-0.459794 z"
       id="path10464"
       inkscape:connector-curvature="0"
       transform="matrix(0.26458333,0,0,0.26458333,0,280.06665)" />
    <path
       style="fill:#cccccc;stroke:#cccccc;stroke-width:0.22719872;stroke-linejoin:round;stroke-miterlimit:4;stroke-dasharray:none"
       d="m 26.069966,31.975539 c -0.07458,-0.02543 -0.562522,-0.335197 -1.084324,-0.688367 -2.843149,-1.92432 -4.897386,-5.06036 -5.471579,-8.353026 -0.162648,-0.932691 -0.184635,-3.443391 -0.03925,-4.482368 0.514495,-3.676871 3.234789,-7.443849 6.648073,-9.206043 1.544463,-0.797368 2.837925,-1.1661686 4.713646,-1.3439869 3.088457,-0.2927857 6.16804,0.5722449 8.624426,2.4225329 2.49546,1.879721 4.274162,4.668453 4.9122,7.701579 0.1868,0.88802 0.191936,4.258287 0.0078,5.13305 -0.45592,2.166171 -1.511037,4.237991 -3.052877,5.994611 -0.791628,0.901903 -2.320037,2.259887 -2.543501,2.259887 -0.102572,0 -0.06582,-1.109187 0.161724,-4.881356 0.31985,-5.302283 0.363612,-6.418079 0.251724,-6.418079 -0.131718,0 -1.92554,0.815192 -3.203464,1.455795 l -1.063077,0.532905 H 32.427774 29.92406 l -1.633269,-0.490858 c -1.645431,-0.494514 -2.996254,-0.865074 -3.1535,-0.865074 -0.112655,0 -0.06678,0.442359 0.622351,6.001834 0.319822,2.580105 0.581495,4.804823 0.581495,4.943818 0,0.280448 -0.06872,0.352193 -0.271186,0.283146 z"
       id="path10466"
       inkscape:connector-curvature="0"
       transform="matrix(0.26458333,0,0,0.26458333,0,280.06665)" />
  </g>
</svg>
