<?xml version="1.0" encoding="UTF-8" standalone="no"?>
<!-- Created with Inkscape (http://www.inkscape.org/) -->

<svg
   xmlns:dc="http://purl.org/dc/elements/1.1/"
   xmlns:cc="http://creativecommons.org/ns#"
   xmlns:rdf="http://www.w3.org/1999/02/22-rdf-syntax-ns#"
   xmlns:svg="http://www.w3.org/2000/svg"
   xmlns="http://www.w3.org/2000/svg"
   xmlns:sodipodi="http://sodipodi.sourceforge.net/DTD/sodipodi-0.dtd"
   xmlns:inkscape="http://www.inkscape.org/namespaces/inkscape"
   width="64"
   height="64"
   viewBox="0 0 16.933333 16.933334"
   version="1.1"
   id="svg3719"
   sodipodi:docname="generic_light_1_off.svg"
   inkscape:export-filename="C:\Users\Konrad\OneDrive\JRMI Icons\motor_sound_off.png"
   inkscape:export-xdpi="96"
   inkscape:export-ydpi="96"
   inkscape:version="0.92.3 (2405546, 2018-03-11)">
  <defs
     id="defs3713" />
  <sodipodi:namedview
     id="base"
     pagecolor="#ffffff"
     bordercolor="#666666"
     borderopacity="1.0"
     inkscape:pageopacity="0.0"
     inkscape:pageshadow="2"
     inkscape:zoom="11.0625"
     inkscape:cx="21.039369"
     inkscape:cy="32.146245"
     inkscape:document-units="mm"
     inkscape:current-layer="layer1"
     showgrid="false"
     units="px"
     inkscape:pagecheckerboard="true"
     inkscape:window-width="1600"
     inkscape:window-height="877"
     inkscape:window-x="-8"
     inkscape:window-y="-8"
     inkscape:window-maximized="1"
     inkscape:measure-start="0,0"
     inkscape:measure-end="0,0" />
  <metadata
     id="metadata3716">
    <rdf:RDF>
      <cc:Work
         rdf:about="">
        <dc:format>image/svg+xml</dc:format>
        <dc:type
           rdf:resource="http://purl.org/dc/dcmitype/StillImage" />
        <dc:title></dc:title>
      </cc:Work>
    </rdf:RDF>
  </metadata>
  <g
     inkscape:label="Layer 1"
     inkscape:groupmode="layer"
     id="layer1"
     transform="translate(0,-280.06665)">
    <ellipse
       style="fill:#ffff00;stroke:#000000;stroke-width:0.26499999;stroke-linejoin:round;stroke-miterlimit:4;stroke-dasharray:none"
       id="path10408"
       cx="8.4547081"
       cy="285.51978"
       rx="3.5038607"
       ry="3.5397365" />
    <path
       style="fill:#666666;stroke:#000000;stroke-width:0.26648775px;stroke-linecap:butt;stroke-linejoin:miter;stroke-opacity:1"
       d="m 7.1761179,288.77606 v 4.51581 c 1.175604,0.88237 2.1298205,0.6578 2.9876901,-0.0485 l -0.09561,-4.6372 c -0.9084959,0.50088 -1.8564566,0.68603 -2.8920801,0.16989 z"
       id="path10410"
       inkscape:connector-curvature="0"
       sodipodi:nodetypes="ccccc" />
    <path
       style="fill:none;stroke:#000000;stroke-width:0.26458332px;stroke-linecap:butt;stroke-linejoin:miter;stroke-opacity:1"
       d="m 7.2708097,290.23143 c 1.0108106,-0.002 1.9309763,-0.25298 2.7504703,-0.76535"
       id="path10412"
       inkscape:connector-curvature="0"
       sodipodi:nodetypes="cc" />
    <path
       style="fill:none;stroke:#000000;stroke-width:0.26458332px;stroke-linecap:butt;stroke-linejoin:miter;stroke-opacity:1"
       d="m 7.2468927,291.57079 c 1.0219387,-0.0833 1.9511165,-0.44483 2.8461393,-0.90885"
       id="path10414"
       inkscape:connector-curvature="0"
       sodipodi:nodetypes="cc" />
    <path
       style="fill:none;stroke:#000000;stroke-width:0.26458332px;stroke-linecap:butt;stroke-linejoin:miter;stroke-opacity:1"
       d="m 7.1751411,292.79057 c 1.0485439,-0.1324 2.0590512,-0.36624 2.9178909,-1.00452"
       id="path10416"
       inkscape:connector-curvature="0"
       sodipodi:nodetypes="cc" />
    <path
       style="fill:#4d4d4d;stroke:#000000;stroke-width:0.26458332px;stroke-linecap:butt;stroke-linejoin:miter;stroke-opacity:1"
       d="m 8.2274951,293.93859 0.023918,0.40659 h 0.9327681 v -0.50226 z"
       id="path10418"
       inkscape:connector-curvature="0" />
    <path
       style="fill:none;stroke:#000000;stroke-width:0.26458332px;stroke-linecap:butt;stroke-linejoin:miter;stroke-opacity:1"
       d="m 7.1761177,288.77606 -0.4075679,-3.06497 1.1719396,0.35876 h 1.3154427 l 1.0045199,-0.50226 -0.192254,3.03858"
       id="path10420"
       inkscape:connector-curvature="0" />
    <text
       xml:space="preserve"
       style="font-style:normal;font-weight:normal;font-size:10.58333302px;line-height:1.25;font-family:sans-serif;letter-spacing:0px;word-spacing:0px;fill:#000000;fill-opacity:1;stroke:none;stroke-width:0.26458332"
       x="13.250093"
       y="285.08926"
       id="text10424"><tspan
         sodipodi:role="line"
         id="tspan10422"
         x="13.250093"
         y="285.08926"
         style="font-size:6.3499999px;stroke-width:0.26458332">1</tspan></text>
    <path
       style="fill:#b3b3b3;stroke:#000000;stroke-width:0.09053783;stroke-linejoin:round;stroke-miterlimit:4;stroke-dasharray:none"
       d="m 25.845098,31.847125 c -3.340931,-1.850475 -5.663456,-5.102227 -6.380635,-8.933483 -0.231847,-1.238557 -0.231847,-3.371612 0,-4.610169 0.972815,-5.196896 4.805828,-9.1387977 9.999765,-10.2838393 1.154736,-0.2545701 3.636151,-0.2741169 4.815358,-0.037932 5.084295,1.01834 9.013436,4.9065503 10.110739,10.0054123 0.294399,1.367994 0.294779,3.873222 8.13e-4,5.238995 -0.377009,1.751478 -1.136861,3.481212 -2.163139,4.924188 -0.659677,0.927525 -1.958929,2.236384 -2.823261,2.844138 l -0.674953,0.474591 -0.02112,-0.435884 c -0.01162,-0.239736 0.133806,-2.815545 0.32316,-5.72402 0.189354,-2.908474 0.329058,-5.307088 0.310454,-5.330251 -0.01861,-0.02317 -1.028649,0.454801 -2.244544,1.062146 l -2.210738,1.104264 H 32.48428 30.081563 L 27.5497,21.370358 c -1.392524,-0.426207 -2.548173,-0.758611 -2.568109,-0.738674 -0.01994,0.01994 0.307985,2.614048 0.728713,5.764695 0.420729,3.150646 0.754632,5.738777 0.742007,5.751402 -0.01262,0.01262 -0.28587,-0.122671 -0.607213,-0.300656 z"
       id="path10440"
       inkscape:connector-curvature="0"
       transform="matrix(0.26458333,0,0,0.26458333,0,280.06665)" />
    <path
       style="fill:#b3b3b3;stroke:#000000;stroke-width:0.09053783;stroke-linejoin:round;stroke-miterlimit:4;stroke-dasharray:none"
       d="m 30.639369,33.389453 c -0.825645,-0.102112 -1.821151,-0.344812 -2.39548,-0.584007 L 27.61112,32.541913 26.9237,27.366196 c -0.378081,-2.846645 -0.673561,-5.192102 -0.656622,-5.212128 0.01694,-0.02003 0.855092,0.21434 1.862561,0.520812 l 1.831764,0.557221 2.592139,-0.001 2.592138,-10e-4 1.454253,-0.737036 c 0.799839,-0.40537 1.480261,-0.711027 1.51205,-0.679239 0.03179,0.03179 -0.08505,2.320219 -0.259631,5.085403 -0.248298,3.932683 -0.344812,5.044941 -0.443172,5.107202 -0.417553,0.26431 -2.154189,0.949724 -2.882805,1.137783 -0.678196,0.175045 -1.143854,0.22825 -2.21469,0.253047 -0.745762,0.01727 -1.498305,0.01379 -1.672316,-0.0077 z"
       id="path10442"
       inkscape:connector-curvature="0"
       transform="matrix(0.26458333,0,0,0.26458333,0,280.06665)" />
  </g>
</svg>
