<?xml version="1.0" encoding="UTF-8" standalone="no"?>
<!-- Created with Inkscape (http://www.inkscape.org/) -->

<svg
   xmlns:dc="http://purl.org/dc/elements/1.1/"
   xmlns:cc="http://creativecommons.org/ns#"
   xmlns:rdf="http://www.w3.org/1999/02/22-rdf-syntax-ns#"
   xmlns:svg="http://www.w3.org/2000/svg"
   xmlns="http://www.w3.org/2000/svg"
   xmlns:sodipodi="http://sodipodi.sourceforge.net/DTD/sodipodi-0.dtd"
   xmlns:inkscape="http://www.inkscape.org/namespaces/inkscape"
   width="64"
   height="64"
   viewBox="0 0 16.933333 16.933334"
   version="1.1"
   id="svg3719"
   sodipodi:docname="grates_sound_off.svg"
   inkscape:export-filename="C:\Users\Konrad\JRMI Icons\grates_sound_off.png"
   inkscape:export-xdpi="96"
   inkscape:export-ydpi="96"
   inkscape:version="0.92.3 (2405546, 2018-03-11)">
  <defs
     id="defs3713" />
  <sodipodi:namedview
     id="base"
     pagecolor="#ffffff"
     bordercolor="#666666"
     borderopacity="1.0"
     inkscape:pageopacity="0.0"
     inkscape:pageshadow="2"
     inkscape:zoom="11.0625"
     inkscape:cx="18.071977"
     inkscape:cy="41.50592"
     inkscape:document-units="mm"
     inkscape:current-layer="layer1"
     showgrid="false"
     units="px"
     inkscape:pagecheckerboard="true"
     inkscape:window-width="1600"
     inkscape:window-height="877"
     inkscape:window-x="-8"
     inkscape:window-y="-8"
     inkscape:window-maximized="1"
     inkscape:measure-start="0,0"
     inkscape:measure-end="0,0" />
  <metadata
     id="metadata3716">
    <rdf:RDF>
      <cc:Work
         rdf:about="">
        <dc:format>image/svg+xml</dc:format>
        <dc:type
           rdf:resource="http://purl.org/dc/dcmitype/StillImage" />
        <dc:title></dc:title>
      </cc:Work>
    </rdf:RDF>
  </metadata>
  <g
     inkscape:label="Layer 1"
     inkscape:groupmode="layer"
     id="layer1"
     transform="translate(0,-280.06665)">
    <rect
       style="fill:#b3b3b3;stroke:#000000;stroke-width:0.79196686;stroke-linejoin:round;stroke-miterlimit:4;stroke-dasharray:none"
       id="rect7849"
       width="12.460829"
       height="9.5031881"
       x="2.1764598"
       y="286.24399" />
    <path
       style="fill:none;stroke:#000000;stroke-width:0.51261526;stroke-linecap:butt;stroke-linejoin:miter;stroke-miterlimit:4;stroke-dasharray:none;stroke-opacity:1"
       d="m 4.7355931,286.37583 0.023918,9.39103"
       id="path7851"
       inkscape:connector-curvature="0" />
    <path
       style="fill:none;stroke:#000000;stroke-width:0.51261532;stroke-linecap:butt;stroke-linejoin:miter;stroke-miterlimit:4;stroke-dasharray:none;stroke-opacity:1"
       d="m 6.0390766,286.3463 0.023918,9.39104"
       id="path7851-1"
       inkscape:connector-curvature="0" />
    <path
       style="fill:none;stroke:#000000;stroke-width:0.51261532;stroke-linecap:butt;stroke-linejoin:miter;stroke-miterlimit:4;stroke-dasharray:none;stroke-opacity:1"
       d="m 7.330602,286.42504 0.023918,9.39104"
       id="path7851-3"
       inkscape:connector-curvature="0" />
    <path
       style="fill:none;stroke:#000000;stroke-width:0.51261532;stroke-linecap:butt;stroke-linejoin:miter;stroke-miterlimit:4;stroke-dasharray:none;stroke-opacity:1"
       d="m 8.6938789,286.34629 0.023918,9.39104"
       id="path7851-8"
       inkscape:connector-curvature="0" />
    <path
       style="fill:none;stroke:#000000;stroke-width:0.51261532;stroke-linecap:butt;stroke-linejoin:miter;stroke-miterlimit:4;stroke-dasharray:none;stroke-opacity:1"
       d="m 3.4560257,286.38567 0.023918,9.39104"
       id="path7851-35"
       inkscape:connector-curvature="0" />
    <path
       style="fill:none;stroke:#000000;stroke-width:0.51261532;stroke-linecap:butt;stroke-linejoin:miter;stroke-miterlimit:4;stroke-dasharray:none;stroke-opacity:1"
       d="m 10.009321,286.3463 0.02392,9.39104"
       id="path7851-2"
       inkscape:connector-curvature="0" />
    <path
       style="fill:none;stroke:#000000;stroke-width:0.51261532;stroke-linecap:butt;stroke-linejoin:miter;stroke-miterlimit:4;stroke-dasharray:none;stroke-opacity:1"
       d="m 11.157344,286.36598 0.02392,9.39104"
       id="path7851-6"
       inkscape:connector-curvature="0" />
    <path
       style="fill:none;stroke:#000000;stroke-width:0.51261532;stroke-linecap:butt;stroke-linejoin:miter;stroke-miterlimit:4;stroke-dasharray:none;stroke-opacity:1"
       d="m 12.305367,286.34629 0.02392,9.39104"
       id="path7851-5"
       inkscape:connector-curvature="0" />
    <path
       style="fill:none;stroke:#000000;stroke-width:0.51261532;stroke-linecap:butt;stroke-linejoin:miter;stroke-miterlimit:4;stroke-dasharray:none;stroke-opacity:1"
       d="m 13.405555,286.3463 0.02392,9.39104"
       id="path7851-87"
       inkscape:connector-curvature="0" />
    <path
       style="fill:#333333;stroke-width:0.09039548"
       d="M 7.5067048,60.489669 C 7.3389536,60.376622 7.1092092,60.146877 6.9961617,59.979126 L 6.7906208,59.674123 V 41.305379 22.936635 L 6.9961617,22.631633 C 7.1092092,22.463882 7.3389536,22.234137 7.5067048,22.12109 L 7.811707,21.915549 h 23.973264 23.973264 l 0.298842,0.20339 c 0.164362,0.111864 0.383937,0.318237 0.487944,0.458606 l 0.189103,0.255216 v 18.472618 18.472619 l -0.189103,0.255216 c -0.104007,0.140369 -0.323582,0.346742 -0.487944,0.458606 l -0.298842,0.20339 H 31.784971 7.811707 Z M 12.21435,51.083064 c 0,-3.69572 -0.02706,-11.119449 -0.06013,-16.497176 L 12.0941,24.808204 H 10.888688 9.6832761 v 16.497175 16.497176 h 1.2655369 1.265537 z m 4.850706,5.024575 c -0.03258,-0.932203 -0.05935,-8.355932 -0.05949,-16.497175 l -2.56e-4,-14.80226 h -1.491525 -1.491526 v 13.770587 c 0,7.573821 0.0269,14.99755 0.05978,16.497175 l 0.05977,2.726589 h 1.491241 1.491241 z m 4.912005,-5.16017 c 0,-3.770297 -0.02706,-11.194025 -0.06012,-16.497175 l -0.06012,-9.64209 h -1.536708 -1.536708 l 0.06011,8.692927 c 0.03306,4.78111 0.06011,12.204839 0.06011,16.497175 v 7.804249 h 1.536723 1.536723 z m 4.88131,0.188419 c -2.5e-5,-3.666667 -0.02708,-11.090396 -0.06013,-16.497175 l -0.06008,-9.830509 H 25.261569 23.784971 V 38.44318 c 0,7.499237 0.02691,14.922966 0.0598,16.497175 l 0.0598,2.8622 h 1.476927 1.476925 z m 5.152589,-0.188419 c 0,-3.770297 -0.02706,-11.194025 -0.06012,-16.497175 l -0.06012,-9.64209 h -1.6122 -1.612193 v 13.906198 c 0,7.648408 0.02689,15.072137 0.05975,16.497175 l 0.05975,2.590978 h 1.612567 1.612567 z m 4.971751,0 c 0,-3.770297 -0.02706,-11.194025 -0.06012,-16.497175 l -0.06012,-9.64209 H 35.340667 33.818869 V 38.44318 c 0,7.499237 0.02691,14.922966 0.0598,16.497175 l 0.0598,2.8622 h 1.522125 1.522123 z m 4.338937,0.05283 c -2.6e-5,-3.741243 -0.02708,-11.164972 -0.06013,-16.497175 l -0.06008,-9.694916 H 39.996034 38.790621 V 38.44318 c 0,7.499237 0.02691,14.922966 0.0598,16.497175 l 0.0598,2.8622 h 1.20574 1.205739 z m 4.339029,-0.05283 c 0,-3.770297 -0.02705,-11.194025 -0.06012,-16.497175 l -0.06012,-9.64209 h -1.205412 -1.205414 l 1.81e-4,13.717514 c 8.6e-5,7.544633 0.02699,14.968362 0.05978,16.497176 l 0.05963,2.779661 h 1.205752 1.205752 v -6.855086 z m 4.158192,0 c 0,-3.770297 -0.02705,-11.194025 -0.06012,-16.497175 l -0.06012,-9.64209 H 48.583605 47.468587 V 38.44318 c 0,7.499237 0.02691,14.922966 0.0598,16.497175 l 0.0598,2.8622 h 1.115345 1.115343 z m 4.067797,-9.64209 V 24.808204 H 52.756722 51.626779 V 38.44318 c 0,7.499237 0.02691,14.922966 0.0598,16.497175 l 0.0598,2.8622 h 1.070147 1.070146 z"
       id="path595"
       inkscape:connector-curvature="0"
       transform="matrix(0.26458333,0,0,0.26458333,0,280.06665)" />
  </g>
</svg>
