<?xml version="1.0" encoding="UTF-8" standalone="no"?>
<!-- Created with Inkscape (http://www.inkscape.org/) -->

<svg
   xmlns:dc="http://purl.org/dc/elements/1.1/"
   xmlns:cc="http://creativecommons.org/ns#"
   xmlns:rdf="http://www.w3.org/1999/02/22-rdf-syntax-ns#"
   xmlns:svg="http://www.w3.org/2000/svg"
   xmlns="http://www.w3.org/2000/svg"
   xmlns:sodipodi="http://sodipodi.sourceforge.net/DTD/sodipodi-0.dtd"
   xmlns:inkscape="http://www.inkscape.org/namespaces/inkscape"
   width="64"
   height="64"
   viewBox="0 0 16.933333 16.933334"
   version="1.1"
   id="svg3719"
   sodipodi:docname="off_button_on.svg"
   inkscape:export-filename="C:\Users\Konrad\JRMI Icons\off_button_on.png"
   inkscape:export-xdpi="96"
   inkscape:export-ydpi="96"
   inkscape:version="0.92.3 (2405546, 2018-03-11)">
  <defs
     id="defs3713" />
  <sodipodi:namedview
     id="base"
     pagecolor="#ffffff"
     bordercolor="#666666"
     borderopacity="1.0"
     inkscape:pageopacity="0.0"
     inkscape:pageshadow="2"
     inkscape:zoom="11.0625"
     inkscape:cx="14.17461"
     inkscape:cy="32"
     inkscape:document-units="mm"
     inkscape:current-layer="layer1"
     showgrid="false"
     units="px"
     inkscape:pagecheckerboard="true"
     inkscape:window-width="1600"
     inkscape:window-height="877"
     inkscape:window-x="-8"
     inkscape:window-y="-8"
     inkscape:window-maximized="1"
     inkscape:measure-start="0,0"
     inkscape:measure-end="0,0" />
  <metadata
     id="metadata3716">
    <rdf:RDF>
      <cc:Work
         rdf:about="">
        <dc:format>image/svg+xml</dc:format>
        <dc:type
           rdf:resource="http://purl.org/dc/dcmitype/StillImage" />
        <dc:title></dc:title>
      </cc:Work>
    </rdf:RDF>
  </metadata>
  <g
     inkscape:label="Layer 1"
     inkscape:groupmode="layer"
     id="layer1"
     transform="translate(0,-280.06665)">
    <ellipse
       style="fill:none;stroke:#000000;stroke-width:0.56499994;stroke-linejoin:round;stroke-miterlimit:4;stroke-dasharray:none"
       id="path7962"
       cx="8.4068737"
       cy="288.54526"
       rx="5.6803203"
       ry="5.8716574" />
    <text
       xml:space="preserve"
       style="font-style:normal;font-weight:normal;font-size:6.3499999px;line-height:1.25;font-family:sans-serif;letter-spacing:0px;word-spacing:0px;fill:#000000;fill-opacity:1;stroke:none;stroke-width:0.26458332"
       x="3.4201503"
       y="290.30319"
       id="text8091"><tspan
         sodipodi:role="line"
         id="tspan8089"
         x="3.4201503"
         y="290.30319"
         style="font-size:4.93888903px;stroke-width:0.26458332">OFF</tspan></text>
    <path
       style="fill:#ffff00;stroke-width:0.09039548"
       d="m 19.355024,37.289799 c -1.559781,-0.306323 -2.749035,-1.531309 -3.239914,-3.337257 -0.226657,-0.833873 -0.221657,-3.323226 0.0083,-4.150963 0.596676,-2.147406 2.095458,-3.351861 4.170937,-3.351861 2.103684,0 3.520694,1.171852 4.13104,3.416328 0.272856,1.003392 0.27159,3.10621 -0.0025,4.114876 -0.490647,1.805766 -1.584445,2.94103 -3.154066,3.273633 -0.674686,0.142965 -1.306134,0.154594 -1.913859,0.03524 z"
       id="path535"
       inkscape:connector-curvature="0"
       transform="matrix(0.26458333,0,0,0.26458333,0,280.06665)" />
    <path
       style="fill:#ffff00;stroke-width:0.09039548"
       d="M 30.011898,53.055021 C 22.885755,52.324582 16.840217,48.088235 13.651946,41.59096 12.89958,40.057737 12.479952,38.939888 12.121506,37.514013 10.813263,32.309915 11.333,27.205773 13.648544,22.517514 c 1.048779,-2.123452 2.141455,-3.692785 3.705837,-5.322429 3.278392,-3.415159 7.531705,-5.544847 12.203168,-6.110279 0.985712,-0.119311 3.44841,-0.119311 4.434121,0 5.938892,0.718842 11.119439,3.93454 14.559135,9.037228 0.73259,1.086776 1.845051,3.28632 2.285487,4.518836 3.034155,8.490783 0.597249,17.903389 -6.124426,23.65574 -1.324938,1.13387 -2.631407,1.989093 -4.25929,2.788157 -2.144076,1.052444 -4.303953,1.680103 -6.663104,1.936293 -0.814778,0.08848 -3.049665,0.108573 -3.777574,0.03396 z M 22.186403,38.785756 c 0.967766,-0.26502 1.757217,-0.732843 2.515792,-1.490835 0.581242,-0.580797 0.769592,-0.8462 1.09797,-1.547142 0.644479,-1.375681 0.73161,-1.837581 0.730842,-3.874333 -6.32e-4,-1.568622 -0.02357,-1.842338 -0.208678,-2.485875 -0.630685,-2.192582 -1.896724,-3.600975 -3.813256,-4.242023 -1.022439,-0.341989 -2.681486,-0.426393 -3.762704,-0.191427 -2.429335,0.527932 -4.052676,2.243677 -4.604403,4.866495 -0.294278,1.398949 -0.25633,3.236808 0.09559,4.629387 0.196247,0.776571 0.870833,2.091001 1.354542,2.639322 0.797687,0.904239 2.082438,1.589954 3.437827,1.834885 0.646335,0.116799 2.525358,0.03438 3.156481,-0.138454 z m 9.091032,-3.29649 v -3.254238 h 2.937853 2.937853 v -0.858757 -0.858757 h -2.937853 -2.937853 v -1.898305 -1.898305 h 3.435028 3.435028 v -0.813559 -0.81356 H 33.76331 29.379129 v 6.824859 6.824859 h 0.949153 0.949153 z m 10.757062,0 v -3.254238 h 2.937853 2.937853 V 31.376271 30.517514 H 44.97235 42.034497 v -1.898305 -1.898305 h 3.435028 3.435028 v -0.813559 -0.81356 h -4.384181 -4.38418 v 6.824859 6.824859 h 0.949152 0.949153 z"
       id="path537"
       inkscape:connector-curvature="0"
       transform="matrix(0.26458333,0,0,0.26458333,0,280.06665)" />
  </g>
</svg>
