<?xml version="1.0" encoding="UTF-8" standalone="no"?>
<!-- Created with Inkscape (http://www.inkscape.org/) -->

<svg
   xmlns:dc="http://purl.org/dc/elements/1.1/"
   xmlns:cc="http://creativecommons.org/ns#"
   xmlns:rdf="http://www.w3.org/1999/02/22-rdf-syntax-ns#"
   xmlns:svg="http://www.w3.org/2000/svg"
   xmlns="http://www.w3.org/2000/svg"
   xmlns:sodipodi="http://sodipodi.sourceforge.net/DTD/sodipodi-0.dtd"
   xmlns:inkscape="http://www.inkscape.org/namespaces/inkscape"
   width="64"
   height="64"
   viewBox="0 0 16.933333 16.933334"
   version="1.1"
   id="svg3719"
   sodipodi:docname="passenger_car_rear_lights.svg"
   inkscape:export-filename="C:\Users\Konrad\OneDrive\JRMI Icons\passenger_car_rear_lights.png"
   inkscape:export-xdpi="96"
   inkscape:export-ydpi="96"
   inkscape:version="0.92.3 (2405546, 2018-03-11)">
  <defs
     id="defs3713" />
  <sodipodi:namedview
     id="base"
     pagecolor="#ffffff"
     bordercolor="#666666"
     borderopacity="1.0"
     inkscape:pageopacity="0.0"
     inkscape:pageshadow="2"
     inkscape:zoom="11.0625"
     inkscape:cx="15.322034"
     inkscape:cy="32"
     inkscape:document-units="mm"
     inkscape:current-layer="layer1"
     showgrid="false"
     units="px"
     inkscape:pagecheckerboard="true"
     inkscape:window-width="1600"
     inkscape:window-height="877"
     inkscape:window-x="-8"
     inkscape:window-y="-8"
     inkscape:window-maximized="1" />
  <metadata
     id="metadata3716">
    <rdf:RDF>
      <cc:Work
         rdf:about="">
        <dc:format>image/svg+xml</dc:format>
        <dc:type
           rdf:resource="http://purl.org/dc/dcmitype/StillImage" />
        <dc:title></dc:title>
      </cc:Work>
    </rdf:RDF>
  </metadata>
  <g
     inkscape:label="Layer 1"
     inkscape:groupmode="layer"
     id="layer1"
     transform="translate(0,-280.06665)">
    <ellipse
       id="path6067-4"
       cx="13.812147"
       cy="286.05786"
       rx="0.75879103"
       ry="0.74683261"
       style="fill:#ff0000;stroke:#000000;stroke-width:0.18202934" />
    <ellipse
       id="path6067-8"
       cx="3.3723161"
       cy="286.14163"
       rx="0.76945966"
       ry="0.75750124"
       style="fill:#ff0000;stroke:#000000;stroke-width:0.18460917"
       inkscape:export-xdpi="96"
       inkscape:export-ydpi="96" />
    <path
       style="fill:none;stroke:#000000;stroke-width:0.26458332px;stroke-linecap:butt;stroke-linejoin:miter;stroke-opacity:1"
       d="m 1.8894538,294.70394 -4e-7,-11.14539 13.5610176,0.0239 -0.02392,11.1693 z"
       id="path6938"
       inkscape:connector-curvature="0"
       sodipodi:nodetypes="ccccc" />
    <path
       style="fill:none;stroke:#000000;stroke-width:0.26458332px;stroke-linecap:butt;stroke-linejoin:miter;stroke-opacity:1"
       d="m 1.8894534,283.55855 13.5610176,0.0239"
       id="path7746"
       inkscape:connector-curvature="0" />
    <path
       style="fill:none;stroke:#000000;stroke-width:0.26458332px;stroke-linecap:butt;stroke-linejoin:miter;stroke-opacity:1"
       d="m 1.8894534,283.55855 c 4.7628602,-2.7637 9.2438836,-2.30641 13.5610176,0.0239"
       id="path7748"
       inkscape:connector-curvature="0"
       sodipodi:nodetypes="cc" />
    <rect
       style="fill:#008000;stroke:#000000;stroke-width:0.26458332"
       id="rect7750"
       width="3.7310734"
       height="8.801507"
       x="6.7685494"
       y="285.04141" />
    <rect
       style="fill:#008000;stroke:#000000;stroke-width:0.26458332"
       id="rect7752"
       width="1.3154424"
       height="2.3438795"
       x="7.9883242"
       y="286.33295" />
    <path
       style="fill:#668000;stroke:#000000;stroke-width:0.09039548"
       d="M 21.893785,54.830891 C 14.088136,54.801017 7.6915254,54.769134 7.679096,54.760039 7.6666667,54.750944 7.6564972,45.502992 7.6564972,34.209035 V 13.674568 l 3.5932208,0.05977 c 1.976271,0.03287 13.264406,0.05982 25.084745,0.05989 l 21.491526,1.23e-4 v 14.855151 c 0,8.170334 -0.02701,17.424572 -0.06003,20.564972 L 57.705929,54.924295 46.8959,54.904755 C 40.950389,54.894 29.699435,54.860764 21.893785,54.830891 Z M 40.19887,35.398354 V 18.222696 l -7.570621,0.02312 -7.570622,0.02312 -0.02283,17.152542 -0.02283,17.152542 h 7.593454 7.593454 z m -26.101626,-9.46891 c 0.624235,-0.280228 1.356175,-1.011484 1.635556,-1.634028 0.323816,-0.721558 0.386655,-1.373432 0.20191,-2.094561 -0.338675,-1.321978 -1.3167,-2.214869 -2.663653,-2.431789 -1.90123,-0.306184 -3.6669977,1.060652 -3.7870594,2.931467 -0.094956,1.479622 0.6512754,2.682116 2.0227194,3.259453 0.463473,0.195108 0.641358,0.220653 1.34752,0.193512 0.583209,-0.02242 0.935153,-0.08585 1.243007,-0.224054 z m 39.315494,-0.327908 c 1.035154,-0.42576 1.671688,-1.167185 1.941809,-2.261794 0.436608,-1.769255 -0.776735,-3.547889 -2.625556,-3.848792 -1.054358,-0.171602 -2.161344,0.209124 -2.898054,0.996728 -0.651308,0.6963 -0.818359,1.138285 -0.81844,2.165429 -6e-5,0.764193 0.028,0.913505 0.254787,1.355933 0.419997,0.819339 1.116343,1.43112 1.914637,1.682124 0.614819,0.193315 1.643366,0.151991 2.230817,-0.08963 z"
       id="path7754"
       inkscape:connector-curvature="0"
       transform="matrix(0.26458333,0,0,0.26458333,0,280.06665)" />
    <path
       style="fill:#808080;stroke:#000000;stroke-width:0.09039548"
       d="M 10.874189,12.622533 9.3461174,12.574011 11.235771,11.653158 C 15.651465,9.5013307 19.521383,8.1831891 23.913482,7.3349736 28.639076,6.4223522 34.000273,6.3230938 38.933333,7.0568928 c 5.16239,0.7679121 10.973991,2.6345486 16.316385,5.2406842 l 0.813559,0.396872 -21.830509,-0.0117 c -12.006779,-0.0064 -22.51814,-0.03353 -23.358579,-0.06022 z"
       id="path7756"
       inkscape:connector-curvature="0"
       transform="matrix(0.26458333,0,0,0.26458333,0,280.06665)" />
    <path
       style="fill:#ffff00;stroke:#000000;stroke-width:0.09039548"
       d="m 30.707345,28.122034 v -3.932203 h 1.943502 1.943503 v 3.932203 3.932203 h -1.943503 -1.943502 z"
       id="path7758"
       inkscape:connector-curvature="0"
       transform="matrix(0.26458333,0,0,0.26458333,0,280.06665)" />
    <rect
       style="fill:#000000;stroke:#000000;stroke-width:0.26458332"
       id="rect7760"
       width="0.85371935"
       height="9.0071964"
       x="5.76403"
       y="284.96967" />
    <rect
       style="fill:#000000;stroke:#000000;stroke-width:0.26458332"
       id="rect7762"
       width="4.9747643"
       height="0.81318265"
       x="6.2184558"
       y="284.15649" />
    <rect
       style="fill:#000000;stroke:#000000;stroke-width:0.26458332"
       id="rect7764"
       width="0.91602653"
       height="9.1222696"
       x="10.63595"
       y="284.88806" />
  </g>
</svg>
