<?xml version="1.0" encoding="UTF-8" standalone="no"?>
<!-- Created with Inkscape (http://www.inkscape.org/) -->

<svg
   xmlns:dc="http://purl.org/dc/elements/1.1/"
   xmlns:cc="http://creativecommons.org/ns#"
   xmlns:rdf="http://www.w3.org/1999/02/22-rdf-syntax-ns#"
   xmlns:svg="http://www.w3.org/2000/svg"
   xmlns="http://www.w3.org/2000/svg"
   xmlns:sodipodi="http://sodipodi.sourceforge.net/DTD/sodipodi-0.dtd"
   xmlns:inkscape="http://www.inkscape.org/namespaces/inkscape"
   width="64"
   height="64"
   viewBox="0 0 16.933333 16.933334"
   version="1.1"
   id="svg3719"
   sodipodi:docname="side_lights_on.svg"
   inkscape:export-filename="C:\Users\Konrad\JRMI Icons\transparent_background\side_lights_on.png"
   inkscape:export-xdpi="96"
   inkscape:export-ydpi="96"
   inkscape:version="0.92.3 (2405546, 2018-03-11)">
  <defs
     id="defs3713" />
  <sodipodi:namedview
     id="base"
     pagecolor="#ffffff"
     bordercolor="#666666"
     borderopacity="1.0"
     inkscape:pageopacity="0.0"
     inkscape:pageshadow="2"
     inkscape:zoom="11.0625"
     inkscape:cx="29.98345"
     inkscape:cy="29.513836"
     inkscape:document-units="mm"
     inkscape:current-layer="layer1"
     showgrid="false"
     units="px"
     inkscape:pagecheckerboard="true"
     inkscape:window-width="1600"
     inkscape:window-height="877"
     inkscape:window-x="-8"
     inkscape:window-y="-8"
     inkscape:window-maximized="1"
     inkscape:measure-start="0,0"
     inkscape:measure-end="0,0" />
  <metadata
     id="metadata3716">
    <rdf:RDF>
      <cc:Work
         rdf:about="">
        <dc:format>image/svg+xml</dc:format>
        <dc:type
           rdf:resource="http://purl.org/dc/dcmitype/StillImage" />
        <dc:title />
      </cc:Work>
    </rdf:RDF>
  </metadata>
  <g
     inkscape:label="Layer 1"
     inkscape:groupmode="layer"
     id="layer1"
     transform="translate(0,-280.06665)">
    <path
       style="fill:none;stroke:#000000;stroke-width:0.26458332px;stroke-linecap:butt;stroke-linejoin:miter;stroke-opacity:1"
       d="m 4.4485874,284.70658 c -0.6311165,1.6412 -1.775085,2.84648 0.023918,6.55329 l 1.6024482,-0.66968 c 0.4491383,-1.64545 0.5683711,-3.394 0,-5.35743 z"
       id="path8964"
       inkscape:connector-curvature="0"
       sodipodi:nodetypes="ccccc" />
    <path
       style="fill:#000000;stroke:#000000;stroke-width:0.26458332px;stroke-linecap:butt;stroke-linejoin:miter;stroke-opacity:1"
       d="m 4.4485874,284.70658 0.023918,6.55329"
       id="path8966"
       inkscape:connector-curvature="0" />
    <path
       style="fill:#000000;stroke:none;stroke-width:0.05107344;stroke-linejoin:round;stroke-miterlimit:4;stroke-dasharray:none"
       d="m 4.6039502,287.9802 c -0.00939,-1.68369 -0.013793,-3.06417 -0.00978,-3.06774 0.014454,-0.0129 1.3470212,0.42689 1.361981,0.44946 0.025133,0.0379 0.1582074,0.60611 0.2111981,0.90174 0.1722179,0.96077 0.1879738,1.96498 0.046344,2.95376 -0.043503,0.30372 -0.1772653,0.97367 -0.2364809,1.18443 -0.025987,0.0925 0.065502,0.0479 -1.0550437,0.51426 l -0.3011416,0.12533 z"
       id="path8968"
       inkscape:connector-curvature="0" />
    <path
       style="fill:#999999;stroke:none;stroke-width:0.05107344;stroke-linejoin:round;stroke-miterlimit:4;stroke-dasharray:none"
       d="m 4.1976643,290.28174 c -0.2290678,-0.58636 -0.3801577,-1.09822 -0.4722936,-1.60003 -0.061744,-0.33628 -0.08545,-1.03928 -0.045756,-1.35686 0.060244,-0.482 0.2498754,-1.08746 0.5368608,-1.71412 l 0.078868,-0.17221 0.017158,1.78182 c 0.00944,0.98001 0.013737,2.137 0.00956,2.57109 l -0.0076,0.78927 z"
       id="path8970"
       inkscape:connector-curvature="0" />
    <path
       style="fill:none;stroke:#000000;stroke-width:0.26458332px;stroke-linecap:butt;stroke-linejoin:miter;stroke-opacity:1"
       d="m 12.563105,284.70366 c 0.631117,1.6412 1.775085,2.84648 -0.02392,6.55329 l -1.602446,-0.66968 c -0.449138,-1.64545 -0.568371,-3.394 0,-5.35743 z"
       id="path8964-3"
       inkscape:connector-curvature="0"
       sodipodi:nodetypes="ccccc" />
    <path
       style="fill:#000000;stroke:#000000;stroke-width:0.26458332px;stroke-linecap:butt;stroke-linejoin:miter;stroke-opacity:1"
       d="m 12.563105,284.70366 -0.02392,6.55329"
       id="path8966-1"
       inkscape:connector-curvature="0" />
    <path
       style="fill:#000000;stroke:none;stroke-width:0.05107344;stroke-linejoin:round;stroke-miterlimit:4;stroke-dasharray:none"
       d="m 12.407743,287.97727 c 0.0094,-1.68368 0.01379,-3.06416 0.0098,-3.06773 -0.01445,-0.0129 -1.347022,0.42689 -1.361981,0.44946 -0.02513,0.0379 -0.158208,0.60611 -0.211198,0.90173 -0.172218,0.96078 -0.187974,1.96499 -0.04634,2.95377 0.0435,0.30371 0.177265,0.97367 0.23648,1.18443 0.02599,0.0925 -0.0655,0.0479 1.055044,0.51425 l 0.301142,0.12533 z"
       id="path8968-8"
       inkscape:connector-curvature="0" />
    <path
       style="fill:#999999;stroke:none;stroke-width:0.05107344;stroke-linejoin:round;stroke-miterlimit:4;stroke-dasharray:none"
       d="m 12.814029,290.27881 c 0.229067,-0.58636 0.380157,-1.09821 0.472293,-1.60002 0.06174,-0.33629 0.08545,-1.03928 0.04576,-1.35686 -0.06024,-0.482 -0.249875,-1.08747 -0.536861,-1.71412 l -0.07887,-0.17222 -0.01716,1.78183 c -0.0094,0.98 -0.01374,2.13699 -0.0096,2.57109 l 0.0076,0.78927 z"
       id="path8970-1"
       inkscape:connector-curvature="0" />
    <path
       style="fill:#ffff00;stroke:none;stroke-width:0.19303349;stroke-linejoin:round;stroke-miterlimit:4;stroke-dasharray:none"
       d="m 15.9086,38.618406 c -0.16919,-0.453072 -0.344472,-0.823768 -0.389516,-0.823768 -0.04504,0 -0.06023,-0.03506 -0.03374,-0.07792 0.05992,-0.09695 -0.579221,-2.035079 -0.684834,-2.076696 -0.04232,-0.01668 -0.05668,-0.0631 -0.03192,-0.103163 0.05368,-0.08685 -0.415757,-1.934213 -0.500943,-1.971366 -0.03248,-0.01416 -0.03988,-0.126028 -0.01645,-0.248588 0.02343,-0.122559 0.0073,-0.223127 -0.03574,-0.223483 -0.04308,-3.62e-4 -0.08857,-0.209831 -0.101086,-0.465498 -0.01251,-0.255667 -0.05499,-0.509612 -0.09438,-0.564323 -0.0394,-0.05471 -0.08378,-1.096084 -0.09862,-2.314164 -0.02539,-2.082985 -0.01314,-2.282652 0.205935,-3.357526 0.128109,-0.62856 0.414007,-1.68414 0.635328,-2.345732 0.221321,-0.661592 0.382281,-1.235451 0.357689,-1.275242 -0.02459,-0.03979 -0.01019,-0.07235 0.03201,-0.07235 0.07984,0 0.777634,-1.57764 0.777634,-1.758157 0,-0.05659 0.04992,-0.149523 0.11094,-0.206521 0.183951,-0.171837 0.233583,2.501622 0.203219,10.946638 l -0.02791,7.761621 z"
       id="path8996"
       inkscape:connector-curvature="0"
       transform="matrix(0.26458333,0,0,0.26458333,0,280.06665)" />
    <path
       style="fill:#ffff00;stroke:none;stroke-width:0.19303349;stroke-linejoin:round;stroke-miterlimit:4;stroke-dasharray:none"
       d="m 47.972787,34.550043 c -0.02322,-2.749057 -0.01108,-5.716519 0.02698,-6.594359 0.03806,-0.877841 0.07307,-2.918108 0.07778,-4.533927 0.0065,-2.239802 0.03293,-2.894896 0.111093,-2.757062 0.05639,0.09944 0.139979,0.205678 0.185763,0.236095 0.04578,0.03042 0.07977,0.08126 0.07552,0.112994 -0.02628,0.196372 0.0061,0.330793 0.105274,0.437567 0.06215,0.06688 0.125327,0.181651 0.140401,0.255044 0.01507,0.07339 0.18495,0.540221 0.377502,1.037396 0.369085,0.952986 0.996221,2.947978 0.996221,3.169092 0,0.07169 0.03051,0.130343 0.0678,0.130343 0.03729,0 0.07054,0.111864 0.07389,0.248587 0.0034,0.136723 0.05995,0.675707 0.125763,1.19774 0.08747,0.693768 0.100209,1.374795 0.04735,2.531074 -0.09473,2.072258 -0.103389,2.186846 -0.179245,2.372881 -0.03548,0.08701 -0.04299,0.214253 -0.0167,0.28277 0.02629,0.06852 0.01,0.162431 -0.03631,0.208695 -0.04626,0.04626 -0.09393,0.254401 -0.10593,0.462525 -0.012,0.208124 -0.04534,0.378618 -0.07408,0.378875 -0.07489,6.33e-4 -0.273789,0.906031 -0.218644,0.995258 0.02533,0.04098 0.0098,0.08816 -0.0344,0.104835 -0.102951,0.0388 -0.472465,1.343075 -0.40941,1.445101 0.02609,0.04221 0,0.07674 -0.05797,0.07674 -0.05797,0 -0.08199,0.06102 -0.05337,0.135594 0.02862,0.07458 0.0083,0.135593 -0.0452,0.135593 -0.05348,0 -0.07382,0.06102 -0.0452,0.135593 0.02862,0.07458 0.02141,0.135593 -0.01603,0.135593 -0.09566,0 -0.387587,0.815705 -0.327005,0.91373 0.02741,0.04434 0.01116,0.08062 -0.0361,0.08062 -0.07781,0 -0.22354,0.362696 -0.236082,0.58757 -0.0028,0.04972 -0.03242,0.111199 -0.06588,0.136626 -0.03346,0.02543 -0.139748,0.247126 -0.236197,0.492665 l -0.175361,0.446434 z"
       id="path8998"
       inkscape:connector-curvature="0"
       transform="matrix(0.26458333,0,0,0.26458333,0,280.06665)" />
    <path
       style="fill:#ffff00;stroke:#000000;stroke-width:0.26458332px;stroke-linecap:butt;stroke-linejoin:miter;stroke-opacity:1"
       d="m 0.69359697,284.58699 c 2.67871943,0.59793 2.67871943,0.59793 2.67871943,0.59793"
       id="path9000"
       inkscape:connector-curvature="0" />
    <path
       style="fill:#ffff00;stroke:#000000;stroke-width:0.26458332px;stroke-linecap:butt;stroke-linejoin:miter;stroke-opacity:1"
       d="m 0.57401129,286.18944 2.39171381,0.21525"
       id="path9002"
       inkscape:connector-curvature="0" />
    <path
       style="fill:#ffff00;stroke:#000000;stroke-width:0.26458332px;stroke-linecap:butt;stroke-linejoin:miter;stroke-opacity:1"
       d="m 0.64576271,287.64838 2.20037659,0.0239"
       id="path9004"
       inkscape:connector-curvature="0" />
    <path
       style="fill:#ffff00;stroke:#000000;stroke-width:0.26458332px;stroke-linecap:butt;stroke-linejoin:miter;stroke-opacity:1"
       d="M 0.64576271,289.22691 2.9657251,288.7964"
       id="path9006"
       inkscape:connector-curvature="0" />
    <path
       style="fill:#ffff00;stroke:#000000;stroke-width:0.26458332px;stroke-linecap:butt;stroke-linejoin:miter;stroke-opacity:1"
       d="M 0.66967983,290.78153 3.0374764,290.0401"
       id="path9008"
       inkscape:connector-curvature="0" />
    <path
       style="fill:#ffff00;stroke:#000000;stroke-width:0.26458332px;stroke-linecap:butt;stroke-linejoin:miter;stroke-opacity:1"
       d="m 0.95668548,292.04914 2.39171362,-0.8371"
       id="path9010"
       inkscape:connector-curvature="0" />
    <path
       style="fill:#ffff00;stroke:none;stroke-width:0.19303349;stroke-linejoin:round;stroke-miterlimit:4;stroke-dasharray:none"
       d="m 7.6510006,18.676286 c -2.7221693,-0.605328 -4.9755808,-1.126778 -5.007581,-1.158778 -0.032,-0.032 -0.020408,-0.23189 0.025759,-0.444198 0.066493,-0.305778 0.1209158,-0.382318 0.2618183,-0.368224 0.2990307,0.02991 9.5693731,2.105635 9.7187961,2.176137 0.117399,0.05539 0.124638,0.132409 0.0452,0.480809 l -0.09459,0.414851 z"
       id="path9012"
       inkscape:connector-curvature="0"
       transform="matrix(0.26458333,0,0,0.26458333,0,280.06665)" />
    <path
       style="fill:#ffff00;stroke:none;stroke-width:0.19303349;stroke-linejoin:round;stroke-miterlimit:4;stroke-dasharray:none"
       d="M 6.5891,24.003078 C 4.2772356,23.788011 2.3323703,23.60991 2.2671771,23.607298 c -0.089622,-0.0036 -0.1033332,-0.109478 -0.056214,-0.434129 0.034275,-0.236158 0.072774,-0.441656 0.085553,-0.456662 0.026789,-0.03146 8.1665349,0.682961 8.6089679,0.755602 0.247571,0.04065 0.293591,0.0867 0.292552,0.292727 -0.0021,0.405601 -0.101271,0.65194 -0.257897,0.640271 -0.08121,-0.006 -2.0391745,-0.186963 -4.351039,-0.402029 z"
       id="path9014"
       inkscape:connector-curvature="0"
       transform="matrix(0.26458333,0,0,0.26458333,0,280.06665)" />
    <path
       style="fill:#ffff00;stroke:none;stroke-width:0.19303349;stroke-linejoin:round;stroke-miterlimit:4;stroke-dasharray:none"
       d="m 4.7585916,29.139345 -2.2372882,-0.02583 v -0.450399 -0.450398 h 2.0644875 c 1.1354681,0 2.9863156,0.02683 4.1129944,0.05962 l 2.0485067,0.05962 v 0.437558 0.437558 L 8.8715859,29.186122 C 7.8399475,29.174602 5.9891,29.153552 4.7585916,29.139345 Z"
       id="path9016"
       inkscape:connector-curvature="0"
       transform="matrix(0.26458333,0,0,0.26458333,0,280.06665)" />
    <path
       style="fill:#ffff00;stroke:none;stroke-width:0.19303349;stroke-linejoin:round;stroke-miterlimit:4;stroke-dasharray:none"
       d="M 2.5051614,34.81331 C 2.4616977,34.078483 2.0004902,34.236482 6.76598,33.353658 c 2.3594309,-0.437093 4.301629,-0.782959 4.315995,-0.768593 0.01437,0.01437 0.05188,0.214036 0.08336,0.443709 0.05305,0.387051 0.04151,0.421195 -0.157803,0.466899 -0.118272,0.02712 -1.9845317,0.374977 -4.1472435,0.773014 -2.1627119,0.398037 -4.0237288,0.744815 -4.1355932,0.770618 -0.1741294,0.04016 -0.2057121,0.0077 -0.2195319,-0.225995 z"
       id="path9018"
       inkscape:connector-curvature="0"
       transform="matrix(0.26458333,0,0,0.26458333,0,280.06665)" />
    <path
       style="fill:#ffff00;stroke:none;stroke-width:0.19303349;stroke-linejoin:round;stroke-miterlimit:4;stroke-dasharray:none"
       d="m 2.6179122,40.658438 c -0.043839,-0.115305 -0.09368,-0.302252 -0.1107569,-0.415436 -0.029656,-0.19655 0.1671139,-0.267813 4.382784,-1.587274 2.7903429,-0.873349 4.4249357,-1.343965 4.4440157,-1.279479 0.0166,0.0561 0.07463,0.240805 0.128948,0.410449 0.05432,0.169644 0.0817,0.325504 0.06085,0.346355 -0.05385,0.05385 -8.6106412,2.735031 -8.7286472,2.735031 -0.053618,0 -0.1333565,-0.09434 -0.1771956,-0.209646 z"
       id="path9020"
       inkscape:connector-curvature="0"
       transform="matrix(0.26458333,0,0,0.26458333,0,280.06665)" />
    <path
       style="fill:#ffff00;stroke:none;stroke-width:0.19303349;stroke-linejoin:round;stroke-miterlimit:4;stroke-dasharray:none"
       d="m 3.6572793,45.28618 c -0.082055,-0.205076 -0.1249185,-0.397138 -0.095252,-0.426804 0.029666,-0.02967 2.0421353,-0.749634 4.4721531,-1.599928 l 4.4182146,-1.545989 0.151373,0.396364 c 0.08325,0.218 0.127854,0.419882 0.09911,0.448627 -0.05851,0.05851 -8.7195181,3.100595 -8.8275914,3.100595 -0.037849,0 -0.1359522,-0.167789 -0.2180073,-0.372865 z"
       id="path9022"
       inkscape:connector-curvature="0"
       transform="matrix(0.26458333,0,0,0.26458333,0,280.06665)" />
    <path
       style="fill:#ffff00;stroke:none;stroke-width:0.05107344;stroke-linejoin:round;stroke-miterlimit:4;stroke-dasharray:none"
       d="m 15.066679,284.81811 c 0.720241,-0.16016 1.316456,-0.29813 1.324922,-0.3066 0.0085,-0.008 0.0054,-0.0614 -0.0068,-0.11753 -0.01759,-0.0809 -0.03199,-0.10115 -0.06927,-0.0974 -0.07912,0.008 -2.531896,0.55711 -2.571431,0.57577 -0.03106,0.0147 -0.03298,0.035 -0.01196,0.12721 l 0.02503,0.10977 z"
       id="path9012-1"
       inkscape:connector-curvature="0" />
    <path
       style="fill:#ffff00;stroke:none;stroke-width:0.05107344;stroke-linejoin:round;stroke-miterlimit:4;stroke-dasharray:none"
       d="m 15.34764,286.22749 c 0.611681,-0.0569 1.12626,-0.10403 1.143509,-0.10472 0.02371,-9.5e-4 0.02734,-0.029 0.01487,-0.11486 -0.0091,-0.0625 -0.01926,-0.11686 -0.02264,-0.12083 -0.0071,-0.008 -2.160729,0.1807 -2.277789,0.19992 -0.0655,0.0108 -0.07768,0.0229 -0.0774,0.0774 5.55e-4,0.10732 0.02679,0.17249 0.06823,0.16941 0.02149,-0.002 0.539531,-0.0495 1.151212,-0.10637 z"
       id="path9014-3"
       inkscape:connector-curvature="0" />
    <path
       style="fill:#ffff00;stroke:none;stroke-width:0.05107344;stroke-linejoin:round;stroke-miterlimit:4;stroke-dasharray:none"
       d="m 15.831962,287.58646 0.591949,-0.007 v -0.11917 -0.11916 h -0.546229 c -0.300426,0 -0.790129,0.007 -1.088229,0.0158 l -0.542001,0.0158 v 0.11577 0.11577 l 0.49628,-0.006 c 0.272955,-0.003 0.762658,-0.009 1.08823,-0.0124 z"
       id="path9016-1"
       inkscape:connector-curvature="0" />
    <path
       style="fill:#ffff00;stroke:none;stroke-width:0.05107344;stroke-linejoin:round;stroke-miterlimit:4;stroke-dasharray:none"
       d="m 16.428182,289.08769 c 0.0115,-0.19442 0.133528,-0.15262 -1.127341,-0.3862 -0.624266,-0.11564 -1.13814,-0.20715 -1.141941,-0.20335 -0.0038,0.004 -0.01373,0.0566 -0.02206,0.11739 -0.01404,0.10241 -0.01098,0.11145 0.04175,0.12354 0.03129,0.007 0.525074,0.0992 1.097292,0.20453 0.572217,0.10531 1.064611,0.19706 1.094209,0.20389 0.04607,0.0106 0.05443,0.002 0.05808,-0.0598 z"
       id="path9018-6"
       inkscape:connector-curvature="0" />
    <path
       style="fill:#ffff00;stroke:none;stroke-width:0.05107344;stroke-linejoin:round;stroke-miterlimit:4;stroke-dasharray:none"
       d="m 16.39835,290.63422 c 0.0116,-0.0305 0.02479,-0.08 0.02931,-0.10992 0.0078,-0.052 -0.04422,-0.0709 -1.159611,-0.41997 -0.738279,-0.23107 -1.170765,-0.35559 -1.175813,-0.33853 -0.0044,0.0148 -0.01975,0.0637 -0.03412,0.1086 -0.01437,0.0449 -0.02162,0.0861 -0.0161,0.0916 0.01425,0.0143 2.278232,0.72365 2.309455,0.72365 0.01419,0 0.03528,-0.025 0.04688,-0.0555 z"
       id="path9020-0"
       inkscape:connector-curvature="0" />
    <path
       style="fill:#ffff00;stroke:none;stroke-width:0.05107344;stroke-linejoin:round;stroke-miterlimit:4;stroke-dasharray:none"
       d="m 16.123351,291.85864 c 0.02171,-0.0543 0.03305,-0.10508 0.0252,-0.11293 -0.0079,-0.008 -0.540315,-0.19834 -1.183257,-0.42331 l -1.168986,-0.40904 -0.04005,0.10487 c -0.02203,0.0577 -0.03383,0.11109 -0.02622,0.1187 0.01548,0.0155 2.307039,0.82036 2.335634,0.82036 0.01001,0 0.03597,-0.0444 0.05768,-0.0987 z"
       id="path9022-7"
       inkscape:connector-curvature="0" />
  </g>
</svg>
