<?xml version="1.0" encoding="UTF-8" standalone="no"?>
<!-- Created with Inkscape (http://www.inkscape.org/) -->

<svg
   xmlns:dc="http://purl.org/dc/elements/1.1/"
   xmlns:cc="http://creativecommons.org/ns#"
   xmlns:rdf="http://www.w3.org/1999/02/22-rdf-syntax-ns#"
   xmlns:svg="http://www.w3.org/2000/svg"
   xmlns="http://www.w3.org/2000/svg"
   xmlns:sodipodi="http://sodipodi.sourceforge.net/DTD/sodipodi-0.dtd"
   xmlns:inkscape="http://www.inkscape.org/namespaces/inkscape"
   width="64"
   height="64"
   viewBox="0 0 16.933333 16.933334"
   version="1.1"
   id="svg3719"
   sodipodi:docname="side_lights.svg"
   inkscape:export-filename="C:\Users\Konrad\OneDrive\JRMI Icons\cab_light_on_cabin2_europe.png"
   inkscape:export-xdpi="96"
   inkscape:export-ydpi="96"
   inkscape:version="0.92.3 (2405546, 2018-03-11)">
  <defs
     id="defs3713" />
  <sodipodi:namedview
     id="base"
     pagecolor="#ffffff"
     bordercolor="#666666"
     borderopacity="1.0"
     inkscape:pageopacity="0.0"
     inkscape:pageshadow="2"
     inkscape:zoom="11.0625"
     inkscape:cx="29.98345"
     inkscape:cy="29.513836"
     inkscape:document-units="mm"
     inkscape:current-layer="layer1"
     showgrid="false"
     units="px"
     inkscape:pagecheckerboard="true"
     inkscape:window-width="1600"
     inkscape:window-height="877"
     inkscape:window-x="-8"
     inkscape:window-y="-8"
     inkscape:window-maximized="1"
     inkscape:measure-start="0,0"
     inkscape:measure-end="0,0" />
  <metadata
     id="metadata3716">
    <rdf:RDF>
      <cc:Work
         rdf:about="">
        <dc:format>image/svg+xml</dc:format>
        <dc:type
           rdf:resource="http://purl.org/dc/dcmitype/StillImage" />
        <dc:title></dc:title>
      </cc:Work>
    </rdf:RDF>
  </metadata>
  <g
     inkscape:label="Layer 1"
     inkscape:groupmode="layer"
     id="layer1"
     transform="translate(0,-280.06665)">
    <path
       style="fill:none;stroke:#000000;stroke-width:0.26458332px;stroke-linecap:butt;stroke-linejoin:miter;stroke-opacity:1"
       d="m 15.929063,294.2256 0.884934,-6.12279 -1.817702,-5.14219 -1.602449,-1.45894 -12.1977392,-0.0718 0.02392,12.74783 z"
       id="path8912"
       inkscape:connector-curvature="0"
       sodipodi:nodetypes="ccccccc" />
    <path
       style="fill:none;stroke:#000000;stroke-width:0.26458332px;stroke-linecap:butt;stroke-linejoin:miter;stroke-opacity:1"
       d="m 17.005334,294.24951 v 1.50679 l -15.7853102,-0.0718 3e-6,-1.50683 z"
       id="path8914"
       inkscape:connector-curvature="0"
       sodipodi:nodetypes="ccccc" />
    <path
       style="fill:none;stroke:#000000;stroke-width:0.26458332px;stroke-linecap:butt;stroke-linejoin:miter;stroke-opacity:1"
       d="m 16.813997,288.10281 -1.817702,-0.0717 -1.650283,-4.71168 1.841619,0.0957 z"
       id="path8916"
       inkscape:connector-curvature="0" />
    <path
       style="fill:none;stroke:#000000;stroke-width:0.26458332px;stroke-linecap:butt;stroke-linejoin:miter;stroke-opacity:1"
       d="m 12.508912,283.27155 1.650283,4.80734 -2.415631,-3e-5 0.04784,-4.78343 z"
       id="path8918"
       inkscape:connector-curvature="0"
       sodipodi:nodetypes="ccccc" />
    <path
       style="fill:none;stroke:#000000;stroke-width:0.26458332px;stroke-linecap:butt;stroke-linejoin:miter;stroke-opacity:1"
       d="m 10.571624,283.22371 -3.5875702,-0.0478 -0.07175,10.45179 3.7071562,0.0478 z"
       id="path8920"
       inkscape:connector-curvature="0"
       sodipodi:nodetypes="ccccc" />
    <path
       style="fill:none;stroke:#000000;stroke-width:0.26458332px;stroke-linecap:butt;stroke-linejoin:miter;stroke-opacity:1"
       d="m 1.2678578,283.17588 h 4.376836 v 2.72655 l 3e-6,1.84162 -4.400753,-0.0478 z"
       id="path8922"
       inkscape:connector-curvature="0"
       sodipodi:nodetypes="cccccc" />
    <path
       style="fill:none;stroke:#000000;stroke-width:0.26458332px;stroke-linecap:butt;stroke-linejoin:miter;stroke-opacity:1"
       d="m 4.9510968,284.06081 -3.635405,0.0478"
       id="path8924"
       inkscape:connector-curvature="0" />
    <path
       style="fill:#808000;stroke:#000000;stroke-width:0.26458332px;stroke-linecap:butt;stroke-linejoin:miter;stroke-opacity:1"
       d="m 4.8075938,284.85008 -3.611487,-0.0239"
       id="path8926"
       inkscape:connector-curvature="0"
       sodipodi:nodetypes="cc" />
    <path
       style="fill:none;stroke:#000000;stroke-width:0.26458332px;stroke-linecap:butt;stroke-linejoin:miter;stroke-opacity:1"
       d="m 4.8315108,285.75893 -3.611487,-0.0239"
       id="path8928"
       inkscape:connector-curvature="0" />
    <path
       style="fill:none;stroke:#000000;stroke-width:0.26458332px;stroke-linecap:butt;stroke-linejoin:miter;stroke-opacity:1"
       d="m 4.8554278,286.52428 -3.563653,0.0239"
       id="path8930"
       inkscape:connector-curvature="0"
       sodipodi:nodetypes="cc" />
    <path
       style="fill:none;stroke:#000000;stroke-width:0.26458332px;stroke-linecap:butt;stroke-linejoin:miter;stroke-opacity:1"
       d="m 4.7836768,287.19396 -3.539736,0.0239"
       id="path8932"
       inkscape:connector-curvature="0" />
    <path
       style="fill:none;stroke:#000000;stroke-width:0.26458332px;stroke-linecap:butt;stroke-linejoin:miter;stroke-opacity:1"
       d="m 9.6149387,284.20431 -1.6981169,-3e-5 0.02392,3.20489 1.7459515,0.0478 z"
       id="path8934"
       inkscape:connector-curvature="0"
       sodipodi:nodetypes="ccccc" />
    <path
       style="fill:#808000;stroke:none;stroke-width:0.05107344;stroke-linejoin:round;stroke-miterlimit:4;stroke-dasharray:none"
       d="m 16.864416,295.01216 v -0.60678 l -1.010499,-0.0142 c -0.859924,-0.0121 -12.5264651,-0.0652 -13.9915252,-0.0637 l -0.4962805,5e-4 v 0.60989 0.60989 l 0.9865817,-8e-5 c 1.1945729,-1e-4 10.089783,0.0411 12.664124,0.0587 l 1.847599,0.0126 z"
       id="path8936"
       inkscape:connector-curvature="0" />
    <path
       style="fill:#808000;stroke:none;stroke-width:0.05107344;stroke-linejoin:round;stroke-miterlimit:4;stroke-dasharray:none"
       d="m 15.812131,294.06198 c 3.9e-5,-0.0181 0.188386,-1.33459 0.41855,-2.9255 0.230165,-1.5909 0.418481,-2.89416 0.418481,-2.89613 0,-0.002 -0.390148,-0.0173 -0.866996,-0.034 -0.476848,-0.0167 -0.874249,-0.0373 -0.883114,-0.0457 -0.02016,-0.0191 -1.741792,-4.93478 -1.741792,-4.97321 0,-0.0196 0.0413,-0.0244 0.137523,-0.0159 0.167783,0.0149 1.457723,0.0827 1.572813,0.0827 h 0.0826 l -0.04143,-0.10848 c -0.03558,-0.0932 -0.148613,-0.206 -0.79978,-0.79843 l -0.758348,-0.68993 -0.8441,-0.0141 c -0.754377,-0.0126 -9.5536059,-0.065 -10.7039401,-0.0637 l -0.4604049,5.2e-4 v 0.72947 0.72947 h 2.2242938 2.2242939 v 2.4303 2.4303 l -0.627825,-0.0145 c -0.3453035,-0.008 -1.3480087,-0.0212 -2.2282333,-0.0295 l -1.6004087,-0.015 0.01587,1.06116 c 0.00873,0.58364 0.015883,1.9773 0.015899,3.09701 l 2.94e-5,2.03586 5.4949624,0.0151 c 3.022229,0.008 6.2725685,0.0218 7.2229755,0.03 1.458947,0.0126 1.728024,0.01 1.728083,-0.018 z m -7.5638636,-0.27505 -1.4768833,-0.0153 5.556e-4,-0.54097 c 3.175e-4,-0.29753 0.016192,-2.62893 0.035303,-5.18089 0.019111,-2.55196 0.035004,-4.7249 0.035319,-4.82876 l 5.821e-4,-0.18883 1.3812147,0.0156 c 0.7596679,0.009 1.6300494,0.0224 1.9341815,0.0306 l 0.552966,0.0151 0.01511,3.25546 c 0.0083,1.79051 0.02188,4.2067 0.03015,5.36931 l 0.01504,2.11383 -0.523324,-0.0149 c -0.2878294,-0.008 -1.1879231,-0.0218 -2.000209,-0.0302 z m 3.3632186,-7.0586 c 0.0084,-0.82544 0.02205,-1.96529 0.03031,-2.53299 l 0.01502,-1.03219 0.289821,-0.016 c 0.159402,-0.009 0.375776,-0.0125 0.480833,-0.008 l 0.191011,0.008 0.866717,2.52326 c 0.476694,1.38779 0.866989,2.53133 0.867322,2.5412 3.44e-4,0.01 -0.619702,0.0179 -1.377855,0.0179 h -1.37846 z"
       id="path8938"
       inkscape:connector-curvature="0" />
    <path
       style="fill:#808000;stroke:none;stroke-width:0.05107344;stroke-linejoin:round;stroke-miterlimit:4;stroke-dasharray:none"
       d="m 10.469068,291.46547 c -0.008,-1.142 -0.02129,-3.42883 -0.02942,-5.08184 l -0.01478,-3.00548 -0.242233,-0.0135 c -0.4283438,-0.0238 -3.0524768,-0.0433 -3.053053,-0.0226 -0.00257,0.0924 -0.070185,9.39858 -0.070623,9.72146 l -5.821e-4,0.42168 1.3094634,0.0147 c 0.7202048,0.008 1.4908996,0.0208 1.7126547,0.0283 l 0.403193,0.0136 z M 8.5271639,287.5683 7.80752,287.55267 7.7917111,286.47586 c -0.00869,-0.59224 -0.015809,-1.3764 -0.015809,-1.74256 v -0.66575 h 0.992561 0.9925611 l 5.027e-4,0.20927 c 2.646e-4,0.1151 0.016171,0.8658 0.035334,1.66822 0.019164,0.80242 0.035085,1.50615 0.035383,1.56383 l 5.292e-4,0.10489 -0.292985,-0.0149 c -0.1611416,-0.008 -0.6168247,-0.022 -1.012629,-0.0305 z"
       id="path8940"
       inkscape:connector-curvature="0" />
    <path
       style="fill:#999999;stroke:none;stroke-width:0.05107344;stroke-linejoin:round;stroke-miterlimit:4;stroke-dasharray:none"
       d="m 5.503776,285.46896 v -2.14285 H 3.4588606 1.4139455 v 0.32524 0.32525 l 0.2690678,-0.0139 c 0.1479873,-0.008 0.9444281,-0.0206 1.7698683,-0.0288 l 1.5008002,-0.0149 v 0.14305 0.14304 l -1.4888419,0.0153 c -0.8188629,0.008 -1.6153034,0.0217 -1.769868,0.0296 l -0.2810264,0.0143 v 0.21261 0.21261 l 1.1061677,5e-5 c 0.6083921,3e-5 1.3725445,0.007 1.6981167,0.0158 l 0.5919491,0.0157 v 0.13685 0.13685 l -1.7100754,-0.0127 -1.7100753,-0.0127 v 0.3145 0.3145 l 1.1300849,5e-5 c 0.6215464,3e-5 1.3964618,0.007 1.7220337,0.0158 l 0.5919493,0.0157 v 0.13681 0.1368 l -1.7220339,-0.0127 -1.722034,-0.0127 v 0.26286 0.26286 l 1.7339926,-0.0115 1.7339924,-0.0115 v 0.14683 0.14683 H 3.6301371 c -0.6753321,0 -1.4556285,0.007 -1.7339924,0.0158 l -0.5061164,0.0158 v 0.18341 0.18342 l 1.698117,-0.0111 1.6981167,-0.0111 v 0.14674 0.14674 H 3.5583754 c -0.6753378,0 -1.4394902,0.007 -1.6981167,0.0157 l -0.4702304,0.0157 v 0.089 0.089 l 1.5964691,0.0149 c 0.8780578,0.008 1.803651,0.0213 2.0568737,0.0291 l 0.4604049,0.0142 z"
       id="path8942"
       inkscape:connector-curvature="0" />
    <path
       style="fill:#999999;stroke:none;stroke-width:0.05107344;stroke-linejoin:round;stroke-miterlimit:4;stroke-dasharray:none"
       d="m 9.5360151,287.00961 c -0.0074,-0.16457 -0.019087,-0.6221 -0.025961,-1.01674 -0.00688,-0.39463 -0.019225,-0.92469 -0.02744,-1.17791 l -0.014938,-0.46041 H 8.7652934 8.0629111 v 0.6299 c 0,0.34644 0.0071,1.00182 0.015782,1.4564 l 0.015782,0.82652 0.54029,0.0149 c 0.2971597,0.008 0.6245344,0.0176 0.7274997,0.0207 l 0.1872094,0.006 z"
       id="path8944"
       inkscape:connector-curvature="0" />
    <path
       style="fill:#999999;stroke:none;stroke-width:0.05107344;stroke-linejoin:round;stroke-miterlimit:4;stroke-dasharray:none"
       d="m 13.946526,287.92189 c 0,-0.0111 -0.344407,-1.02348 -0.765349,-2.24966 -0.420942,-1.22618 -0.765348,-2.23415 -0.765348,-2.23993 0,-0.006 -0.106382,-0.0105 -0.236403,-0.0105 h -0.236403 l -0.01443,0.79525 c -0.0079,0.43738 -0.02101,1.45446 -0.02906,2.26017 l -0.01463,1.46492 h 1.030807 c 0.566943,0 1.030807,-0.009 1.030807,-0.0202 z"
       id="path8946"
       inkscape:connector-curvature="0" />
    <path
       style="fill:#4d4d4d;stroke:none;stroke-width:0.05107344;stroke-linejoin:round;stroke-miterlimit:4;stroke-dasharray:none"
       d="m 16.601103,287.93614 c -1.23e-4,-0.003 -0.348441,-0.99077 -0.774039,-2.1944 l -0.773815,-2.18841 -0.73872,-0.0395 c -0.406295,-0.0217 -0.742651,-0.0358 -0.747457,-0.0311 -0.0075,0.007 1.519663,4.38884 1.534178,4.4018 0.01895,0.0169 1.500464,0.0679 1.499853,0.0517 z"
       id="path8948"
       inkscape:connector-curvature="0" />
    <path
       style="fill:#4d4d4d;stroke:none;stroke-width:0.05107344;stroke-linejoin:round;stroke-miterlimit:4;stroke-dasharray:none"
       d="m 5.5037802,285.46072 -4.2e-6,-2.13461 H 3.4437728 1.3837698 l 0.014825,0.0897 c 0.00815,0.0493 0.014941,0.19194 0.015084,0.31691 l 2.606e-4,0.22721 0.5082424,-0.009 c 0.2795328,-0.005 0.9279874,-0.0122 1.4410102,-0.0156 0.5130226,-0.003 1.0807555,-0.0134 1.2616289,-0.0222 l 0.3288606,-0.016 v 0.15852 0.15851 l -0.1733991,-0.003 c -0.4696098,-0.009 -3.1506044,0.0417 -3.2886065,0.0628 l -0.077731,0.0119 v 0.20221 0.20221 l 0.5799904,0.003 c 0.3189949,0.002 0.9243976,6.1e-4 1.3453391,-0.002 0.4209417,-0.003 0.9240982,0.002 1.1181262,0.0121 l 0.3527777,0.0176 v 0.14408 0.14408 l -1.4649246,-0.0199 c -0.8057087,-0.011 -1.5752098,-0.0207 -1.7100029,-0.0217 l -0.2450785,-0.002 -7.22e-5,0.3169 -7.25e-5,0.3169 0.6039077,0.003 c 0.3321495,0.002 0.9483146,6.1e-4 1.3692563,-0.002 0.4209415,-0.003 0.9240983,0.002 1.118126,0.0121 l 0.352778,0.0176 v 0.14029 0.14028 l -0.9865821,-0.001 c -0.5426199,-6.9e-4 -1.244887,-0.0105 -1.5605931,-0.0217 -0.3157062,-0.0112 -0.6466597,-0.0145 -0.735452,-0.007 l -0.1614408,0.0132 v 0.24766 0.24767 l 0.9387477,0.005 c 0.5163111,0.003 0.9925611,0.005 1.0583333,0.006 0.065772,7e-5 0.4236323,-0.009 0.7952449,-0.02 l 0.6756591,-0.0201 v 0.16034 0.16034 l -0.3288607,-0.008 c -0.3930375,-0.01 -2.7187694,0.0233 -2.9657249,0.0423 l -0.1733994,0.0133 v 0.16537 0.16538 l 0.9148307,0.005 c 0.5031565,0.003 0.9686438,0.005 1.0344161,0.006 0.065772,10e-5 0.4182509,-0.009 0.7832862,-0.0199 l 0.6637007,-0.02 v 0.16021 0.16021 l -0.3288607,-0.008 c -0.3914309,-0.01 -2.6458666,0.0231 -2.8939736,0.0422 -0.1706835,0.0132 -0.1733994,0.0144 -0.1733994,0.0802 v 0.0668 l 0.3408193,0.017 c 0.1874507,0.009 0.8089971,0.0195 1.3812147,0.0226 0.5722175,0.003 1.3444439,0.0101 1.7160589,0.0158 l 0.6756632,0.0102 z"
       id="path8950"
       inkscape:connector-curvature="0" />
    <path
       style="fill:#b3b3b3;stroke:none;stroke-width:0.05107344;stroke-linejoin:round;stroke-miterlimit:4;stroke-dasharray:none"
       d="m 16.573172,287.89223 c -0.0068,-0.0186 -0.348584,-0.98719 -0.759519,-2.15242 -0.410935,-1.16523 -0.755193,-2.1316 -0.765018,-2.1475 -0.01242,-0.0201 -0.234456,-0.0404 -0.728678,-0.0666 -0.390948,-0.0207 -0.716034,-0.0324 -0.722413,-0.0261 -0.01221,0.0122 0.395331,1.20114 1.043166,3.04327 0.212801,0.6051 0.403705,1.15031 0.42423,1.21157 0.03051,0.0911 0.04987,0.1139 0.106105,0.12515 0.03783,0.008 0.371569,0.0211 0.741638,0.0301 0.574582,0.0139 0.671047,0.0114 0.660489,-0.0175 z"
       id="path8952"
       inkscape:connector-curvature="0" />
    <path
       style="fill:#b3b3b3;stroke:none;stroke-width:0.05107344;stroke-linejoin:round;stroke-miterlimit:4;stroke-dasharray:none"
       d="m 13.557872,287.92423 c 0.200605,-0.004 0.364736,-0.0155 0.364736,-0.0256 0,-0.0101 -0.04817,-0.16193 -0.10704,-0.33745 -0.05887,-0.17553 -0.101288,-0.32845 -0.09426,-0.33983 0.007,-0.0114 2.34e-4,-0.0207 -0.01511,-0.0207 -0.01534,0 -0.02196,-0.0154 -0.01471,-0.0343 0.0072,-0.0189 0.0047,-0.0377 -0.0056,-0.0419 -0.02817,-0.0113 -0.244105,-0.64195 -0.228469,-0.66725 0.0075,-0.0121 10e-4,-0.0219 -0.01434,-0.0219 -0.01534,0 -0.02169,-0.0161 -0.01412,-0.0359 0.0076,-0.0197 0.0022,-0.0359 -0.01196,-0.0359 -0.01415,0 -0.0198,-0.0154 -0.01255,-0.0343 0.0072,-0.0189 0.005,-0.0377 -0.0049,-0.0419 -0.02772,-0.0115 -0.244275,-0.64271 -0.228994,-0.66744 0.0074,-0.0119 8.73e-4,-0.0217 -0.01446,-0.0217 -0.01534,0 -0.02196,-0.0154 -0.01471,-0.0343 0.0072,-0.0189 0.0052,-0.0377 -0.0046,-0.0419 -0.02226,-0.009 -0.226949,-0.5903 -0.22809,-0.64731 -4.5e-4,-0.023 -0.01045,-0.0419 -0.02219,-0.0419 -0.01174,0 -0.01516,-0.0161 -0.0076,-0.0359 0.0076,-0.0197 0.0022,-0.0359 -0.01196,-0.0359 -0.01415,0 -0.0198,-0.0154 -0.01255,-0.0343 0.0072,-0.0189 0.0046,-0.0377 -0.0058,-0.0419 -0.02015,-0.008 -0.201518,-0.53672 -0.201531,-0.58752 -4e-6,-0.0164 -0.01013,-0.0299 -0.0225,-0.0299 -0.01237,0 -0.0163,-0.0161 -0.0087,-0.0359 0.0076,-0.0197 0.0022,-0.0359 -0.01196,-0.0359 -0.01415,0 -0.0198,-0.0154 -0.01255,-0.0343 0.0072,-0.0189 0.0046,-0.0377 -0.0058,-0.0419 -0.01045,-0.004 -0.05337,-0.11121 -0.09537,-0.23794 -0.08663,-0.26138 -0.08448,-0.25989 -0.37408,-0.25989 h -0.150325 l -0.01346,0.19732 c -0.01417,0.20772 -0.02948,1.24817 -0.04663,3.16902 l -0.0103,1.154 0.648912,-0.005 c 0.356902,-0.003 0.813044,-0.009 1.013649,-0.0126 z"
       id="path8954"
       inkscape:connector-curvature="0" />
    <path
       style="fill:#b3b3b3;stroke:none;stroke-width:0.05107344;stroke-linejoin:round;stroke-miterlimit:4;stroke-dasharray:none"
       d="m 8.2273025,287.30308 -0.1674197,-0.009 0.009,-0.36382 c 0.03208,-1.30089 0.03747,-1.58578 0.03813,-2.01785 3.97e-4,-0.26515 0.0086,-0.46964 0.01831,-0.45442 0.01,0.0157 0.01773,-8.3e-4 0.01794,-0.0381 l 3.71e-4,-0.0658 h 0.6950711 0.6951085 l -0.014121,1.17792 c -0.00777,0.64786 -0.020254,1.29871 -0.027748,1.44634 l -0.013626,0.26842 -0.075412,0.014 c -0.041476,0.008 -0.2637591,0.0168 -0.4939617,0.0202 -0.2302023,0.003 -0.4400754,0.0116 -0.4663842,0.0182 -0.026307,0.007 -0.1231731,0.008 -0.2152542,0.003 z"
       id="path8956"
       inkscape:connector-curvature="0" />
    <path
       style="fill:#ffff00;stroke:none;stroke-width:0.19303349;stroke-linejoin:round;stroke-miterlimit:4;stroke-dasharray:none"
       d="m 30.513604,24.688378 c -0.03287,-1.458396 -0.05984,-3.983833 -0.05993,-5.612082 l -1.66e-4,-2.960452 2.644068,0.0014 c 1.454237,7.61e-4 2.701482,0.03773 2.771654,0.08215 0.108521,0.0687 0.118897,0.841869 0.06944,5.173757 -0.03198,2.801145 -0.08387,5.241378 -0.115317,5.42274 -0.07507,0.433037 -0.0909,0.435706 -2.93703,0.495522 l -2.31295,0.04861 z m 0.253482,-8.233551 c 0.05479,-0.197158 0.03885,-0.248587 -0.07705,-0.248587 -0.132104,0 -0.144308,0.297206 -0.127138,3.096045 l 0.01899,3.096045 0.05806,-2.847457 c 0.03193,-1.566102 0.08914,-2.959322 0.127138,-3.096046 z"
       id="path8958"
       inkscape:connector-curvature="0"
       transform="matrix(0.26458333,0,0,0.26458333,0,280.06665)" />
    <path
       style="fill:#ffff00;stroke:none;stroke-width:0.19303349;stroke-linejoin:round;stroke-miterlimit:4;stroke-dasharray:none"
       d="m 44.954695,29.243391 c -0.03569,-0.284557 -0.02603,-3.385174 0.02146,-6.890258 0.117715,-8.686839 0.113618,-8.471419 0.173235,-9.107345 l 0.05297,-0.564972 h 0.856897 c 0.498152,0 0.835393,0.03479 0.805534,0.08311 -0.02825,0.04571 0.01293,0.147404 0.09152,0.225989 0.07858,0.07858 0.114655,0.142881 0.08016,0.142881 -0.0345,0 -0.01208,0.06102 0.04981,0.135593 0.06189,0.07458 0.08223,0.135593 0.0452,0.135593 -0.03703,0 -0.01669,0.06102 0.0452,0.135593 0.06189,0.07458 0.07704,0.136216 0.03367,0.136978 -0.04338,7.59e-4 -0.0345,0.03127 0.01971,0.0678 0.127692,0.08603 0.41025,0.923575 0.346422,1.026852 -0.02689,0.04351 -0.0015,0.07911 0.05651,0.07911 0.05797,0 0.08199,0.06102 0.05337,0.135593 -0.02862,0.07458 -0.01586,0.135593 0.02834,0.135593 0.04421,0 0.107858,0.125125 0.141447,0.278055 0.03359,0.152931 0.221395,0.703504 0.417347,1.223496 0.195951,0.519992 0.332012,0.984697 0.302358,1.032679 -0.02965,0.04798 -0.0065,0.08724 0.05148,0.08724 0.05797,0 0.083,0.05839 0.05561,0.129753 -0.02739,0.07136 -0.02098,0.142551 0.01423,0.158192 0.03521,0.01564 0.139707,0.272507 0.232206,0.570812 0.0925,0.298305 0.210535,0.644068 0.262304,0.768362 0.05177,0.124293 0.102618,0.256497 0.112998,0.293785 0.01038,0.03729 0.02904,0.08814 0.04147,0.112994 0.01243,0.02486 0.03109,0.07571 0.04147,0.112995 0.01038,0.03729 0.06809,0.186982 0.128242,0.332654 0.06015,0.145672 0.117761,0.349062 0.128019,0.451977 0.01026,0.102916 0.03961,0.207459 0.06522,0.232318 0.02561,0.02486 0.142731,0.350282 0.260263,0.723164 0.117533,0.372881 0.244246,0.759322 0.281586,0.858757 0.03734,0.09943 0.06259,0.205047 0.05612,0.234694 -0.0065,0.02965 0.04406,0.121172 0.112294,0.20339 0.06823,0.08222 0.09376,0.149486 0.05673,0.149486 -0.03703,0 -0.02633,0.05085 0.02378,0.112995 0.05011,0.06215 0.24228,0.60113 0.427036,1.19774 0.184757,0.59661 0.377446,1.135593 0.428197,1.19774 0.05075,0.06215 0.06198,0.112994 0.02494,0.112994 -0.03703,0 -0.01669,0.06102 0.0452,0.135594 0.06189,0.07458 0.08223,0.135593 0.0452,0.135593 -0.03703,0 -0.01669,0.06102 0.0452,0.135593 0.06189,0.07458 0.08223,0.135593 0.0452,0.135593 -0.03703,0 -0.02641,0.05085 0.0236,0.112995 0.05002,0.06215 0.199897,0.472927 0.33307,0.912845 0.133173,0.439917 0.287043,0.907714 0.341934,1.039548 0.05489,0.131833 0.108296,0.310883 0.118677,0.397889 0.01038,0.08701 0.02904,0.178531 0.04147,0.20339 0.01243,0.02486 0.03277,0.08588 0.0452,0.135593 0.01243,0.04972 0.03277,0.110735 0.0452,0.135593 0.01243,0.02486 0.02831,0.07571 0.03528,0.112995 0.007,0.03729 0.04179,0.113504 0.07737,0.169369 0.133721,0.209966 -1.016395,0.289017 -4.28724,0.294676 l -3.315829,0.0057 -0.06489,-0.517378 z"
       id="path8960"
       inkscape:connector-curvature="0"
       transform="matrix(0.26458333,0,0,0.26458333,0,280.06665)" />
    <path
       style="fill:#ffff00;stroke:none;stroke-width:0.19303349;stroke-linejoin:round;stroke-miterlimit:4;stroke-dasharray:none"
       d="m 59.313847,29.586902 c -1.315616,-0.04436 -2.05403,-0.104539 -2.138024,-0.174248 -0.07057,-0.05857 -0.153412,-0.206512 -0.184096,-0.328766 -0.03068,-0.122255 -0.09441,-0.222281 -0.141625,-0.222281 -0.04721,0 -0.05986,-0.06769 -0.02811,-0.150422 0.04218,-0.109925 0.02511,-0.130269 -0.0634,-0.07557 -0.08821,0.05451 -0.105628,0.03449 -0.06412,-0.07369 0.03289,-0.08571 -0.689831,-2.281277 -1.708391,-5.18997 -0.970967,-2.772782 -2.167723,-6.231253 -2.659458,-7.68549 l -0.894064,-2.644068 0.787308,8.08e-4 c 0.888889,9.13e-4 3.551345,0.14735 4.19283,0.23061 l 0.422471,0.05483 0.401936,1.099813 c 1.493186,4.085794 5.323854,15.078986 5.272345,15.130495 -0.09505,0.09505 -0.976725,0.10276 -3.195606,0.02794 z"
       id="path8962"
       inkscape:connector-curvature="0"
       inkscape:export-xdpi="96"
       inkscape:export-ydpi="96"
       transform="matrix(0.26458333,0,0,0.26458333,0,280.06665)" />
  </g>
</svg>
