<?xml version="1.0" encoding="UTF-8" standalone="no"?>
<!-- Created with Inkscape (http://www.inkscape.org/) -->

<svg
   xmlns:dc="http://purl.org/dc/elements/1.1/"
   xmlns:cc="http://creativecommons.org/ns#"
   xmlns:rdf="http://www.w3.org/1999/02/22-rdf-syntax-ns#"
   xmlns:svg="http://www.w3.org/2000/svg"
   xmlns="http://www.w3.org/2000/svg"
   xmlns:sodipodi="http://sodipodi.sourceforge.net/DTD/sodipodi-0.dtd"
   xmlns:inkscape="http://www.inkscape.org/namespaces/inkscape"
   width="64"
   height="64"
   viewBox="0 0 16.933333 16.933334"
   version="1.1"
   id="svg3719"
   sodipodi:docname="table_lights_off.svg"
   inkscape:export-filename="C:\Users\Konrad\JRMI Icons\transparent_background\table_lights_off.png"
   inkscape:export-xdpi="96"
   inkscape:export-ydpi="96"
   inkscape:version="0.92.3 (2405546, 2018-03-11)">
  <defs
     id="defs3713">
    <inkscape:path-effect
       effect="ellipse_5pts"
       id="path-effect357"
       is_visible="true" />
  </defs>
  <sodipodi:namedview
     id="base"
     pagecolor="#ffffff"
     bordercolor="#666666"
     borderopacity="1.0"
     inkscape:pageopacity="0.0"
     inkscape:pageshadow="2"
     inkscape:zoom="11.0625"
     inkscape:cx="17.726874"
     inkscape:cy="31.853755"
     inkscape:document-units="mm"
     inkscape:current-layer="layer1"
     showgrid="false"
     units="px"
     inkscape:pagecheckerboard="true"
     inkscape:window-width="1600"
     inkscape:window-height="877"
     inkscape:window-x="-8"
     inkscape:window-y="-8"
     inkscape:window-maximized="1"
     inkscape:measure-start="0,0"
     inkscape:measure-end="0,0" />
  <metadata
     id="metadata3716">
    <rdf:RDF>
      <cc:Work
         rdf:about="">
        <dc:format>image/svg+xml</dc:format>
        <dc:type
           rdf:resource="http://purl.org/dc/dcmitype/StillImage" />
        <dc:title></dc:title>
      </cc:Work>
    </rdf:RDF>
  </metadata>
  <g
     inkscape:label="Layer 1"
     inkscape:groupmode="layer"
     id="layer1"
     transform="translate(0,-280.06665)">
    <path
       style="fill:#808000;stroke:#000000;stroke-width:1.00157475;stroke-linejoin:round;stroke-miterlimit:4;stroke-dasharray:none"
       d="M -0.54296875 -0.08984375 L -0.54296875 65.447266 L 66.349609 65.447266 L 66.349609 -0.08984375 L -0.54296875 -0.08984375 z M 3.71875 11.220703 L 60.191406 11.220703 L 60.191406 58.292969 L 3.71875 58.292969 L 3.71875 11.220703 z "
       transform="matrix(0.26458333,0,0,0.26458333,0,280.06665)"
       id="rect1335" />
    <path
       style="fill:none;stroke:#000000;stroke-width:0.26458332px;stroke-linecap:butt;stroke-linejoin:miter;stroke-opacity:1"
       d="m 1.0045198,287.38529 14.8764592,-0.0478"
       id="path1325"
       inkscape:connector-curvature="0" />
    <path
       style="fill:none;stroke:#000000;stroke-width:0.26458332px;stroke-linecap:butt;stroke-linejoin:miter;stroke-opacity:1"
       d="M 0.98060263,294.17776 15.880979,294.12993"
       id="path1327"
       inkscape:connector-curvature="0" />
    <path
       style="fill:#552200;stroke:#000000;stroke-width:0.26458332px;stroke-linecap:butt;stroke-linejoin:miter;stroke-opacity:1"
       d="m 6.2423727,294.12993 v -0.52618 l 1.1719399,0.0239 v -1.79379 h 0.5261768 l 0.023918,1.76987 1.2436911,0.0239 0.023918,0.43051"
       id="path1329"
       inkscape:connector-curvature="0" />
    <path
       style="fill:#ffff00;stroke:#000000;stroke-width:0.26458332px;stroke-linecap:butt;stroke-linejoin:miter;stroke-opacity:1"
       d="m 6.0510356,291.69038 3.3723164,0.0478 -0.717514,-3.32448 -2.1286253,0.0239 z"
       id="path1331"
       inkscape:connector-curvature="0" />
    <path
       style="fill:#e6e6e6;stroke:#000000;stroke-width:0.09053783;stroke-linejoin:round;stroke-miterlimit:4;stroke-dasharray:none"
       d="m 4.2760262,55.849854 v -1.932548 l 7.3446328,-0.05538 c 4.039548,-0.03046 16.507345,-0.08043 27.706215,-0.111039 l 20.361582,-0.05566 v 2.043588 2.043587 H 31.982241 4.2760262 Z"
       id="path1338"
       inkscape:connector-curvature="0"
       transform="matrix(0.26458333,0,0,0.26458333,0,280.06665)" />
    <path
       style="fill:#e6e6e6;stroke:#000000;stroke-width:0.09053783;stroke-linejoin:round;stroke-miterlimit:4;stroke-dasharray:none"
       d="m 28.822676,43.482032 c -2.881263,-0.04346 -5.254321,-0.09468 -5.273462,-0.113824 -0.01914,-0.01914 0.368196,-2.52954 0.860749,-5.578665 l 0.895552,-5.543863 0.98808,-0.0563 c 0.543445,-0.03096 2.153515,-0.06147 3.577935,-0.0678 l 2.589854,-0.0115 0.100154,0.429378 c 0.200611,0.860057 2.358556,10.90177 2.358556,10.975231 0,0.04159 -0.19322,0.06903 -0.429378,0.06099 -0.236159,-0.008 -2.786776,-0.05019 -5.66804,-0.09365 z"
       id="path1340"
       inkscape:connector-curvature="0"
       transform="matrix(0.26458333,0,0,0.26458333,0,280.06665)" />
  </g>
</svg>
