<?xml version="1.0" encoding="UTF-8" standalone="no"?>
<!-- Created with Inkscape (http://www.inkscape.org/) -->

<svg
   xmlns:dc="http://purl.org/dc/elements/1.1/"
   xmlns:cc="http://creativecommons.org/ns#"
   xmlns:rdf="http://www.w3.org/1999/02/22-rdf-syntax-ns#"
   xmlns:svg="http://www.w3.org/2000/svg"
   xmlns="http://www.w3.org/2000/svg"
   xmlns:sodipodi="http://sodipodi.sourceforge.net/DTD/sodipodi-0.dtd"
   xmlns:inkscape="http://www.inkscape.org/namespaces/inkscape"
   width="64"
   height="64"
   viewBox="0 0 16.933333 16.933334"
   version="1.1"
   id="svg3719"
   sodipodi:docname="warning_off.svg"
   inkscape:export-filename="C:\Users\Konrad\JRMI Icons\warning_off.png"
   inkscape:export-xdpi="96"
   inkscape:export-ydpi="96"
   inkscape:version="0.92.3 (2405546, 2018-03-11)">
  <defs
     id="defs3713" />
  <sodipodi:namedview
     id="base"
     pagecolor="#ffffff"
     bordercolor="#666666"
     borderopacity="1.0"
     inkscape:pageopacity="0.0"
     inkscape:pageshadow="2"
     inkscape:zoom="11.0625"
     inkscape:cx="18.071977"
     inkscape:cy="32.146245"
     inkscape:document-units="mm"
     inkscape:current-layer="layer1"
     showgrid="false"
     units="px"
     inkscape:pagecheckerboard="true"
     inkscape:window-width="1600"
     inkscape:window-height="877"
     inkscape:window-x="-8"
     inkscape:window-y="-8"
     inkscape:window-maximized="1"
     inkscape:measure-start="0,0"
     inkscape:measure-end="0,0" />
  <metadata
     id="metadata3716">
    <rdf:RDF>
      <cc:Work
         rdf:about="">
        <dc:format>image/svg+xml</dc:format>
        <dc:type
           rdf:resource="http://purl.org/dc/dcmitype/StillImage" />
        <dc:title></dc:title>
      </cc:Work>
    </rdf:RDF>
  </metadata>
  <g
     inkscape:label="Layer 1"
     inkscape:groupmode="layer"
     id="layer1"
     transform="translate(0,-280.06665)">
    <path
       style="fill:#ffff00;stroke:#000000;stroke-width:0.26458332px;stroke-linecap:butt;stroke-linejoin:miter;stroke-opacity:1"
       d="m 2.3947033,292.91614 5.4531074,-9.66252 c 0.5903743,-0.78423 0.7265872,-0.11515 1.028437,0.0239 l 6.0988703,9.51902 c 0.118469,0.52671 -0.08667,0.78865 -0.669679,0.74143 l -11.3845586,0.0718 c -0.7200441,0.002 -0.6884819,-0.31766 -0.5261771,-0.69358 z"
       id="path7835"
       inkscape:connector-curvature="0"
       sodipodi:nodetypes="ccccccc" />
    <text
       xml:space="preserve"
       style="font-style:normal;font-weight:normal;font-size:10.58333302px;line-height:1.25;font-family:sans-serif;letter-spacing:0px;word-spacing:0px;fill:#000000;fill-opacity:1;stroke:none;stroke-width:0.26458332"
       x="6.4127827"
       y="292.43781"
       id="text7839"><tspan
         sodipodi:role="line"
         id="tspan7837"
         x="6.4127827"
         y="292.43781"
         style="stroke-width:0.26458332">!</tspan></text>
    <path
       style="fill:#b3b3b3;stroke-width:0.09039548"
       d="M 9.8317553,50.526911 C 9.1971816,50.336747 9.0883409,49.931333 9.4441468,49.083134 9.5588531,48.809687 14.254441,40.430026 19.878785,30.461665 28.862179,14.539861 30.169766,12.268715 30.638913,11.772399 c 0.750187,-0.793631 0.847037,-0.782007 1.882942,0.225989 0.806656,0.784923 0.899743,0.926534 12.19618,18.553672 l 11.38332,17.762712 0.02966,0.601009 c 0.02114,0.428501 -0.01301,0.68352 -0.118998,0.888477 -0.305723,0.591202 1.081471,0.542972 -19.649998,0.683191 -21.237197,0.143639 -26.158202,0.150959 -26.5302617,0.03946 z M 34.135254,44.698953 v -2.079096 l -2.0113,-0.02433 -2.011299,-0.02433 v 2.127753 2.127752 l 2.011299,-0.02433 2.0113,-0.02433 z m -0.278595,-7.480226 c 0.03147,-0.857627 0.13616,-5.077966 0.23264,-9.378531 0.09648,-4.300565 0.198204,-8.358905 0.226054,-9.018534 l 0.05064,-1.199324 -2.239662,0.02418 -2.239662,0.02418 0.02103,0.587571 c 0.01157,0.323164 0.12752,5.021469 0.257668,10.440678 0.130148,5.419209 0.25161,9.903955 0.269913,9.966101 0.02506,0.0851 0.444381,0.112995 1.698717,0.112995 h 1.665437 z"
       id="path557"
       inkscape:connector-curvature="0"
       transform="matrix(0.26458333,0,0,0.26458333,0,280.06665)" />
  </g>
</svg>
